<svg xmlns="http://www.w3.org/2000/svg" viewBox="0 0 572.86 200"><defs><style>.a{fill:#ffffff;}</style></defs><path class="a" d="M148.59,39.61V16.55l-3-1.93C138.75,10.18,116,1.3,97.09.16L94.34,0l-20,18.32L54.24,0,51.5.16C32.55,1.3,9.84,10.18,3,14.62L0,16.55V65.1H128a7.07,7.07,0,1,1,0,14.1H0v13H128a7.07,7.07,0,1,1,0,14.1H0v13.56c0,8.47,7.81,24.49,19,39,10.35,13.38,28,31.25,53.1,40.37l2.21.8,2.22-.8c25.14-9.12,42.75-27,53.09-40.37,7.16-9.26,12.93-19.15,16.15-27.3H17.1C14.38,126,13,121.75,13,119.87v-.54H128c11.36,0,20.61-9,20.61-20.07a19.72,19.72,0,0,0-5.43-13.56,19.68,19.68,0,0,0,5.43-13.55c0-11.07-9.25-20.07-20.61-20.07H13V23.92c7.62-3.74,23.5-9.19,36.58-10.54L74.29,36,99,13.38c13.08,1.35,29,6.8,36.57,10.54V39.61Zm-24.7,104.94c-10.07,14.94-26.63,32.54-49.6,41.57-23-9-39.52-26.63-49.59-41.57Z"/><path class="a" d="M253.17,160,224.31,66h-.74q1.56,28.69,1.56,38.29V160H202.42V40.12H237l28.37,91.67h.49L296,40.12h34.6V160H306.88V103.26q0-4,.12-9.27t1.11-27.87h-.74L276.46,160Z"/><path class="a" d="M356.73,40.12H394q25.5,0,37,7.26t11.52,23.08q0,10.74-5,17.63a20.15,20.15,0,0,1-13.4,8.28v.82q11.39,2.55,16.43,9.51t5.05,18.53q0,16.41-11.85,25.59T401.59,160H356.73ZM382.15,87.6h14.76q10.33,0,15-3.2t4.63-10.58q0-6.88-5-9.88t-16-3H382.15Zm0,20.17V139h16.57q10.48,0,15.49-4t5-12.3q0-14.93-21.32-14.92Z"/><path class="a" d="M572.86,99.9q0,28.91-14.34,44.45t-41.1,15.53q-26.76,0-41.1-15.53T462,99.74q0-29.07,14.38-44.41T517.58,40q26.83,0,41.06,15.45T572.86,99.9Zm-85,0q0,19.51,7.41,29.39t22.14,9.88Q547,139.17,547,99.9T517.58,60.55q-14.73,0-22.22,9.92T487.87,99.9Z"/></svg>