<?xml version="1.0" encoding="utf-8"?>
<!-- Generator: Adobe Illustrator 25.1.0, SVG Export Plug-In . SVG Version: 6.00 Build 0)  -->
<svg version="1.1" id="Ebene_1" xmlns="http://www.w3.org/2000/svg" xmlns:xlink="http://www.w3.org/1999/xlink" x="0px" y="0px"
	 viewBox="0 0 742 381.4" style="enable-background:new 0 0 742 381.4;" xml:space="preserve">
<style type="text/css">
	.st0{fill:#EDEDED;}
	.st1{fill:#FFFFFF;}
</style>
<path class="st0" d="M649.5,230.3L649.5,230.3l-5.6-0.1c-0.2,0-0.5-0.1-0.6-0.2l-3.4-2.9c-0.1-0.1-0.2-0.2-0.2-0.3l-1-2.1L638,223
	c0-0.1,0-0.1,0-0.2l-0.1-0.6l-0.1-1l-0.2-0.9l-0.2-0.4l-1.8,0.9l-0.1,0.1l-1,0.3c-0.1,0-0.3,0-0.4,0h-0.7c-0.1,0-0.2,0-0.3-0.1
	l-0.8-0.3c-0.1-0.1-0.2-0.1-0.3-0.2l-0.8-0.8l-2.1-1.2l-7.8-1.3c-0.4-0.1-0.6-0.3-0.8-0.6l-1.2-3.2l-1-2l-2.1-1.6h-2
	c-0.1,0-0.1,0-0.2,0l-0.7-0.2c-0.1,0-0.2-0.1-0.3-0.1l-0.6-0.4c-0.2-0.1-0.4-0.4-0.5-0.6l-0.2-0.9c0-0.1,0-0.3,0-0.4l0.1-0.6
	c0,0,0-0.1,0-0.1l0.4-1.3l0.1-0.9v-0.8l-0.2-1l-0.5-0.9l-0.3-0.4L611,201l-0.7,0.1l-3.1,1.7c-0.1,0.1-0.3,0.1-0.4,0.1l-1,0.1
	c-0.2,0-0.4-0.1-0.6-0.2l-0.9-0.6c-0.2-0.1-0.3-0.3-0.4-0.5l-0.7-1.9c0-0.1,0-0.1,0-0.2l-0.3-1.6l-0.6-4.1l-0.3-0.7l-0.3-0.3
	l-0.8-0.1l-0.6,0.1h-0.2h-1h-0.2l-1.1-0.2c-0.1,0-0.2-0.1-0.2-0.1l-1.8-1c0,0-0.1,0-0.1-0.1l-1.4-0.9c-0.1-0.1-0.2-0.1-0.2-0.2
	l-1.1-1.6L591,187l-6.2-0.5c-0.2,0-0.4-0.1-0.5-0.2l-3.7-2.7l-7.9-3.9c-0.1,0-0.2-0.1-0.2-0.2l-4-3.6l-1.3-0.5l-1.6-0.1l-5.8,1.4
	c-0.1,0-0.1,0-0.2,0H559c-0.1,0-0.1,0-0.2,0l-3.4-0.5L553,179l-0.5,1c0,0.1-0.1,0.2-0.1,0.2l-1,1.1c-0.1,0.1-0.1,0.2-0.2,0.2l-1,0.6
	c-0.1,0.1-0.2,0.1-0.3,0.1l-3.7,0.8l-4.9,1.9l-3.1,0.9c-0.1,0-0.2,0-0.3,0h-0.9h-0.2l-1.5-0.3l-1.2,0.1l-1.8,0.5l-3.8,1.6l-2.3,1.4
	c-0.1,0.1-0.2,0.1-0.3,0.1l-2.5,0.6c-0.1,0-0.2,0-0.4,0l-2-0.3c-0.2,0-0.4-0.1-0.5-0.2l-3-2.4l-0.1-0.1l-0.8-0.9l-0.2-0.1h-9.8l0,0
	c-0.2,0-0.5-0.1-0.6-0.2l-3.4-2.7c-0.4-0.3-0.5-0.8-0.3-1.2l1.6-3.4l0.1-1.6l0.1-3.3v-0.2l1.3-5.4c0-0.1,0.1-0.2,0.1-0.3l1.6-2.3
	v-2.1l-0.5-0.8l-0.9-1.1l-1.8-1.4l-1.9-1.1l-3-0.9c0,0-0.1,0-0.1-0.1l-5-2.5l-0.2-0.1l-15.6-11.9l-0.2-0.1l-1.8-2.1
	c-0.2-0.2-0.3-0.5-0.2-0.8l0.1-0.7c0.1-0.4,0.3-0.7,0.7-0.8l0.6-0.2l0.2-0.1l0.3-0.3l1.2-2.3l0.1-0.2v-0.6c0-0.1,0-0.2,0-0.2
	l0.1-0.4c0-0.1,0-0.1,0.1-0.2l0.1-0.3c0-0.1,0.1-0.2,0.2-0.3l1.1-1.2l0.4-0.7l0-0.1l-0.2-0.3c0-0.1-0.1-0.2-0.1-0.2l-0.2-0.6
	c0-0.1,0-0.1,0-0.2l-0.4-4.1c0-0.1,0-0.2,0-0.3l0.2-0.8c0-0.1,0-0.1,0-0.2l0.5-1.1l0.2-1.1l0.6-5.8c0,0,0-0.1,0-0.1l0.2-0.9
	c0-0.1,0-0.2,0.1-0.2l0.1-0.3l0.1-0.1l0.2-0.3l0.1-0.1l0.3-0.3c0,0,0.1-0.1,0.1-0.1l0.7-0.6c0,0,0.1-0.1,0.1-0.1l0.5-0.3l1.2-1
	c0.2-0.1,0.4-0.2,0.7-0.2l4.4,0.1c0.1,0,0.2,0,0.3,0.1l1.7,0.6c0.1,0,0.2,0.1,0.2,0.1l1.5,1c0.1,0,0.1,0.1,0.2,0.2l1.3,1.4l0.1,0.1
	l2.6,3.8l1.4,1.3l1.5,0.5l13.4-3.2l1.1-0.9l1.3-2c0-0.1,0.1-0.1,0.1-0.2l1.4-1.4c0.1-0.1,0.2-0.1,0.3-0.2l1.8-0.8
	c0.1-0.1,0.2-0.1,0.3-0.1l4.8-0.2c0.1,0,0.2,0,0.3,0l1.1,0.3c0.1,0,0.2,0.1,0.3,0.1l1.2,0.7v-0.7l0.7-12.5l-1.1-7l-0.4-1l-1.6-1.2
	c-0.2-0.2-0.3-0.4-0.4-0.7l-0.5-4.1l-1.8-0.7c-0.2-0.1-0.4-0.2-0.5-0.3l-2.2-3.1c-0.1-0.1-0.1-0.2-0.1-0.3l-0.4-1.5
	c0-0.1,0-0.2,0-0.3v-1.2c0-0.1,0-0.1,0-0.2l0.2-0.8v-1.2c0-0.1,0-0.1,0-0.2l0.1-0.5c0-0.1,0.1-0.3,0.2-0.4l0.2-0.3
	c0.1-0.2,0.4-0.4,0.6-0.4l0.4-0.1c0.1,0,0.2,0,0.3,0l1.5,0.1l-0.1-1l-0.7-1.3l-1.1-0.9l-1.3-0.5l-3.4-0.5c-0.1,0-0.2-0.1-0.3-0.1
	l-3.1-1.7l-3-1.3l-6-1.4c-0.2,0-0.3-0.1-0.5-0.2l-1.8-1.7c-0.1-0.1-0.1-0.2-0.2-0.3l-0.2-0.4c-0.2-0.4-0.1-0.9,0.2-1.2l0.2-0.2
	l0.4-3.4v-4.4l0.4-4.1c0-0.2,0.1-0.3,0.1-0.4l1.8-3c0.1-0.1,0.1-0.2,0.2-0.2l4.8-4.3l0.4-2.5c0-0.1,0.1-0.2,0.1-0.3l0.9-1.6l0.4-1.6
	c0-0.1,0-0.1,0-0.2l0.6-1.4c0.1-0.3,0.3-0.5,0.6-0.5l1.5-0.6c0.2-0.1,0.3-0.1,0.5-0.1l5.1,0.7c0.1,0,0.2,0,0.2,0.1l4.8,2l1.1-0.1
	l0.7-1.5l-0.4-0.9l-0.5-1.2c0,0,0-0.1,0-0.1l-0.2-0.9c0-0.1,0-0.2,0-0.4l0.2-1c0-0.1,0-0.1,0-0.2l0.7-1.8l2-9.1v-4l-0.4-4.4V6.7
	c0-0.1,0-0.3,0.1-0.4l1.2-2.9l-0.1-0.5c0,0,0-0.1,0-0.1V2c0-0.1,0-0.2,0-0.3l0.2-0.5c0.1-0.2,0.2-0.4,0.3-0.5l0.3-0.2
	c0.1-0.1,0.3-0.2,0.5-0.2l2.2-0.3c0.2,0,0.3,0,0.5,0l5.3,1.8l7.4,0.6c0.4,0,0.7,0.3,0.9,0.7l0.7,2.1c0,0,0,0.1,0,0.1l0.4,2
	c0,0.1,0,0.1,0,0.2v2c0,0.1,0,0.2,0,0.3l-0.3,0.8h0.5l7.1-1.9l0.2-0.1l1.2-1.4l0.2-0.5l0.2-1.8c0-0.2,0.1-0.3,0.2-0.4l0.4-0.6
	c0.2-0.3,0.5-0.4,0.8-0.5h0.7c0.3,0,0.6,0.1,0.8,0.4l0.5,0.6l0.1,0.2l0.3,0.6h4.2c0.1,0,0.2,0,0.3,0l2.2,0.6l0.2,0.1l4.6,2.3
	l4.2,1.4l0.2,0.1l2.1,1.2c0.1,0,0.1,0.1,0.2,0.1l4.7,4l7.8,3l0.1,0.1l7.4,4.4l1.9,0.5h2l1.4-0.4l3.4-1.8l0.2-0.1l0.8-0.2
	c0.1,0,0.2,0,0.2,0h3c0.2,0,0.4,0.1,0.6,0.2l0.6,0.4c0.2,0.1,0.3,0.4,0.4,0.6l0.3,1.6l0.2,0.3l0.2,0.1l1.7,0.1
	c0.2,0,0.4,0.1,0.5,0.2l1,0.7l0.4,0.2h0.6c0.4,0,0.8,0.2,0.9,0.5c0.1,0.2,0.1,0.4,0.1,0.5h0.4c0.2,0,0.5,0.1,0.6,0.3l0.7,0.7
	c0.2,0.2,0.3,0.4,0.3,0.7v0.4l0.5-0.1c0.4-0.1,0.8,0,1,0.3l0.5,0.6c0.1,0.2,0.2,0.4,0.2,0.6v1.2l9.3,6.8l4.8,2.1l8.7-0.5
	c0.1,0,0.1,0,0.2,0l13.2,2l0.2,0l2-0.3c0.3,0,0.6,0,0.8,0.2l1.2,1l1-0.3l0.8-0.7l4.9-8.4c0.1-0.1,0.2-0.2,0.3-0.3l1.7-1.1
	c0.2-0.1,0.5-0.2,0.7-0.2l2.7,0.4h0.7l1.6-0.7c0.1,0,0.2-0.1,0.2-0.1l0.9-0.1c0.2,0,0.3,0,0.5,0l0.9,0.3c0.1,0,0.2,0.1,0.2,0.1
	l1.5,1l5.6,1.6l1.7,0.2c0.1,0,0.2,0,0.3,0.1l1.8,0.8c0.2,0.1,0.4,0.3,0.5,0.5l0.8,1.8c0,0.1,0.1,0.2,0.1,0.2l0.3,2l0.5,1.4l0.8,0.6
	l1.2,0.2l3.6-0.2c0.1,0,0.2,0,0.4,0.1l1.5,0.5c0.1,0,0.2,0.1,0.2,0.1l3.4,2.3l1.5,0.5l1.5-0.2l3.6-1.3c0.1,0,0.3,0,0.4,0l1.6,0.1
	c0.3,0,0.6,0.2,0.7,0.4l2.3,3.2c0.1,0.1,0.1,0.3,0.2,0.5l1.3,9.4l3.1,3.6c0.1,0.2,0.2,0.3,0.2,0.5l0.9,6.9c0,0.1,0,0.3,0,0.4
	l-0.7,2.6c0,0.2-0.1,0.3-0.2,0.4l-1.6,1.7l-0.1,0.1l-1.4,1.2l-0.6,1.1l-0.5,1.8c0,0.1-0.1,0.2-0.1,0.3l-2.5,3.6l-0.9,1.8l-0.4,2
	l-0.8,7.7v0.2l-0.3,0.9c0,0.1,0,0.2-0.1,0.2l-0.2,0.3l-0.1,0.4v1.3l0.1,0.4l0.2,0.2l1.7,0.2c0.1,0,0.3,0.1,0.4,0.1l0.6,0.3l0.1,0.1
	l1,0.8l0.1,0.1l1,1.1c0.1,0.1,0.1,0.2,0.2,0.3l0.4,1.2c0.1,0.2,0.1,0.5,0,0.7l-0.2,0.7l-0.4,0.8l0.1,0.1l0.3,0.3
	c0.1,0.1,0.1,0.2,0.2,0.2l0.3,0.7l0.3,0.9c0,0.1,0,0.1,0,0.2l0.1,0.6l0.2,0.5l0.4,0.3l0.8,0.4c0.1,0,0.2,0.1,0.3,0.2l0.9,0.8
	l0.4,0.1c0.2,0.1,0.4,0.2,0.5,0.4l0.4,0.5c0.1,0.1,0.2,0.3,0.2,0.4l0.1,0.6c0,0.1,0,0.1,0,0.2l-0.1,1.6v0.5l1.5,5.1v0.1l0.5,2.6
	c0,0.1,0,0.1,0,0.2v3l0.6,1.9l2.2,2.4l1,0.6l1.3,0.2c0.1,0,0.3,0.1,0.4,0.1l1,0.6c0.1,0.1,0.3,0.2,0.3,0.4l1.5,2.6
	c0.2,0.4,0.1,0.9-0.2,1.2l-1.2,1.3c-0.1,0.1-0.2,0.1-0.3,0.2l-0.7,0.4l-0.2,0.1l-0.8,0.2c-0.2,0-0.3,0-0.5,0l-1.1-0.2
	c-0.1,0-0.3-0.1-0.4-0.2l-0.8-0.5l-0.5-0.3h-0.1l-0.9,1l-0.3,1.7v0.8l0.3,1c0,0.1,0,0.3,0,0.4l-0.1,1.2c0,0.1,0,0.2-0.1,0.3L725,142
	c-0.1,0.2-0.2,0.3-0.4,0.4l-1.2,0.7c-0.3,0.2-0.7,0.2-1,0l-1.5-0.8c-0.1,0-0.1-0.1-0.2-0.1l-2.9-2.2l-1.2-0.5l-1.6,0.2l-2,0.9
	l-3.9,2.8l-0.2,0.1l-4.1,1.9c-0.2,0.1-0.4,0.1-0.6,0.1l-1-0.1l-0.8,0.2l-1.8,0.9l-2.1,1.7l-1.3,3.4c0,0,0,0.1,0,0.1l-1,1.8
	c0,0.1-0.1,0.2-0.2,0.2l-1.4,1.2c0,0-0.1,0.1-0.1,0.1l-3.3,2.3l-1.8,1.9c-0.1,0.1-0.2,0.1-0.3,0.2l-3.8,1.9
	c-0.2,0.1-0.5,0.1-0.8,0.1l-6.6-2.2l-3.1,0.2l-2.5,0.8l-4.5,3.5l-1.4,1.5l-1.3,2.5l-0.2,5.4c0,0.1,0,0.1,0,0.2l-0.4,1.7
	c0,0.1,0,0.1-0.1,0.2l-0.6,1.3c0,0.1-0.1,0.2-0.2,0.2l-1.2,1.4c0,0-0.1,0.1-0.1,0.1l-1.1,0.9c-0.1,0.1-0.3,0.2-0.5,0.2l-2.5,0.3v7.7
	l0.7,1.5l1.4,2.4l3.2,3.8c0,0,0.1,0.1,0.1,0.1l2.9,4.4c0.2,0.3,0.2,0.7,0,1l-3.2,6.2l-0.1,0.1l-0.6,0.9l-0.8,1.6l-0.5,1.5l-0.3,2.9
	l0.3,1.9l0.5,1.6c0,0.1,0,0.2,0,0.3l-0.1,1.8l-0.2,1.5c0,0.2-0.1,0.4-0.3,0.6l-5.1,5.5c0,0-0.1,0.1-0.1,0.1l-1.6,1.2
	c0,0-0.1,0.1-0.1,0.1l-2.4,1.3c-0.1,0.1-0.2,0.1-0.3,0.1l-2.5,0.4L649.5,230.3z M644.3,228.2l5.1,0.1l2.2-0.4l2.2-1.2l1.5-1.1
	l4.8-5.1l0.1-1.1v-1.5l-0.5-1.5c0-0.1,0-0.1,0-0.2l-0.3-2c0-0.1,0-0.2,0-0.2l0.3-3.1c0-0.1,0-0.2,0-0.2l0.6-1.6c0-0.1,0-0.1,0.1-0.1
	l0.9-1.7l0.6-1l2.9-5.7l-2.5-3.9l-3.2-3.8c0,0-0.1-0.1-0.1-0.1l-1.5-2.6l-0.1-0.1l-0.8-1.8c-0.1-0.1-0.1-0.3-0.1-0.4l0-8.8
	c0-0.5,0.4-0.9,0.9-1l3-0.4l0.8-0.7l1-1.2l0.5-1.1l0.3-1.5l0.2-5.5c0-0.1,0-0.3,0.1-0.4l1.5-2.8c0-0.1,0.1-0.2,0.2-0.2l1.5-1.6
	l0.1-0.1l4.7-3.6c0.1-0.1,0.2-0.1,0.3-0.2l2.8-0.8h0.2l3.4-0.2c0.1,0,0.3,0,0.4,0l6.4,2.1l3.3-1.7l1.8-1.8l0.1-0.1l3.3-2.3l1.2-1.1
	l0.9-1.6l1.3-3.6c0.1-0.2,0.2-0.3,0.3-0.4l2.4-2c0.1-0.1,0.1-0.1,0.2-0.1l2.1-1l0.2-0.1l1.1-0.2c0.1,0,0.2,0,0.3,0l0.8,0.1l3.7-1.8
	l3.8-2.8c0.1,0,0.1-0.1,0.2-0.1l2.2-1.1c0.1,0,0.2-0.1,0.3-0.1l2-0.2c0.2,0,0.4,0,0.5,0.1l1.5,0.7c0.1,0,0.1,0.1,0.2,0.1l2.9,2.3
	l1,0.5l0.5-0.3l0.5-0.9l0.1-0.8l-0.2-0.9c0-0.1,0-0.1,0-0.2l-0.1-1c0-0.1,0-0.2,0-0.2l0.4-2.1c0-0.2,0.1-0.4,0.2-0.5l1.3-1.4
	c0.1-0.1,0.2-0.2,0.3-0.2l0.7-0.3c0.3-0.1,0.6-0.1,0.8,0l1,0.5l0.1,0.1l0.7,0.5l0.7,0.1l0.5-0.1l0.4-0.2l0.6-0.6l-1-1.8l-0.6-0.4
	l-1.3-0.2c-0.1,0-0.3-0.1-0.4-0.1l-1.3-0.8c-0.1-0.1-0.2-0.1-0.2-0.2l-2.4-2.7c-0.1-0.1-0.2-0.2-0.2-0.4l-0.7-2.3c0-0.1,0-0.2,0-0.3
	v-3.1l-0.4-2.5l-1.5-5.2c0-0.1,0-0.1,0-0.2v-0.7v-0.1l0.1-1.6l-0.1-0.3l-0.3-0.1c-0.1,0-0.2-0.1-0.3-0.2l-1-0.9l-0.7-0.3
	c0,0-0.1,0-0.1-0.1l-0.7-0.5c-0.2-0.1-0.3-0.3-0.4-0.5l-0.3-0.9c0-0.1,0-0.1,0-0.2l-0.1-0.6l-0.6-1.4l-0.3-0.2
	c-0.3-0.2-0.5-0.6-0.4-1l0.2-0.7l0.1-0.2l0.5-1.1l-0.2-0.7l-0.8-0.9l-0.9-0.8l-0.3-0.2l-1.7-0.2c-0.1,0-0.3-0.1-0.4-0.1l-0.8-0.4
	c-0.2-0.1-0.4-0.3-0.4-0.5l-0.3-0.9c0-0.1-0.1-0.2,0-0.4l0.1-1.6c0-0.1,0-0.1,0-0.2l0.2-0.7c0-0.1,0-0.2,0.1-0.2l0.2-0.3l0.2-0.7
	l0.8-7.7l0.4-2.2c0-0.1,0-0.2,0.1-0.3l1-2l0.1-0.1l2.4-3.5l0.5-1.8c0-0.1,0-0.1,0.1-0.2l0.7-1.4c0.1-0.1,0.1-0.2,0.3-0.3l1.5-1.3
	l1.4-1.5l0.6-2.2l-0.8-6.4l-3.2-3.7c-0.1-0.1-0.2-0.3-0.2-0.5l-1.3-9.5l-1.9-2.7l-0.9-0.1l-3.5,1.2l-0.2,0l-1.9,0.2
	c-0.2,0-0.3,0-0.5,0l-1.8-0.6l-0.2-0.1l-3.4-2.3l-1.2-0.4l-3.5,0.1c-0.1,0-0.1,0-0.2,0l-1.5-0.3c-0.1,0-0.3-0.1-0.4-0.2l-1.3-0.9
	c-0.2-0.1-0.3-0.3-0.3-0.4l-0.7-1.8l-0.1-0.2l-0.3-2l-0.5-1.3l-1.3-0.5l-1.7-0.2h-0.2l-5.8-1.7c-0.1,0-0.2-0.1-0.3-0.1l-1.5-1
	l-0.6-0.2l-0.5,0.1l-1.6,0.7c-0.1,0-0.2,0.1-0.3,0.1h-1h-0.2l-2.4-0.3l-1.2,0.8l-4.8,8.3c-0.1,0.1-0.1,0.2-0.2,0.2l-1.1,1
	c-0.1,0.1-0.3,0.2-0.4,0.2l-1.5,0.5c-0.2,0.1-0.4,0.1-0.6,0l-0.5-0.2c-0.1,0-0.2-0.1-0.3-0.2l-0.9-0.8l-1.3,0.2
	c-0.2,0.1-0.4,0.2-0.7,0.1l-13.5-2l-8.9,0.5c-0.2,0-0.3,0-0.5-0.1l-5.1-2.2l-0.2-0.1l-9.8-7.1c-0.2-0.1-0.3-0.4-0.4-0.6l-0.1-0.7
	c0-0.1,0-0.1,0-0.2v-0.5l-0.9,0.2c-0.5,0.1-1.1-0.2-1.2-0.7c0-0.1,0-0.1,0-0.2l-0.1-1.1l-0.2-0.1h-0.6l-1.1,0.3
	c-0.5,0.1-1.1-0.2-1.2-0.8c-0.1-0.3,0-0.6,0.2-0.8l0,0l-0.2-0.1c-0.1,0-0.1-0.1-0.2-0.1l-0.8-0.6l-1.6-0.2c-0.1,0-0.2,0-0.3-0.1
	l-0.7-0.3c-0.2-0.1-0.3-0.2-0.5-0.4l-0.5-0.8c-0.1-0.1-0.1-0.2-0.1-0.3l-0.3-1.5h-2.5l-0.6,0.1l-3.3,1.8l-0.2,0.1l-1.6,0.5
	c-0.1,0-0.2,0-0.3,0h-2.2c-0.1,0-0.2,0-0.2,0l-2.2-0.5c-0.1,0-0.2-0.1-0.3-0.1l-7.5-4.2l-7.9-3.1c-0.1,0-0.2-0.1-0.3-0.2l-4.7-4.1
	l-1.9-1.1l-4.2-1.4c0,0-0.1,0-0.1-0.1l-4.6-2.3L565,7.1h-4.4c-0.2,0-0.4-0.1-0.6-0.2l-0.5-0.3c-0.1-0.1-0.2-0.2-0.3-0.3L559,5.8
	l-0.2,1.3c0,0.1,0,0.2-0.1,0.3l-0.3,0.8c0,0.1-0.1,0.2-0.2,0.2l-1.4,1.6c-0.1,0.1-0.1,0.2-0.2,0.2l-0.5,0.3
	c-0.1,0.1-0.2,0.1-0.3,0.1l-7.4,2c-0.1,0-0.2,0-0.3,0h-1.9c-0.6,0-1-0.5-1-1c0-0.1,0-0.2,0-0.3l0.6-2V7.6l-0.4-1.8l-0.5-1.4
	l-6.9-0.6c-0.1,0-0.1,0-0.2,0L532.8,2l-1.5,0.2v0.4l0.1,0.7c0,0.2,0,0.3-0.1,0.5l-1.2,2.9v4l0.4,4.4v4.2c0,0.1,0,0.1,0,0.2l-2.1,9.2
	c0,0,0,0.1,0,0.1l-0.7,1.8l-0.1,0.7l0.1,0.7l0.4,1.1l0.3,0.8l0.1,0.2c0.2,0.3,0.3,0.7,0.1,1l-1.1,2.6c-0.1,0.3-0.5,0.6-0.8,0.6
	l-2,0.2c-0.2,0-0.3,0-0.5-0.1l-4.9-2l-4.7-0.6l-0.8,0.3l-0.4,0.9l-0.4,1.7c0,0.1-0.1,0.2-0.1,0.3l-0.9,1.6l-0.5,2.6
	c0,0.2-0.2,0.4-0.3,0.6l-5,4.4l-1.7,2.7l-0.3,3.7v4.4c0,0,0,0.1,0,0.1L504,63c0,0.1-0.1,0.3-0.1,0.4l1.2,1.1l5.8,1.3h0.2l3.2,1.4
	l3,1.6l3.3,0.4l0.2,0.1l1.6,0.6c0.1,0,0.2,0.1,0.3,0.2l1.4,1.1c0.1,0.1,0.2,0.2,0.2,0.3l1,1.6c0.1,0.1,0.1,0.3,0.1,0.4l0.2,1.5
	c0,0.1,0,0.2,0,0.2l-0.1,0.6c0,0.2-0.2,0.5-0.4,0.6l-0.3,0.2c-0.2,0.2-0.4,0.2-0.7,0.2l-1.8-0.1V78c0,0.1,0,0.1,0,0.2l-0.2,0.8v1.1
	l0.3,1.2l1.9,2.7l2.1,0.8c0.4,0.1,0.6,0.4,0.7,0.8l0.5,4.3l1.5,1.1c0.1,0.1,0.3,0.3,0.3,0.4l0.5,1.3c0,0.1,0.1,0.1,0.1,0.2l1.1,7.2
	c0,0.1,0,0.1,0,0.2l-0.6,12.6l-0.1,3.2c0,0.4-0.3,0.8-0.7,0.9c-0.4,0.1-0.8,0-1.1-0.3l-1.3-1.6l-0.9-0.6l-0.8-0.2l-4.5,0.2l-1.4,0.6
	l-1.2,1.2l-1.4,2c0,0.1-0.1,0.2-0.2,0.2l-1.3,1.1c-0.1,0.1-0.3,0.2-0.4,0.2l-13.9,3.4c-0.2,0.1-0.4,0.1-0.5,0l-2-0.6
	c-0.1,0-0.3-0.1-0.4-0.2l-1.7-1.6c-0.1,0-0.1-0.1-0.1-0.2L494,117l-1.1-1.3l-1.2-0.8l-1.4-0.5l-3.8-0.1l-1,0.9l-0.1,0.1l-0.5,0.3
	l-0.7,0.7l-0.2,0.3l-0.1,0.7l-0.6,5.8c0,0,0,0.1,0,0.1l-0.3,1.3c0,0.1,0,0.1-0.1,0.2l-0.5,1.1l-0.1,0.6l0.4,3.9l0.1,0.4l0.2,0.3
	c0,0,0.1,0.1,0.1,0.1l0.2,0.4c0.1,0.1,0.1,0.3,0.1,0.4v0.6c0,0.2,0,0.3-0.1,0.5l-0.5,0.9l-0.1,0.1l-1,1.2v0.2v0.6c0,0.1,0,0.2,0,0.3
	l-0.1,0.5c0,0.1-0.1,0.2-0.1,0.2l-1.4,2.5c0,0.1-0.1,0.2-0.2,0.2l-0.4,0.4c-0.1,0.1-0.1,0.1-0.2,0.1l-0.5,0.3l-0.1,0.1l1.1,1.4
	l15.5,11.7l4.9,2.4l3,0.9c0.1,0,0.1,0,0.2,0.1l2.1,1.2c0,0,0.1,0,0.1,0.1l2,1.6c0.1,0,0.1,0.1,0.1,0.1l1,1.2l0.1,0.1l0.7,1.1
	c0.1,0.2,0.2,0.3,0.1,0.5l0,2.7c0,0.2-0.1,0.4-0.2,0.6l-1.6,2.4l-1.2,5.1l-0.2,3.2l-0.2,1.8c0,0.1,0,0.2-0.1,0.3l-1.3,2.9l2.5,2h9.8
	l0,0c0.2,0,0.3,0,0.5,0.1l0.5,0.3c0.1,0.1,0.2,0.1,0.2,0.2l0.8,0.9l2.7,2.2l1.5,0.2l2.1-0.5l2.3-1.4l0.1-0.1l3.9-1.7l0.1-0.1l2-0.5
	c0.1,0,0.1,0,0.2,0l1.5-0.1h0.2l1.5,0.3h0.7l2.9-0.8l4.9-1.9h0.1l3.6-0.8l0.8-0.5l0.8-0.9l0.5-1c0-0.1,0.1-0.1,0.1-0.2l2.7-3.4
	c0.2-0.3,0.5-0.5,0.9-0.5l3.9,0.6h0.5l5.8-1.4c0.1,0,0.2,0,0.3,0l2,0.2c0.1,0,0.2,0,0.3,0.1l1.6,0.6c0.1,0,0.2,0.1,0.3,0.2l4,3.7
	l7.9,3.9c0.1,0,0.1,0.1,0.2,0.1l3.5,2.6l6.3,0.6c0.2,0,0.5,0.1,0.7,0.3l2,2.1l0.1,0.1l1.1,1.5l1.2,0.8l1.7,0.9l0.9,0.2h0.7l0.7-0.1
	c0.1,0,0.3,0,0.4,0l1.3,0.2c0.2,0,0.4,0.1,0.5,0.3l0.7,0.6c0.1,0.1,0.2,0.2,0.2,0.3l0.5,1c0,0.1,0.1,0.2,0.1,0.3l0.6,4.2l0.3,1.5
	l0.6,1.5l0.4,0.3h0.5l3.1-1.7c0.1-0.1,0.2-0.1,0.3-0.1l1.2-0.2c0.2,0,0.5,0,0.7,0.1l0.8,0.4c0.1,0.1,0.2,0.1,0.3,0.2l0.5,0.6
	c0,0.1,0.1,0.1,0.1,0.2l0.6,1.1c0,0.1,0.1,0.1,0.1,0.2l0.2,0.5c0,0,0,0.1,0,0.1l0.2,0.8c0,0.1,0,0.1,0,0.2v0.9v0.1l-0.1,1.1
	c0,0.1,0,0.1,0,0.2l-0.5,1.7l0.1,0.3l0.1,0.1l0.5,0.1h2.2c0.2,0,0.4,0.1,0.6,0.2l2.5,1.9c0.1,0.1,0.2,0.2,0.3,0.3l1.2,2.3
	c0,0,0,0.1,0,0.1l1,2.7l7.3,1.3c0.1,0,0.2,0.1,0.3,0.1l2.4,1.3c0.1,0,0.1,0.1,0.2,0.1l0.8,0.7l0.4,0.2h0.3l0.7-0.2l2.2-1.1
	c0.3-0.1,0.6-0.1,0.8,0l0.5,0.2c0.2,0.1,0.3,0.2,0.4,0.3l0.3,0.4c0.1,0.1,0.1,0.1,0.1,0.2l0.3,0.7c0,0,0,0.1,0,0.1l0.3,1.1
	c0,0.1,0,0.1,0,0.2l0.2,1.5l0.6,1.5l0.9,1.8L644.3,228.2z M669.4,130.2L669.4,130.2l-2.2-0.1c-0.1,0-0.1,0-0.2,0l-0.9-0.2l-0.2-0.1
	l-1.7-0.8c-0.1,0-0.1-0.1-0.2-0.1l-1.1-0.8h-2.2l-2.5,0.5c-0.1,0-0.2,0-0.3,0l-5.9-0.5c-0.1,0-0.3-0.1-0.4-0.1l-1.1-0.7
	c-0.2-0.1-0.4-0.3-0.4-0.5l-0.3-0.8l-0.5-0.5c-0.1-0.1-0.1-0.1-0.2-0.2l-0.8-1.4c-0.1-0.2-0.2-0.4-0.1-0.7l0.8-3.9l-0.2-0.6
	l-0.3-0.7l-0.6-0.7c0,0-0.1-0.1-0.1-0.2L647,116c-0.1-0.2-0.1-0.4-0.1-0.5v-1.3c0-0.1,0-0.2,0-0.3l0.3-1.1c0-0.1,0-0.1,0.1-0.2
	l0.3-0.5l0.1-0.1l0.6-1c0,0,0.1-0.1,0.1-0.1l0.7-0.8c0.3-0.3,0.8-0.4,1.2-0.2l2.1,1l1-0.1l1-0.3l0.6-0.4l1-0.9l0.5-0.7
	c0.1-0.1,0.2-0.2,0.3-0.3l6.5-4.2l0.1-0.1l3.4-1.7l0.2-0.1l1.5-0.4l0.4-0.3l0.3-0.9c0.1-0.5,0.6-0.7,1.1-0.7l3,0.3
	c0.3,0,0.5,0.2,0.7,0.4l0.6,0.7l0.1,0.1l2,3.6l0.2-0.3c0.2-0.3,0.4-0.4,0.7-0.5l1.8-0.3c0.3-0.1,0.6,0,0.8,0.3l1,1
	c0.1,0.1,0.2,0.2,0.2,0.3l0.5,1l0.9,1c0.1,0.1,0.2,0.2,0.2,0.4l0.3,1.1l0.3,1.7l0.5,0.5c0.1,0.1,0.2,0.2,0.2,0.3l0.3,0.5
	c0,0,0,0.1,0,0.1l0.1,0.4c0,0.2,0,0.3,0,0.5l-0.1,0.5l-0.7,3.1l-0.4,3.7l0.6,1.8l2.1,4.3c0.2,0.5,0,1.1-0.5,1.3
	c-0.2,0.1-0.4,0.1-0.6,0.1l-6.6-1.2l-4.3,0.2l-1.1,0.3l-0.5,0.4l-0.2,0.3l-0.3,0.7c0,0.1-0.1,0.2-0.2,0.3l-0.5,0.5
	c0,0.1-0.1,0.1-0.2,0.1l-1,0.7C669.7,130.1,669.6,130.2,669.4,130.2L669.4,130.2z M667.4,128.1l1.7,0.1l0.6-0.5l0.3-0.3l0.2-0.6
	c0,0,0-0.1,0.1-0.1l0.3-0.5c0.1-0.1,0.1-0.2,0.2-0.2l0.8-0.7c0.1-0.1,0.2-0.2,0.4-0.2l1.4-0.4c0.1,0,0.2,0,0.2,0l4.5-0.2h0.2
	l4.8,0.9l-1.3-2.6c0,0,0-0.1,0-0.1l-0.7-2.1c0-0.1,0-0.3,0-0.4l0.5-4c0,0,0-0.1,0-0.1l0.8-3.2l-0.2-0.4l-0.6-0.6
	c-0.1-0.1-0.2-0.3-0.3-0.5l-0.4-1.9l-0.2-0.8l-0.9-1c-0.1-0.1-0.1-0.2-0.2-0.3l-0.4-1l-0.5-0.5l-0.9,0.2l-0.4,0.6l-0.2,0.6
	c-0.1,0.2-0.2,0.4-0.4,0.5c-0.5,0.3-1.1,0.2-1.4-0.2l-0.3-0.4l-0.1-0.1l-2.6-4.6l-0.2-0.3l-1.8-0.2l-0.1,0.4
	c-0.1,0.2-0.2,0.3-0.3,0.5l-0.8,0.7c-0.1,0.1-0.2,0.2-0.4,0.2l-1.6,0.4l-3.3,1.6l-6.3,4.1l-0.4,0.7c0,0.1-0.1,0.1-0.2,0.2l-1.1,1
	l-0.1,0.1l-0.8,0.6c-0.1,0.1-0.2,0.1-0.3,0.1l-1.2,0.3h-0.2l-1.3,0.2c-0.2,0-0.4,0-0.5-0.1L650,112l-0.2,0.2l-0.7,1.2l-0.2,0.9v0.9
	l0.6,1l0.7,0.7c0.1,0.1,0.1,0.2,0.2,0.3l0.4,1v0.1l0.2,0.9c0,0.2,0,0.3,0,0.5l-0.8,3.8l0.5,1l0.5,0.5c0.1,0.1,0.2,0.2,0.2,0.3
	l0.2,0.6l0.7,0.4l5.6,0.5l2.5-0.5h0.2h2.6c0.2,0,0.4,0.1,0.6,0.2l1.2,0.9l1.6,0.7L667.4,128.1z"/>
<path class="st0" d="M404,225.7h-0.2l-9-1.8c-0.1,0-0.2-0.1-0.4-0.1l-5.6-3.6c-0.1,0-0.1-0.1-0.2-0.1l-3.4-3.5
	c-0.1-0.1-0.2-0.2-0.2-0.3l-0.8-1.9c0-0.1,0-0.2-0.1-0.3l-0.2-2.2c0-0.1,0-0.2,0-0.4l0.5-1.9c0-0.1,0.1-0.2,0.1-0.2l1.5-2.5l0.5-0.9
	l0.2-1.1l-0.2-0.9l-1.5-2.7c-0.1-0.2-0.2-0.5-0.1-0.8l3.4-10.6l-0.3-0.8l-0.5-0.8l-1.9-0.2c-0.1,0-0.2,0-0.3-0.1l-2-0.9l-0.1-0.1
	l-0.9-0.6l-0.1-0.1l-0.5-0.5c-0.1-0.1-0.1-0.1-0.2-0.2l-0.3-0.5c0,0-0.1-0.1-0.1-0.1l-0.5-1.1c-0.1-0.2-0.1-0.4,0-0.7l0.2-0.7
	c0.1-0.2,0.2-0.4,0.3-0.5l0.7-0.5c0.2-0.1,0.4-0.2,0.6-0.2l3.7-0.2l1.1-0.2l0.4-0.5l-1.4-1.3l-17.3-3.8c-0.1,0-0.2-0.1-0.4-0.1
	l-1.5-1c-0.1-0.1-0.2-0.1-0.2-0.2l-0.9-1.2c-0.1-0.1-0.1-0.2-0.1-0.3l-0.4-1.3l-1.3-5.4l-0.3-2l-0.1-2v-0.1l0.2-4.1l0.2-1.8
	c0,0,0-0.1,0-0.1l0.3-1.2c0-0.1,0-0.1,0.1-0.2l0.4-0.7c0.1-0.1,0.2-0.2,0.3-0.3l0.5-0.4c0.1-0.1,0.3-0.2,0.5-0.2l0.7-0.1
	c0.1,0,0.3,0,0.4,0l2.5,0.7l1.1,0.1l0.9-0.2l0.5-0.6V152l-0.5-0.6l-0.7-0.5l-0.9-0.5c0,0-0.1,0-0.1-0.1l-2.5-1.8l-6.1,2.8
	c-0.1,0-0.2,0.1-0.3,0.1l-5.6,0.7h-0.2l-3.7-0.4h-0.2l-3.8-1.4l-0.1-0.1l-0.5-0.2c0,0-0.1,0-0.1-0.1l-0.5-0.3l-0.2-0.1l-2.7-2.9
	l-2.1-1.3l-2.1-0.3l-3.9,0.2l-1.5,0.5l-0.8,0.6l-0.6,1.9l-0.3,0.7c-0.1,0.2-0.2,0.3-0.4,0.5l-1.2,0.7c-0.1,0.1-0.2,0.1-0.3,0.1
	l-4.5,1.3l-1.9,0.8c-0.3,0.1-0.6,0.1-0.9,0c-0.3-0.1-0.5-0.4-0.5-0.7l-0.2-1.4l-1.3-3l-6.7-7c0,0-0.1-0.1-0.1-0.2l-0.9-1.4l0-0.1
	l-0.9-1.8c0-0.1-0.1-0.1-0.1-0.2l-0.5-1.9c0-0.1,0-0.2,0-0.3l0.2-2c0-0.1,0.1-0.3,0.1-0.4l0.6-1c0.1-0.2,0.3-0.4,0.5-0.4l0.6-0.2
	c0.1,0,0.3,0,0.4,0h0.4h0.1l1.2-1.9c0,0,0-0.1,0.1-0.1l0.4-0.5c0.1-0.1,0.1-0.1,0.2-0.2l3.8-2.6l1.1-1.3l1.7-2.7l0.1-0.1l0.9-1
	c0.1-0.1,0.2-0.2,0.3-0.2l1.5-0.8c0.1,0,0.2-0.1,0.3-0.1l4.6-0.9c0.1-0.1,0.1-0.2,0.2-0.3l1.5-1.2c0,0,0.1-0.1,0.1-0.1l3-1.7
	l3.5-3.4l0.1-0.1l1.6-1.1c0.1,0,0.1-0.1,0.2-0.1l10.1-4l0.2-0.1l13.2-2.3l3-1.7l9.3-8.1l1.2-2l0.5-2.9l0.2-0.8
	c0-0.1,0.1-0.2,0.1-0.3l0.4-0.7l0.4-0.8l0.2-1.3l-0.2-4c0-0.1,0-0.1,0-0.2l0.2-1.4c0-0.1,0-0.1,0-0.2l0.5-1.3c0,0,0-0.1,0-0.1
	l1.2-2.7l0.2-1.1l-0.1-0.9l-0.8-1.2c-0.1-0.1-0.1-0.3-0.1-0.4l-0.4-2.5l-0.2-0.5c0-0.1-0.1-0.2-0.1-0.3l-0.1-0.5
	c0-0.2,0-0.4,0.1-0.6l0.5-1c0-0.1,0.1-0.2,0.2-0.3l0.9-0.8c0.1-0.1,0.2-0.2,0.3-0.2l3.2-1.2c0.1,0,0.1-0.1,0.2-0.1l3.2-0.4
	c0.1,0,0.3,0,0.4,0l10.1,2.8c0.1,0,0.1,0.1,0.2,0.1l1.7,0.9l0.1,0.1l1.7,1c0.1,0.1,0.2,0.2,0.2,0.3l1.3,2l2.8,1.3l0.6-2.6
	c0-0.1,0-0.2,0.1-0.2l0.8-1.7c0.2-0.4,0.7-0.6,1.1-0.5h0.1l1.7-0.3l0.5-0.2l0.6-0.6l0.4-0.5l1.6-3.5l0.6-1.8l0.3-2l0.1-2.3l-0.5-4.7
	c0-0.1,0-0.2,0-0.2l0.2-1.8c0-0.2,0.1-0.4,0.3-0.6l0.3-0.2c-0.1,0-0.1-0.1-0.2-0.1l-0.5-0.4c-0.1-0.1-0.2-0.2-0.2-0.3l-0.7-1.3
	c-0.6,0-1-0.4-1-1c0-0.1,0-0.1,0-0.2l0.2-1.4c0-0.1,0-0.2,0.1-0.3l2.9-6.1c0.2-0.4,0.7-0.7,1.2-0.5l3.9,1.1c0.1,0,0.2,0.1,0.2,0.1
	l1.8,1l0.1,0.1l1.8,1.4l2.1,1.7l6.4,3.6c0.1,0.1,0.2,0.1,0.3,0.2l0.9,0.9l0.1,0.1l1.6,2.5c0,0,0,0.1,0,0.1l0.5,1L438,50l0.5,0.2
	l0.2,0.1l0.6,0.4c0.2,0.1,0.3,0.3,0.4,0.5l0.2,0.9c0,0.2,0,0.3,0,0.5l-0.2,0.9c-0.1,0.4-0.3,0.6-0.7,0.8l-0.4,0.1
	c-0.1,0-0.2,0-0.4,0l-0.4,0.9c-0.1,0.2-0.3,0.4-0.5,0.5l0.3,1.3l0.3,0.6l1.6,2l0.6,0.6l3,1.3l13.6,1.5h0.2l9.4,3.3l0.6-0.1l0.5-0.2
	l1.8-1.5c0.1-0.1,0.1-0.1,0.2-0.1l4.9-2.1l1.2-1.3l2.1-5.6c0.1-0.2,0.2-0.4,0.4-0.5l1.4-1c0.4-0.3,1-0.2,1.3,0.2L483,57l3.6,1.9
	l0.8,0.2l1.1-0.2l2.8-1.3c0.1-0.1,0.2-0.1,0.4-0.1l1.5-0.1c0.3,0,0.5,0.1,0.7,0.2l0.6,0.5c0.2,0.2,0.3,0.4,0.3,0.6l0.1,0.9v0.8
	l1.2-0.4c0.2-0.1,0.4-0.1,0.5,0l0.6,0.1c0.2,0.1,0.4,0.2,0.6,0.4l1,1.4c0.1,0.1,0.1,0.1,0.1,0.2l0.5,1.2l0.4,0.5h0.7l1.2-1.2
	c0.4-0.4,1-0.4,1.4,0c0.1,0.1,0.1,0.2,0.2,0.3l0.1,0.3l1.4,1.4l5.8,1.3h0.2l3.2,1.4l3,1.6l3.3,0.4l0.2,0.1l1.6,0.6
	c0.1,0,0.2,0.1,0.3,0.2l1.4,1.1c0.1,0.1,0.2,0.2,0.2,0.3l1,1.6c0.1,0.1,0.1,0.3,0.1,0.4l0.2,1.5c0,0.1,0,0.2,0,0.2l-0.1,0.6
	c0,0.2-0.2,0.5-0.4,0.6l-0.3,0.2c-0.2,0.2-0.4,0.2-0.7,0.2l-1.8-0.1V78c0,0.1,0,0.1,0,0.2l-0.2,0.8v1.1l0.3,1.2l1.9,2.7l2.1,0.8
	c0.4,0.1,0.6,0.4,0.7,0.8l0.5,4.3l1.5,1.1c0.1,0.1,0.3,0.3,0.3,0.4l0.5,1.3c0,0.1,0.1,0.1,0.1,0.2l1.1,7.2c0,0.1,0,0.1,0,0.2
	l-0.6,12.6l-0.1,3.2c0,0.4-0.3,0.8-0.7,0.9c-0.4,0.1-0.8,0-1.1-0.3l-1.3-1.6l-0.9-0.6l-0.8-0.2l-4.5,0.2l-1.4,0.6l-1.2,1.2l-1.4,2
	c0,0.1-0.1,0.2-0.2,0.2l-1.3,1.1c-0.1,0.1-0.3,0.2-0.4,0.2l-13.9,3.4c-0.2,0.1-0.4,0.1-0.5,0l-2-0.6c-0.1,0-0.3-0.1-0.4-0.2
	l-1.7-1.6c-0.1,0-0.1-0.1-0.1-0.2L494,117l-1.1-1.3l-1.2-0.8l-1.4-0.5l-3.8-0.1l-1,0.9l-0.1,0.1l-0.5,0.3l-0.7,0.7l-0.2,0.3
	l-0.1,0.7l-0.6,5.8c0,0,0,0.1,0,0.1l-0.3,1.3c0,0.1,0,0.1-0.1,0.2l-0.5,1.1l-0.1,0.6l0.4,3.9l0.1,0.4l0.2,0.3c0,0,0.1,0.1,0.1,0.1
	l0.2,0.4c0.1,0.1,0.1,0.3,0.1,0.4v0.6c0,0.2,0,0.3-0.1,0.5l-0.5,0.9l-0.1,0.1l-1,1.2v0.2v0.6c0,0.1,0,0.2,0,0.3l-0.1,0.5
	c0,0.1-0.1,0.2-0.1,0.2l-1.4,2.5c0,0.1-0.1,0.2-0.2,0.2l-0.4,0.4c-0.1,0.1-0.1,0.1-0.2,0.1l-0.5,0.3l-0.1,0.1l1.1,1.4l15.5,11.7
	l4.9,2.4l3,0.9c0.1,0,0.1,0,0.2,0.1l2.1,1.2c0,0,0.1,0,0.1,0.1l2,1.6c0.1,0,0.1,0.1,0.1,0.1l1,1.2l0.1,0.1l0.7,1.1
	c0.1,0.2,0.2,0.3,0.1,0.5l0,2.7c0,0.2-0.1,0.4-0.2,0.6l-1.6,2.4l-1.2,5.1l-0.2,3.2l-0.2,1.8c0,0.1,0,0.2-0.1,0.3l-1.6,3.6
	c-0.1,0.1-0.2,0.3-0.3,0.4l-6.2,5c-0.1,0.1-0.2,0.1-0.3,0.1l-13.7,5.5l-0.8,1.1l-0.3,0.9c-0.1,0.1-0.1,0.3-0.2,0.4l-1.1,1
	c-0.1,0.1-0.1,0.1-0.2,0.2l-1.7,0.9c-0.1,0-0.1,0.1-0.2,0.1l-2.9,0.9l-2.3,1.4l-4.3,3.3c-0.1,0.1-0.2,0.1-0.3,0.2l-2.4,0.7
	c-0.1,0-0.2,0-0.3,0.1H464c-0.1,0-0.2,0-0.3,0l-2-0.6h-0.1l-2.1-0.9l-0.2-0.1l-5.3-3.7l-0.5-0.1l-1,0.2l-3.5,1.7l-0.2,0.1l-4.6,1.2
	l-1.8,1.3c-0.1,0.1-0.3,0.2-0.5,0.2l-0.6,0.1c-0.4,0-0.9-0.2-1-0.7l-0.5-1.4c0-0.1,0-0.1,0-0.2l-0.1-1l-1-2.5l-3.9-4.7l-3.7,0.5
	c-0.1,0-0.2,0-0.4,0l-1.5-0.3h-0.1l-2.5-0.9l-2.8-0.5c-0.1,0-0.1,0-0.2-0.1l-1.3-0.6l-0.1-0.1l-2.2-1.3l-0.5-0.1l-0.8,0.1l-10.1,5.1
	l-1.5,1.2l-1,1.4l-0.5,1.8l-0.2,1.7l-0.2,2.7l0.1,1.3l0.3,1.3l0.7,1.3l1,1.4l1.2,1.3l0.1,0.1l0.8,1.2l0.1,0.1l0.9,1.9
	c0,0.1,0.1,0.2,0.1,0.2l0.5,2.4c0,0.1,0,0.1,0,0.2v1.9c0,0.1,0,0.2,0,0.3l-0.4,1.5c0,0.1,0,0.1-0.1,0.2l-0.3,0.6
	c0,0.1-0.1,0.2-0.1,0.2l-0.4,0.5l-0.1,0.1l-2.3,2l-0.2,0.4c-0.1,0.2-0.4,0.4-0.6,0.5l-1.1,0.3l-0.8,0.4
	C404.3,225.7,404.1,225.7,404,225.7z M395.4,222l8.5,1.6l0.6-0.3c0.1,0,0.2-0.1,0.2-0.1l0.8-0.2l0.1-0.2c0.1-0.1,0.1-0.2,0.2-0.3
	l2.4-2.1l0.3-0.3l0.2-0.4l0.3-1.3v-1.7l-0.4-2.1l-0.9-1.7l-0.7-1.1l-1.2-1.3l-1.1-1.5l-0.1-0.1l-0.8-1.5c0-0.1-0.1-0.2-0.1-0.3
	l-0.3-1.5c0-0.1,0-0.1,0-0.2l-0.1-1.4c0,0,0-0.1,0-0.1l0.2-2.8l0.2-1.9c0,0,0-0.1,0-0.1l0.5-2c0-0.1,0.1-0.2,0.2-0.3l1.2-1.6
	l0.2-0.2l1.6-1.4l0.2-0.1l10.4-5.3c0.1,0,0.2-0.1,0.2-0.1l1.1-0.2c0.1,0,0.2,0,0.4,0l0.9,0.1c0.1,0,0.2,0.1,0.3,0.1l2.3,1.4l1.1,0.5
	l2.8,0.5c0.1,0,0.1,0,0.2,0l2.5,1l1.2,0.3l4.1-0.6c0.3,0,0.7,0.1,0.9,0.3l4.4,5.2c0.1,0.1,0.1,0.2,0.2,0.3l1.1,2.7
	c0,0.1,0,0.2,0.1,0.2l0.1,1l0.1,0.3l1.4-1c0.1-0.1,0.2-0.1,0.3-0.1l4.6-1.3l3.5-1.7l0.2-0.1l1.3-0.3c0.2,0,0.3,0,0.5,0l0.9,0.2
	c0.1,0,0.2,0.1,0.4,0.2l5.4,3.8l2,0.9l1.8,0.5h2.5l2.1-0.6l4.2-3.2l0.1-0.1l2.4-1.4l0.2-0.1l3-0.9l1.5-0.8l0.8-0.8l0.3-0.8
	c0-0.1,0.1-0.2,0.1-0.2l1-1.5c0.1-0.2,0.3-0.3,0.4-0.3l13.8-5.6l5.9-4.8l1.5-3.2l0.1-1.6l0.1-3.3v-0.2l1.3-5.4
	c0-0.1,0.1-0.2,0.1-0.3l1.6-2.3v-2.1l-0.5-0.8l-0.9-1.1l-1.9-1.4l-1.9-1.1l-3-0.9c0,0-0.1,0-0.1-0.1l-5-2.5l-0.2-0.1l-15.6-11.9
	l-0.2-0.1l-1.8-2.1c-0.2-0.2-0.3-0.5-0.2-0.8l0.1-0.7c0.1-0.4,0.3-0.7,0.7-0.8l0.6-0.2l0.2-0.1l0.3-0.3l1.2-2.3l0.1-0.2v-0.6
	c0-0.1,0-0.2,0-0.2l0.1-0.4c0-0.1,0-0.1,0.1-0.2l0.1-0.3c0-0.1,0.1-0.2,0.2-0.3l1.1-1.2l0.4-0.7l0-0.1l-0.2-0.3
	c0-0.1-0.1-0.2-0.1-0.2l-0.2-0.6c0-0.1,0-0.1,0-0.2l-0.4-4.1c0-0.1,0-0.2,0-0.3l0.2-0.8c0-0.1,0-0.1,0-0.2l0.5-1.1l0.2-1.1l0.6-5.8
	c0,0,0-0.1,0-0.1l0.2-0.9c0-0.1,0-0.2,0.1-0.2l0.1-0.3l0.1-0.1l0.2-0.3l0.1-0.1l0.3-0.3c0,0,0.1-0.1,0.1-0.1l0.7-0.6
	c0,0,0.1-0.1,0.1-0.1l0.5-0.3l1.2-1c0.2-0.2,0.4-0.2,0.7-0.2l4.4,0.1c0.1,0,0.2,0,0.3,0.1l1.7,0.6c0.1,0,0.2,0.1,0.2,0.1l1.5,1
	c0.1,0,0.1,0.1,0.2,0.2l1.3,1.4l0.1,0.1l2.6,3.8l1.4,1.3l1.5,0.5l13.4-3.2l1.1-0.9l1.3-2c0-0.1,0.1-0.1,0.1-0.2l1.4-1.4
	c0.1-0.1,0.2-0.1,0.3-0.2l1.8-0.8c0.1-0.1,0.2-0.1,0.3-0.1l4.8-0.2c0.1,0,0.2,0,0.3,0l1.1,0.3c0.1,0,0.2,0.1,0.3,0.1l1.2,0.7v-0.7
	l0.7-12.5l-1.1-7l-0.4-1l-1.6-1.2c-0.2-0.2-0.3-0.4-0.4-0.7l-0.5-4.1l-1.8-0.7c-0.2-0.1-0.4-0.2-0.5-0.3l-2.2-3.1
	c-0.1-0.1-0.1-0.2-0.1-0.3l-0.4-1.5c0-0.1,0-0.2,0-0.3v-1.2c0-0.1,0-0.1,0-0.2l0.2-0.8v-1.2c0-0.1,0-0.1,0-0.2l0.1-0.5
	c0-0.1,0.1-0.3,0.2-0.4l0.2-0.3c0.1-0.2,0.4-0.4,0.6-0.4l0.4-0.1c0.1,0,0.2,0,0.3,0l1.5,0.1l-0.1-1l-0.7-1.3l-1.1-0.9l-1.3-0.5
	l-3.4-0.5c-0.1,0-0.2-0.1-0.3-0.1l-3.1-1.7l-3-1.3l-6-1.4c-0.2,0-0.3-0.1-0.5-0.2l-1.4-1.3l-0.7,0.7c-0.2,0.2-0.5,0.3-0.8,0.3
	l-1.6-0.1c-0.3,0-0.5-0.2-0.7-0.4l-0.8-1c0-0.1-0.1-0.2-0.1-0.2l-0.5-1.3l-0.7-1l-1.2,0.4c-0.1,0-0.3,0.1-0.4,0.1l-0.8-0.1
	c-0.3,0-0.6-0.2-0.8-0.5l-0.3-0.6c-0.1-0.1-0.1-0.3-0.1-0.4v-0.9l-0.1-0.5l-0.9,0.1l-2.7,1.3c-0.1,0-0.1,0.1-0.2,0.1l-1.5,0.3
	c-0.1,0-0.3,0-0.5,0l-1.1-0.3c-0.1,0-0.2,0-0.2-0.1l-3.9-2c-0.1-0.1-0.2-0.1-0.3-0.2l-1.7-2.1l-0.4,0.3l-2.1,5.5
	c0,0.1-0.1,0.2-0.2,0.3l-1.5,1.6c-0.1,0.1-0.2,0.2-0.3,0.2l-4.9,2.1l-1.9,1.5c-0.1,0.1-0.2,0.1-0.3,0.2l-0.8,0.3
	c-0.1,0-0.2,0.1-0.3,0.1l-0.9,0.1c-0.1,0-0.3,0-0.5,0l-9.5-3.4l-13.6-1.5c-0.1,0-0.2,0-0.3-0.1l-3.3-1.4c-0.1,0-0.2-0.1-0.3-0.2
	l-0.8-0.7l-0.1-0.1l-1.7-2.2l-0.1-0.2l-0.4-0.8c0-0.1-0.1-0.2-0.1-0.2l-0.5-2c-0.1-0.2,0-0.4,0.1-0.6l0.2-0.4
	c0.1-0.3,0.3-0.5,0.6-0.5l0.2-0.1l0.5-1c0.1-0.2,0.2-0.3,0.3-0.4l0.3-0.2c0.2-0.1,0.4-0.2,0.6-0.2l-0.1-0.2l-0.2-0.1l-0.6-0.2
	c-0.1,0-0.2-0.1-0.3-0.2l-0.5-0.5c-0.1-0.1-0.1-0.2-0.2-0.3l-0.6-1.2l-1.5-2.4l-0.7-0.8l-6.4-3.5c-0.1,0-0.1-0.1-0.2-0.1l-2.1-1.8
	l-1.7-1.3l-1.7-0.9l-3-0.8l-2.5,5.4c0.1,0.1,0.2,0.2,0.2,0.3l1,1.9l0.2,0.2l1.1,0.5c0.3,0.1,0.5,0.4,0.5,0.7
	c0.1,0.3-0.1,0.7-0.3,0.9l-1,1l-0.2,1.3l0.5,4.6v0.1l-0.1,2.5c0,0,0,0.1,0,0.1l-0.3,2.1v0.2l-0.6,1.9c0,0,0,0.1,0,0.1l-1.7,3.6
	c0,0,0,0.1-0.1,0.1l-0.5,0.7c0,0.1-0.1,0.1-0.1,0.2l-0.8,0.8c-0.1,0.1-0.2,0.2-0.3,0.2l-0.8,0.3c-0.1,0-0.2,0.1-0.2,0.1l-1.9,0.3
	l-0.5,1l-0.8,3.7c-0.1,0.5-0.6,0.9-1.2,0.8c-0.2,0-0.4-0.1-0.5-0.3l-0.1-0.1l-3.8-1.7c-0.2-0.1-0.3-0.2-0.4-0.4l-1.4-2.1l-1.4-1
	l-1.5-0.8l-9.7-2.8l-3,0.4l-2.9,1.1l-0.6,0.6l-0.3,0.6v0.1l0.2,0.5c0,0.1,0.1,0.2,0.1,0.3l0.4,2.4l0.8,1.2c0.1,0.1,0.1,0.2,0.1,0.4
	l0.2,1.3c0,0.1,0,0.2,0,0.3l-0.3,1.4c0,0.1,0,0.2-0.1,0.2l-1.3,2.7l-0.4,1.2l-0.2,1.2l0.2,4c0,0.1,0,0.1,0,0.2l-0.2,1.5
	c0,0.1,0,0.2-0.1,0.3l-0.4,1l-0.1,0.1l-0.4,0.6l-0.1,0.6l-0.5,3c0,0.1-0.1,0.2-0.1,0.3l-1.4,2.3c-0.1,0.1-0.1,0.2-0.2,0.2l-9.5,8.4
	c0,0-0.1,0.1-0.2,0.1l-3.2,1.8c-0.1,0.1-0.2,0.1-0.3,0.1l-13.3,2.3l-9.9,3.9l-1.4,1l-3.6,3.4c-0.1,0.1-0.1,0.1-0.2,0.2l-3,1.7
	l-0.9,0.8c0,0.2-0.1,0.3-0.1,0.5c-0.1,0.3-0.4,0.4-0.7,0.5l-5.2,1l-1.2,0.6l-0.7,0.8l-1.7,2.7c0,0,0,0.1-0.1,0.1l-1.3,1.5
	c-0.1,0.1-0.1,0.1-0.2,0.2l-3.7,2.6l-0.3,0.3l-1.4,2.1c-0.1,0.2-0.2,0.3-0.4,0.4l-0.6,0.3c-0.1,0.1-0.3,0.1-0.5,0.1h-0.4h-0.1
	l-0.3,0.5l-0.1,1.6l0.4,1.6l0.8,1.6l0.8,1.3l6.8,7.1c0.1,0.1,0.1,0.2,0.2,0.3l1.5,3.2c0,0.1,0.1,0.2,0.1,0.2l0,0.3l0.8-0.3h0.1
	l4.4-1.2l0.8-0.5l0.1-0.4l0.7-2.1c0.1-0.2,0.2-0.3,0.3-0.5l1.2-0.9c0.1-0.1,0.2-0.1,0.3-0.2l1.8-0.6c0.1,0,0.2,0,0.2,0l4.1-0.2h0.2
	l2.5,0.3c0.1,0,0.3,0.1,0.4,0.1l2.4,1.4c0.1,0,0.1,0.1,0.2,0.2l2.8,2.9l0.7,0.4l3.7,1.3l3.5,0.4l5.3-0.6l6.5-3
	c0.3-0.1,0.7-0.1,1,0.1l2.9,2.1l0.9,0.5c0,0,0.1,0,0.1,0.1l0.9,0.6c0.1,0.1,0.1,0.1,0.2,0.2l0.8,1c0.2,0.2,0.2,0.5,0.2,0.7l-0.1,1.1
	c0,0.2-0.1,0.4-0.2,0.6l-0.9,1.1c-0.1,0.2-0.3,0.3-0.5,0.3l-1.4,0.4c-0.1,0-0.2,0-0.4,0l-1.4-0.1h-0.2l-2.4-0.7h-0.2l-0.1,0.1
	l-0.2,0.4l-0.3,1.1l-0.2,1.7l-0.2,3.9l0.1,1.9l0.3,1.8l1.2,5.2l0.3,1l0.7,0.9l1.2,0.9l17.3,3.9c0.2,0,0.3,0.1,0.5,0.2l2.3,2.1
	c0.4,0.4,0.4,0.9,0.1,1.4l-1.2,1.5c-0.1,0.2-0.4,0.3-0.6,0.4l-1.6,0.3h-0.1l-3.5,0.2l-0.2,0.1l0.3,0.7l0.2,0.3l0.4,0.3l0.8,0.5
	l1.8,0.8l2.3,0.3c0.3,0,0.6,0.2,0.8,0.5l0.7,1.4l0,0.1l0.5,1.2c0.1,0.2,0.1,0.5,0,0.7l-3.4,10.5l1.4,2.4c0,0.1,0.1,0.2,0.1,0.3
	l0.3,1.2c0,0.1,0,0.3,0,0.4l-0.3,1.5c0,0.1,0,0.2-0.1,0.2l-0.5,1.1l-1.5,2.5l-0.5,1.6l0.2,1.8l0.6,1.6l3.2,3.3L395.4,222z"/>
<path class="st0" d="M632.3,316.6c-0.5,0-1-0.4-1-1l-0.2-2.1l-0.3-0.4l-1.1-0.9c-0.1-0.1-0.1-0.1-0.2-0.2l-0.5-0.7
	c-0.1-0.1-0.2-0.3-0.2-0.5l-0.1-0.9c0-0.1,0-0.2,0-0.2l0.4-2.3l0.1-1.4v-0.2l0.3-1.3c0-0.1,0-0.1,0.1-0.2l0.7-1.4
	c0.1-0.1,0.1-0.2,0.2-0.3l3.4-3l4.6-6.2l2.5-3.6l0.6-1.3l0.1-0.6l-0.2-0.8l-3.4-4.3l-0.1-0.1l-0.9-1.6c0-0.1-0.1-0.2-0.1-0.3l-0.4-2
	c0,0,0-0.1,0-0.1l-0.1-1.4c0-0.1,0-0.2,0-0.3l1-4.3V269l-2.6-10.2c0-0.1,0-0.1,0-0.2l-0.1-2.2l-0.7-5.3l-0.9-3.9l-1.1-3.5l-1.7-4
	c0-0.1-0.1-0.2-0.1-0.3l-0.1-1.2c0-0.1,0-0.3,0-0.4l0.3-1.2c0-0.1,0.1-0.2,0.2-0.3l1.5-2l0.1-0.1l1-1c0.2-0.2,0.4-0.3,0.6-0.3
	l1.2-0.1c0.4-0.1,0.8,0.1,1,0.4l0.5,0.8c0,0.1,0.1,0.2,0.1,0.3l0.2,0.5l0.7-0.4l5.5-5.8c0.2-0.2,0.5-0.3,0.7-0.3l5.5,0.1l2.2-0.4
	l2.2-1.2l1.5-1.1l4.8-5.1l0.1-1.1v-1.5l-0.5-1.5c0-0.1,0-0.1,0-0.2l-0.3-2c0-0.1,0-0.2,0-0.2l0.3-3.1c0-0.1,0-0.2,0-0.2l0.6-1.6
	c0-0.1,0-0.1,0.1-0.1l0.9-1.7l0.6-1l2.9-5.7l-2.5-3.9l-3.2-3.8c0,0-0.1-0.1-0.1-0.1l-1.5-2.6l-0.1-0.1l-0.8-1.8
	c-0.1-0.1-0.1-0.3-0.1-0.4l0-8.8c0-0.5,0.4-0.9,0.9-1l3-0.4l0.8-0.7l1-1.2l0.5-1.1l0.3-1.5l0.2-5.5c0-0.1,0-0.3,0.1-0.4l1.5-2.8
	c0-0.1,0.1-0.2,0.2-0.2l1.5-1.6l0.1-0.1l4.7-3.6c0.1-0.1,0.2-0.1,0.3-0.2l2.8-0.8h0.2l3.4-0.2c0.1,0,0.3,0,0.4,0l6.4,2.1l3.3-1.7
	l1.8-1.8l0.1-0.1l3.3-2.3l1.2-1.1l0.9-1.6l1.3-3.6c0.1-0.2,0.2-0.3,0.3-0.4l2.4-2c0.1-0.1,0.1-0.1,0.2-0.1l2.1-1l0.2-0.1l1.1-0.2
	c0.1,0,0.2,0,0.3,0l0.8,0.1l3.7-1.8l3.8-2.8c0.1,0,0.1-0.1,0.2-0.1l2.2-1.1c0.1,0,0.2-0.1,0.3-0.1l2-0.2c0.2,0,0.4,0,0.5,0.1
	l1.5,0.7c0.1,0,0.1,0.1,0.2,0.1l2.9,2.3l1,0.5l0.5-0.3l0.5-0.9l0.1-0.8l-0.2-0.9c0-0.1,0-0.1,0-0.2l-0.1-1c0-0.1,0-0.2,0-0.2
	l0.4-2.1c0-0.2,0.1-0.4,0.2-0.5l1.3-1.4c0.1-0.1,0.2-0.2,0.3-0.2l0.7-0.3c0.3-0.1,0.6-0.1,0.8,0l1,0.5l0.1,0.1l0.7,0.5l0.7,0.1
	l0.5-0.1l0.4-0.2l1.1-1.1c0.2-0.2,0.5-0.3,0.9-0.3c0.3,0,0.6,0.2,0.7,0.5l0.4,0.7l1.2,1.3c0.3,0.4,0.3,0.9,0,1.3l-0.9,1.1l-0.4,1.2
	l-0.4,2l1.1,0.9c0.3,0.2,0.4,0.6,0.3,1l-0.4,1.6l1.5,0.8l3.1,1.1c0.1,0,0.2,0.1,0.3,0.2l2.3,2c0.2,0.2,0.3,0.5,0.3,0.8
	c0,0.3-0.1,0.6-0.4,0.8l-5.3,4.5l0.4,0.4c0.2,0.2,0.3,0.4,0.2,0.7v0.9c0,0.1,0,0.3-0.1,0.4l-0.4,0.8l-0.2,1.1c0,0.1-0.1,0.3-0.2,0.4
	l-0.2,0.2c-0.1,0.1-0.1,0.2-0.2,0.2l-0.4,0.3h0.1c0.2,0.1,0.4,0.2,0.5,0.4l0.2,0.3c0.1,0.2,0.2,0.5,0.2,0.7l-0.4,2.6v0.1l-0.6,1.9
	c0,0.1-0.1,0.2-0.1,0.3l-1,1.5c-0.1,0.1-0.1,0.2-0.2,0.2l-1.6,1.3c-0.1,0.1-0.3,0.2-0.4,0.2l-3.2,0.7l-0.5,0.3v0.6l0.2,0.2l1.9,0.9
	c0.1,0,0.1,0.1,0.2,0.1l0.8,0.6c0.2,0.1,0.3,0.3,0.3,0.5l0.9,2.6l0.6,0.8c0.3,0.4,0.2,0.9-0.1,1.2l-1.1,1.4l0.1,2l0.6,2.9
	c0,0.1,0,0.1,0,0.2l0.2,4.6l0.4,1.2l0.6,0.8l0.9,0.6c0.5,0.3,0.6,0.9,0.3,1.4c-0.1,0.2-0.2,0.3-0.4,0.4l-2,0.9
	c-0.1,0-0.2,0.1-0.3,0.1l-7,0.9l-7.6,1.9c-0.1,0-0.3,0-0.4,0l-3.7-0.7c-0.3-0.1-0.6-0.3-0.8-0.6l-0.9-2.4l-0.1,0.1l-1.8,2.9
	c0,0.1-0.1,0.1-0.2,0.2l-1.1,1.1c-0.1,0.1-0.3,0.2-0.5,0.3l-0.8,0.2c-0.1,0-0.3,0-0.4,0l-5.5-0.9c-0.1,0-0.3-0.1-0.4-0.1l-1-0.6
	c-0.1,0-0.1-0.1-0.2-0.2l-1.1-1.1c-0.1-0.1-0.1-0.2-0.2-0.2l-0.7-1.5c0-0.1-0.1-0.1-0.1-0.2l-0.3-1.4l-0.4-0.9l-0.9-0.6l-7.5-3
	l-3.7-0.5l-2.9,1.3l-0.3,0.8l0.2,1.6c0,0.2,0,0.3-0.1,0.5l-0.5,1.2c-0.1,0.1-0.1,0.2-0.2,0.3l-0.8,0.8c-0.1,0.1-0.1,0.1-0.2,0.2
	l-3.8,2l-1.1,1l-0.2,0.1l-0.6,0.4c-0.2,0.1-0.5,0.2-0.7,0.1l-0.5-0.1c-0.2,0-0.3-0.1-0.5-0.2l-0.4-0.4l-1.3,2.1c0,0,0,0.1-0.1,0.1
	l-0.1,0.2l0.7,0.4l5.1,2.1l2.4-0.5c0.2-0.1,0.4-0.1,0.6,0l6.1,2.5l2.9-0.5c0.2,0,0.4,0,0.6,0.1l2.1,1c0.2,0.1,0.3,0.2,0.4,0.3
	l1.7,2.3c0.1,0.1,0.1,0.2,0.2,0.3l0.8,2.9c0,0.2,0,0.3,0,0.5l-0.4,2.1l1,0.6c0.1,0,0.2,0.1,0.2,0.2l1.3,1.4c0.1,0.1,0.2,0.2,0.2,0.3
	l0.8,1.8c0.1,0.1,0.1,0.3,0.1,0.4l-0.1,2.2c0,0.2-0.1,0.3-0.1,0.4l-1,1.8c-0.1,0.2-0.3,0.3-0.5,0.4l-2.6,1.1l-0.7,0.7l0.4,5.4
	c0,0.3-0.1,0.7-0.4,0.9l-5,3.9c-0.1,0-0.1,0.1-0.2,0.1l-10.4,4.8c-0.5,0.2-1,0-1.3-0.4l-1-1.7l-0.7-0.5l-0.3,0.1l-0.7,1.2l0.2,5.2
	c0,0.2,0,0.3-0.1,0.5l-0.2,0.4c-0.1,0.2-0.3,0.3-0.4,0.4l-0.4,0.2v0.2l0,0l0.1,0.1l0.4,0.1c0.1,0.1,0.3,0.1,0.4,0.3l0.3,0.3
	c0.1,0.1,0.1,0.2,0.2,0.2l2.9,6.2c0,0.1,0.1,0.2,0.1,0.3l0.4,2.4c0,0.2,0,0.3,0,0.5l-0.6,1.9c-0.1,0.2-0.2,0.3-0.3,0.4l-1.4,1.3
	c-0.1,0.1-0.1,0.1-0.2,0.1l-2.4,1.3l0.2,1.8c0,0.2,0,0.4-0.1,0.6l-1.4,2.9l0.2,1.7h0.3h0.2l0.8,0.1c0.3,0,0.6,0.2,0.7,0.4l0.7,0.9
	c0.1,0.2,0.2,0.4,0.2,0.6v1.2c0,0.1,0,0.2,0,0.3l-0.8,2.4l0.4,0.2l2.8-1.3c0.2-0.1,0.3-0.1,0.5-0.1l1.6,0.1c0.3,0,0.6,0.2,0.7,0.4
	l1.2,1.7c0.2,0.2,0.2,0.5,0.1,0.8l-0.5,1.7c0,0.1-0.1,0.2-0.2,0.3l-2.2,2.9c-0.1,0.1-0.2,0.2-0.3,0.2l-1.7,1.1l-0.4,1.4l0.4,1.1
	l1.5,0.5l0.1,0l1.1,0.6c0.2,0.1,0.4,0.3,0.5,0.5l0.3,0.7c0.1,0.3,0.1,0.6,0,0.9l-0.4,0.8c-0.1,0.2-0.2,0.3-0.3,0.4L677,287l-0.2,0.1
	l-3.1,1.3h0.1c0.1,0,0.1,0,0.2,0l1.4,0.5c0.1,0,0.3,0.1,0.4,0.2l1.4,1.3c0.1,0.1,0.2,0.3,0.3,0.5l0.4,1.5c0.1,0.3,0,0.5-0.1,0.8
	c-0.1,0.2-0.4,0.4-0.6,0.5l-1.8,0.4c-0.1,0-0.1,0-0.2,0h-2.4l-1.2,0.2l-0.2,0.2c-0.1,0.1-0.3,0.2-0.4,0.2l-0.5,0.1
	c-0.2,0-0.3,0-0.5,0l-0.5-0.1c-0.1,0-0.2-0.1-0.3-0.2l-2-1.5l-1.7-0.2l-3.8,0.5c-0.1,0-0.2,0-0.3,0l-3.5-0.7l-0.7,0.1l-0.6,1l-0.4,2
	c0,0.2-0.2,0.4-0.3,0.6l-0.8,0.6c-0.1,0.1-0.3,0.2-0.4,0.2l-0.7,0.2l-0.6,0.5l-0.1,0.4l0.1,0.6c0,0.1,0,0.1,0,0.2v0.9
	c0,0.2-0.1,0.3-0.2,0.5l-0.7,1c-0.1,0.1-0.1,0.2-0.2,0.3l-0.7,0.5c-0.1,0.1-0.1,0.1-0.2,0.1l-1.9,0.8l-2.3,1.7l-1,1.1l-3.5,4.8
	l-0.1,0.1L641,312c-0.1,0.1-0.2,0.1-0.3,0.2l-1.6,0.7l-5.9,3.5c-0.1,0.1-0.2,0.1-0.3,0.1l-0.3,0.1L632.3,316.6z M631.2,310.9
	l1.1,0.9c0.1,0.1,0.2,0.1,0.2,0.2l0.4,0.6l0.1,0.1l0.2,0.3c0,0.1,0.1,0.2,0.1,0.4l0.1,0.7l5-3l1.5-0.7l1.1-1l3.5-4.8l0.1-0.1
	l1.1-1.2l0.1-0.1l2.5-1.8c0.1,0,0.1-0.1,0.2-0.1l1.9-0.8l0.4-0.3l0.4-0.7V299l-0.1-0.7c0-0.1,0-0.3,0-0.4l0.2-0.9
	c0-0.2,0.2-0.4,0.3-0.5l1-0.9c0.1-0.1,0.3-0.2,0.4-0.2l0.7-0.2l0.3-0.3l0.3-1.8c0-0.1,0.1-0.2,0.1-0.3l0.9-1.6
	c0.2-0.3,0.4-0.4,0.7-0.5l1.3-0.2c0.1,0,0.2,0,0.3,0l3.5,0.7l3.8-0.4h0.2l2.1,0.3c0.2,0,0.3,0.1,0.5,0.2l2.1,1.5l0.1-0.1
	c0.1-0.2,0.3-0.3,0.6-0.3l1.6-0.3h0.2h2.4l0.7-0.2l-0.1-0.3l-1-1l-1.1-0.4l-2.7-0.3c-0.4,0-0.7-0.3-0.8-0.7c-0.1-0.4,0-0.7,0.3-1
	l1.2-1.1c0.1-0.1,0.2-0.1,0.3-0.2l4.3-1.7l0.8-0.5l0-0.1l-0.8-0.4l-1.9-0.6c-0.3-0.1-0.5-0.3-0.6-0.6l-0.7-1.9
	c-0.1-0.2-0.1-0.4,0-0.6l0.6-2.1c0.1-0.2,0.2-0.4,0.4-0.6l1.9-1.2l2-2.6l0.3-1l-0.7-1l-0.9-0.1l-3,1.5c-0.3,0.2-0.7,0.1-1-0.1
	l-1.3-0.9c-0.3-0.2-0.5-0.5-0.5-0.9V271c0-0.1,0-0.2,0-0.3l0.7-2.3v-0.8l-0.2-0.3H671l-0.7,0.1c-0.3,0-0.5-0.1-0.7-0.2l-0.6-0.5
	c-0.2-0.2-0.3-0.4-0.3-0.6l-0.3-2.4c0-0.2,0-0.4,0.1-0.6l1.4-2.9l-0.3-2.2V258c0-0.4,0.2-0.7,0.5-0.9l2.9-1.6l1.1-1l0.5-1.4l-0.3-2
	l-2.8-6.1l-0.2-0.1l-0.1-0.1l-0.5-0.2c-0.2-0.1-0.3-0.3-0.4-0.4l-0.3-0.6c-0.1-0.2-0.1-0.3-0.1-0.5l0.1-0.9c0-0.3,0.1-0.5,0.3-0.7
	l0.4-0.4c0.1-0.1,0.1-0.1,0.2-0.1l0.1-0.1l-0.2-5.2c0-0.2,0-0.4,0.1-0.5l1-1.8c0.1-0.2,0.4-0.4,0.6-0.5l1.2-0.3
	c0.3-0.1,0.6,0,0.8,0.1l1.3,0.9c0.1,0.1,0.2,0.2,0.3,0.3l0.7,1.1l9.5-4.4l4.5-3.5l-0.3-5.2c0-0.3,0.1-0.5,0.3-0.8l1.1-1.2
	c0.1-0.1,0.2-0.2,0.3-0.2l2.5-1.1l0.8-1.3l0.1-1.8l-0.6-1.4l-1.1-1.1l-1.5-0.9c-0.4-0.2-0.6-0.6-0.5-1.1l0.5-2.6l-0.7-2.5l-1.4-1.9
	l-1.6-0.7l-2.9,0.5c-0.2,0.1-0.4,0.1-0.6,0l-6.1-2.5l-2.4,0.5c-0.2,0-0.4,0-0.5,0l-5.4-2.2l-0.1-0.1l-1.8-1
	c-0.2-0.1-0.4-0.4-0.5-0.7c-0.1-0.3,0-0.6,0.2-0.8l0.8-1l1.5-2.4c0-0.1,0.1-0.1,0.1-0.2l0.7-0.7c0.2-0.2,0.5-0.3,0.8-0.3
	c0.3,0,0.6,0.2,0.7,0.4l0.6,0.8l0.1-0.1l1.1-1l0.2-0.1l3.8-2l0.6-0.6l0.4-0.8l-0.2-1.6c0-0.2,0-0.3,0.1-0.5l0.6-1.4
	c0.1-0.2,0.3-0.4,0.5-0.5l3.6-1.6c0.2-0.1,0.4-0.1,0.5-0.1l4.1,0.5l0.2,0.1l7.8,3c0.1,0,0.1,0.1,0.2,0.1l1.2,0.9
	c0.2,0.1,0.3,0.3,0.3,0.4l0.5,1.3c0,0,0,0.1,0,0.1l0.3,1.4l0.6,1.2l0.9,0.9l0.8,0.5l5.1,0.8l0.4-0.1l0.8-0.8l1.8-2.9
	c0.1-0.1,0.1-0.2,0.2-0.2l1.3-1.1c0.2-0.2,0.6-0.3,0.9-0.2c0.3,0.1,0.6,0.3,0.7,0.6l1.2,3.2l2.9,0.5l7.5-1.9h0.1l6.9-0.9l0.3-0.1
	l-0.8-1c-0.1-0.1-0.1-0.2-0.1-0.3l-0.5-1.4c0-0.1,0-0.2,0-0.3l-0.2-4.6l-0.6-2.8c0-0.1,0-0.1,0-0.2l-0.1-2.5c0-0.3,0.1-0.5,0.3-0.7
	l0.9-1l-0.2-0.3c0-0.1-0.1-0.2-0.1-0.2l-0.9-2.5l-0.4-0.3l-1.9-0.9c-0.1-0.1-0.2-0.1-0.3-0.2l-0.6-0.6c-0.2-0.2-0.3-0.4-0.3-0.7
	v-1.6c0-0.4,0.2-0.7,0.5-0.9l1.2-0.6c0.1,0,0.2-0.1,0.2-0.1l3.1-0.7l1.3-1l0.8-1.2l0.5-1.7l0.3-1.9l-0.2-0.1l-0.5-0.3
	c-0.3-0.2-0.4-0.4-0.5-0.7l-0.1-0.6c0-0.2,0-0.5,0.1-0.7l0.3-0.4c0.1-0.1,0.2-0.2,0.3-0.3l0.7-0.5l0.2-1c0-0.1,0.1-0.2,0.1-0.2
	l0.4-0.7v-0.3l-0.8-0.9c-0.2-0.2-0.3-0.5-0.2-0.7c0-0.3,0.1-0.5,0.3-0.7l5.2-4.4l-1.3-1.1l-3-1.1l-0.2-0.1l-2.2-1.2
	c-0.4-0.2-0.6-0.7-0.5-1.1l0.4-1.8l-0.6-0.5l-0.3-0.2c-0.3-0.2-0.5-0.6-0.4-1l0.5-2.7v-0.1l0.5-1.5c0-0.1,0.1-0.2,0.2-0.3l0.5-0.6
	l-0.6-0.6l-0.3,0.3c-0.1,0.1-0.2,0.1-0.3,0.2l-0.7,0.4l-0.2,0.1l-0.8,0.2c-0.2,0-0.3,0-0.5,0l-1.1-0.2c-0.1,0-0.3-0.1-0.4-0.2
	l-0.8-0.5l-0.5-0.3h-0.1l-0.9,1l-0.3,1.7v0.8l0.3,1c0,0.1,0,0.3,0,0.4l-0.1,1.2c0,0.1,0,0.2-0.1,0.3L725,142
	c-0.1,0.2-0.2,0.3-0.4,0.4l-1.2,0.7c-0.3,0.2-0.7,0.2-1,0l-1.5-0.8l-0.2-0.1l-2.9-2.2l-1.2-0.5l-1.6,0.2l-2,0.9l-3.9,2.8l-0.2,0.1
	l-4.1,1.9c-0.2,0.1-0.4,0.1-0.6,0.1l-1-0.1l-0.8,0.2l-1.8,0.9l-2.1,1.7l-1.3,3.4c0,0,0,0.1,0,0.1l-1,1.8c0,0.1-0.1,0.2-0.2,0.2
	l-1.4,1.2c0,0-0.1,0.1-0.1,0.1l-3.3,2.3l-1.8,1.9c-0.1,0.1-0.2,0.1-0.3,0.2l-3.8,1.9c-0.2,0.1-0.5,0.1-0.8,0.1l-6.6-2.2l-3.1,0.2
	l-2.5,0.8l-4.5,3.5l-1.4,1.5l-1.3,2.5l-0.2,5.4c0,0.1,0,0.1,0,0.2l-0.4,1.7c0,0.1,0,0.1-0.1,0.2l-0.6,1.3c0,0.1-0.1,0.2-0.2,0.3
	l-1.2,1.4c0,0-0.1,0.1-0.1,0.1l-1.1,0.9c-0.1,0.1-0.3,0.2-0.5,0.2l-2.5,0.3v7.7l0.7,1.5l1.4,2.4l3.2,3.8c0,0,0.1,0.1,0.1,0.1
	l2.9,4.4c0.2,0.3,0.2,0.7,0,1l-3.2,6.2l-0.1,0.1l-0.6,0.9l-0.8,1.6l-0.5,1.5l-0.3,2.9l0.3,1.9l0.5,1.6c0,0.1,0,0.2,0,0.3l-0.1,1.8
	l-0.2,1.5c0,0.2-0.1,0.4-0.3,0.6l-5.1,5.5c0,0-0.1,0.1-0.1,0.1l-1.6,1.2c0,0-0.1,0.1-0.1,0.1l-2.4,1.3c-0.1,0.1-0.2,0.1-0.3,0.1
	l-2.5,0.4c-0.1,0-0.1,0-0.2,0l-5.1-0.1l-5.3,5.6c-0.1,0.1-0.1,0.1-0.2,0.2l-1.8,1c-0.2,0.1-0.5,0.2-0.8,0.1
	c-0.3-0.1-0.5-0.2-0.6-0.5l-0.3-0.6c0-0.1-0.1-0.1-0.1-0.2L635,235l-0.1-0.2h-0.2l-0.7,0.7l-1.3,1.8l-0.2,0.8l0.1,0.9l1.7,4l1.1,3.6
	l1,4.1l0.8,5.5l0.1,2.2l2.6,10.3c0,0.1,0,0.2,0,0.2v3.9c0,0.1,0,0.1,0,0.2l-1,4.3l0.1,1.2l0.3,1.8l0.7,1.4l3.5,4.4
	c0.1,0.1,0.2,0.3,0.2,0.4l0.3,1.2c0,0.1,0,0.2,0,0.3l-0.1,1c0,0.1,0,0.2-0.1,0.3l-0.7,1.5c0,0,0,0.1-0.1,0.1l-2.5,3.7l-4.7,6.2
	c0,0.1-0.1,0.1-0.1,0.1l-3.3,2.9l-0.5,1.1l-0.3,1.1l-0.1,1.4c0,0,0,0.1,0,0.1l-0.4,2.2v0.5L631.2,310.9z"/>
<path class="st0" d="M59.6,315.3L59.6,315.3l-1.3,0c-0.1,0-0.2,0-0.3,0l-4.2-1.4c-0.1,0-0.1-0.1-0.2-0.1l-2.2-1.3
	c-0.1,0-0.1-0.1-0.2-0.1l-3.6-3.4l-10.2-3.3c-0.1,0-0.2-0.1-0.3-0.2l-2.4-1.9c-0.1-0.1-0.1-0.1-0.2-0.2l-1.2-1.8
	c-0.1-0.1-0.1-0.3-0.2-0.5l-0.2-1.4c0-0.1,0-0.2,0-0.3l0.3-1.5l0.2-3.3c0-0.1,0-0.1,0-0.2l0.4-1.3c-0.2,0-0.4-0.1-0.6-0.2l-0.4-0.4
	c-0.3-0.2-0.4-0.5-0.3-0.9l0.1-0.8l-17.5-5.5l-1.4-0.2l-5,0.6c-0.1,0-0.3,0-0.4,0l-1.8-0.5c-0.5-0.1-0.9-0.7-0.7-1.2
	c0-0.1,0.1-0.3,0.2-0.4l2.5-3.2l0.6-3.2l-0.9-3.2l-2.1-2.9l-2.7-1.6c-0.3-0.2-0.5-0.5-0.5-0.9v-1.2c0-0.1,0-0.3,0.1-0.4l0.9-2
	l0.1-0.6l-0.7-1.6l-0.8-1.1c-0.1-0.1-0.1-0.2-0.1-0.3l-0.4-1.3c-0.1-0.2-0.1-0.4,0-0.6l0.5-1.4L1.2,257l-0.1-0.2l-0.9-1.3
	c-0.2-0.3-0.2-0.7,0-1.1l3.1-5.3c0,0,0.1-0.1,0.1-0.1l3.2-3.9l0.3-0.8l0.5-2.4c0,0,0-0.1,0-0.1l0.4-1.3c0.1-0.1,0.1-0.2,0.2-0.3
	l3.7-4.7l0.8-1.9l0.1-5.4l-2.3-2.1l-3.5-1.6c-0.2-0.1-0.3-0.2-0.4-0.4L3.4,220c-0.1-0.1-0.1-0.2-0.1-0.3l-0.7-3.4
	c-0.1-0.4,0.1-0.8,0.4-1c0.3-0.2,0.8-0.2,1.1,0l0.1,0.1l5.8,1.6l5.9-0.1l2.2-1.1l1.2-1.9l1.2-2.6c0-0.1,0.1-0.2,0.1-0.2l2.1-2.5
	c0.1-0.1,0.2-0.2,0.3-0.2l1.4-0.8c0.1-0.1,0.2-0.1,0.4-0.1l1.5-0.2c0.2,0,0.3,0,0.5,0.1l1.4,0.5c0.2,0.1,0.3,0.1,0.4,0.3l1.1,1.2
	c0.1,0.1,0.2,0.3,0.2,0.5l0.3,1.7c0,0.1,0,0.2,0,0.3l-0.1,1.5l0.2,0.9l1.3,0.7h0.2l1-0.6c0.1-0.1,0.2-0.1,0.3-0.1l0.5-0.1
	c0.2-0.1,0.4-0.1,0.6,0l2.8,1l2.6,0.2l1.1-0.2l1-0.8c0.3-0.2,0.7-0.3,1-0.1c0.3,0.1,0.6,0.4,0.6,0.8l0.2,2.1l0.8,1.1l1.2,1.2
	c0.1,0.1,0.2,0.2,0.2,0.3l0.9,1.9c0.1,0.1,0.1,0.3,0.1,0.4v0.7l0.1,0.3l0.2,0.1l0.2-0.1l0.7-0.7c0.1-0.1,0.2-0.1,0.2-0.1l1.1-0.5
	c0.4-0.2,1-0.1,1.2,0.4l4.8,7c0,0,0.1,0.1,0.1,0.1l0.8,1.7c0.1,0.2,0.1,0.5,0.1,0.7l-0.5,1.5c-0.1,0.2-0.2,0.4-0.3,0.5l-1.4,1.1
	l0.4,0.4c0.1,0.1,0.2,0.3,0.2,0.5l0.3,1.5c0,0,0,0.1,0,0.1l0.1,1.4l0.4,1l0.4,0.4l0.5-0.3l0.2-0.1l1.3-0.6c0.2-0.1,0.4-0.1,0.6-0.1
	l0.5,0.1c0.1,0,0.3,0.1,0.4,0.1l0.7,0.4l0,0l1.1-1.2c0.2-0.2,0.4-0.3,0.6-0.3l4.3-0.8c0.2,0,0.5,0,0.7,0.1l1.8,1
	c0.3,0.2,0.5,0.5,0.5,0.9l-0.1,2.6c0,0.1,0,0.2,0,0.3l-1.7,5l0.2,0.7v0.2v0.9c0,0.1,0,0.2,0,0.3l-0.2,1c-0.1,0.2-0.1,0.3-0.3,0.5
	l-0.5,0.5c-0.1,0.1-0.3,0.2-0.4,0.2l-1.2,0.4l-0.5,0.9h0.2c0.4,0,0.8,0.2,1,0.6l1.6,4.1c0,0.1,0,0.1,0.1,0.2l1.2,6.4
	c0,0,0,0.1,0,0.1l0.1,1.4v0.1l-0.2,4c0,0.1,0,0.2-0.1,0.3l-1.4,3.5c0,0.1-0.1,0.1-0.1,0.2l-3.7,5.6l-0.9,2.5l-1.1,5.5l-0.2,2.1
	l0.1,1.6L61,293c0,0,0,0.1,0,0.1v1.5v0.1l-0.3,2.5c0,0.1,0,0.2,0,0.2l-0.6,1.8c0,0.1-0.1,0.2-0.1,0.3l-1.1,1.5l-0.1,0.1l-1.1,1
	l-1.1,1.3l-0.2,0.8l0.2,1l2.1,3.5l0.1,0.2l1.8,4.6v0.1l0.1,0.4c0.1,0.3,0,0.6-0.2,0.9C60.2,315.1,59.9,315.3,59.6,315.3z
	 M54.5,311.9l3.7,1.2l-1.3-3.5l-2.2-3.5c-0.1-0.1-0.1-0.2-0.1-0.4l-0.2-1.4c0-0.1,0-0.3,0-0.4l0.3-1.2c0-0.1,0.1-0.3,0.2-0.4
	l1.2-1.6l0.1-0.1l1.1-1l0.9-1.2l0.5-1.5l0.2-2.3v-1.4l-0.3-1.9l-0.1-1.8v-0.1l0.2-2.2c0,0,0-0.1,0-0.1l1.1-5.7c0-0.1,0-0.1,0-0.2
	l1-2.7c0-0.1,0.1-0.1,0.1-0.2l3.7-5.6l1.3-3.3l0.2-3.8l-0.1-1.3l-1.1-6.3l-1.3-3.3l-0.7,0.1c-0.2,0-0.4,0-0.6-0.1l-0.4-0.2
	c-0.4-0.3-0.6-0.8-0.4-1.3l0.4-0.9l0.9-1.7c0.1-0.1,0.2-0.3,0.3-0.3l0.4-0.3c0.1-0.1,0.2-0.1,0.3-0.1l1-0.3l0.1-0.1l0.1-0.5v-0.6
	l-0.2-0.9c0-0.2,0-0.4,0-0.5l1.7-5.2v-1.8l-0.9-0.5l-3.6,0.7l-0.9,1c0,0-0.1,0.1-0.1,0.1l-0.4,0.3c-0.2,0.1-0.4,0.2-0.6,0.2h-0.5
	c-0.2,0-0.4-0.1-0.5-0.1l-0.8-0.5l-0.9,0.4l-0.7,0.5c-0.2,0.1-0.4,0.2-0.5,0.2h-0.7c-0.3,0-0.5-0.1-0.8-0.3l-0.9-0.9
	c-0.1-0.1-0.2-0.2-0.2-0.4l-0.5-1.4c0-0.1,0-0.2,0-0.2v-1.5l-0.2-1.2l-0.9-1c-0.2-0.2-0.3-0.5-0.2-0.8c0-0.3,0.2-0.5,0.4-0.7l2-1.5
	l0.2-0.8l-0.7-1.3l-4.4-6.3l-0.2,0.1l-0.8,0.7c-0.1,0.1-0.2,0.1-0.3,0.2l-0.9,0.4c-0.3,0.1-0.6,0.1-0.9-0.1l-1.1-0.6
	c-0.2-0.1-0.4-0.4-0.5-0.7l-0.2-0.8c0,0,0-0.1,0-0.1v-0.7l-0.7-1.6l-1.1-1.1l-0.1-0.1l-1-1.4c-0.1-0.1-0.2-0.3-0.2-0.5l-0.1-0.6
	c-0.1,0-0.1,0.1-0.2,0.1l-1.5,0.3c-0.1,0-0.2,0-0.3,0l-2.9-0.2l-0.3-0.1l-2.6-1l0,0l-1.1,0.7c-0.1,0.1-0.3,0.1-0.5,0.2l-0.8,0.1
	c-0.2,0-0.4,0-0.5-0.1l-2-1c-0.3-0.1-0.4-0.4-0.5-0.6l-0.4-1.5c0-0.1,0-0.2,0-0.3l0.2-1.6l-0.2-1.3l-0.8-0.9l-0.9-0.3l-1,0.1
	l-1.1,0.6l-1.9,2.2l-1.1,2.5l-0.1,0.1l-1.4,2.2c-0.1,0.2-0.2,0.3-0.4,0.4l-2.6,1.3c-0.1,0.1-0.3,0.1-0.4,0.1l-6.2,0.1
	c-0.1,0-0.2,0-0.3,0l-4.7-1.3l0.3,1.5l2.6,3.9l3.3,1.5c0.1,0,0.2,0.1,0.2,0.2l2.8,2.4c0.2,0.2,0.3,0.5,0.3,0.8l-0.1,6.1
	c0,0.1,0,0.3-0.1,0.4l-0.9,2.2c0,0.1-0.1,0.2-0.1,0.2l-3.7,4.6l-0.4,1.1l-0.5,2.4c0,0.1,0,0.1,0,0.2l-0.4,1c0,0.1-0.1,0.2-0.2,0.3
	L5,250.3L2.2,255l0.5,0.7l1.5,1.4c0.3,0.3,0.4,0.6,0.3,1l-0.5,1.7l0.3,0.8l0.8,1.2c0.1,0.1,0.1,0.1,0.1,0.2l0.8,2
	c0.1,0.2,0.1,0.3,0.1,0.5l-0.1,1c0,0.1,0,0.2-0.1,0.3L5,267.7v0.5l2.4,1.4c0.1,0.1,0.2,0.2,0.3,0.3l2.3,3.2c0.1,0.1,0.1,0.2,0.1,0.3
	l1,3.6c0,0.1,0,0.3,0,0.4l-0.7,3.7c0,0.2-0.1,0.3-0.2,0.4l-1.7,2.2h0.2l4.9-0.6h0.3l1.6,0.2h0.1l18.4,5.9c0.5,0.1,0.7,0.6,0.7,1.1
	l-0.1,0.8c0.3,0,0.5,0.1,0.7,0.4l0.4,0.4c0.1,0.2,0.2,0.4,0.2,0.6v0.8c0,0.1,0,0.2,0,0.3l-0.4,1.2l-0.2,3.2c0,0,0,0.1,0,0.1
	l-0.3,1.4l0.1,0.9l1,1.4l2.2,1.6l10.2,3.3c0.1,0.1,0.3,0.1,0.4,0.2l3.7,3.5L54.5,311.9z"/>
<path class="st0" d="M296,343h-0.1l-1.4-0.1c-0.1,0-0.2,0-0.3-0.1l-1.6-0.8l-0.1-0.1l-2.8-1.9l-5.1-0.9l-0.2,0l-3.9-1.6
	c-0.1,0-0.2-0.1-0.3-0.2l-3.4-3c-0.1-0.1-0.2-0.2-0.3-0.4l-1.8-4.5v-0.1l-0.8-2.7l-1.1-0.7l-1.8-0.2c-0.1,0-0.1,0-0.2-0.1l-2-0.8
	c-0.1,0-0.1-0.1-0.2-0.1l-0.9-0.7l-0.1-0.1l-0.5-0.6c-0.1-0.1-0.2-0.3-0.3-0.5l-0.2-1c0-0.1,0-0.2,0-0.2v-1.8c0,0,0-0.1,0-0.1
	l0.3-1.6c0-0.1,0-0.1,0-0.2l0.4-1l0.2-0.8v-1.5l-0.8-2.6l-1-0.7l-3.8-0.1c-0.1,0-0.2,0-0.3-0.1l-1.3-0.5c-0.2-0.1-0.3-0.2-0.4-0.3
	l-0.6-0.7c0,0-0.1-0.1-0.1-0.1l-0.5-0.8l-0.9-0.9l-0.8-0.4l-2.1-0.4h-0.2l-1-0.4c-0.3-0.1-0.5-0.4-0.6-0.7c-0.1-0.3,0-0.7,0.3-0.9
	l1.1-1.1V303l-0.6-1.1l-0.7-1.7c0-0.1,0-0.1,0-0.2l-0.6-3.3l-0.4-1.5l-0.6-1.3c-0.1-0.3-0.1-0.5,0-0.8l1-2.5
	c0.1-0.2,0.2-0.4,0.4-0.5l5.7-3.2l1.8-2.4V283c0-0.4,0.2-0.7,0.5-0.9l2.7-1.4l8.5-3.9l5.6-5.5c0.1-0.1,0.2-0.2,0.3-0.2l1.6-0.7
	c0.1,0,0.2-0.1,0.2-0.1l2-0.3h0.2h2.2l3.3-0.6h0.2h2.6c0.1,0,0.2,0,0.3,0.1l2.7,0.9l2.5,0.2h0.1l1.9,0.4c0.1,0,0.2,0.1,0.3,0.1
	l1.7,0.9c0.1,0,0.1,0.1,0.2,0.2l3.8,3.7c0.2,0.2,0.3,0.4,0.3,0.6l0.3,2.5l0.6,0.8l1,0.8l8.2,2.7c0.2,0.1,0.4,0.2,0.5,0.4l0.8,1.1
	c0.1,0.2,0.2,0.4,0.2,0.7l-0.1,1.5c0,0.1,0,0.2-0.1,0.3l-1.2,2.9L314,291l-0.1,0.9v0.5l0.1,0.5l0.3,1.2l0.6,1l0.9,1.2
	c0,0,0.1,0.1,0.1,0.1l0.8,1.5l1.8,1.7l0.9,0.7l0.1,0.1l1.2,1.3c0.1,0.1,0.1,0.1,0.1,0.2l0.8,1.5c0,0.1,0.1,0.1,0.1,0.2l0.5,2
	c0,0,0,0.1,0,0.1l0.2,1.8l0.6,2l0.9,1.2l4.4,4.7c0,0,0.1,0.1,0.1,0.1l5.8,8.1c0,0,0.1,0.1,0.1,0.1l0.6,1.1c0.1,0.2,0.1,0.4,0.1,0.6
	l-0.1,0.5c0,0.1,0,0.1,0,0.2l-0.1,0.3c0,0,0,0.1,0,0.1l-0.2,0.4c0,0.1-0.1,0.2-0.2,0.3l-0.3,0.3c-0.1,0.1-0.3,0.2-0.5,0.3L333,328
	c-0.1,0-0.3,0-0.4,0l-0.8-0.1c-0.2,0-0.3-0.1-0.4-0.2l-3.4-2.5l-0.7-0.2l-0.7,0.1l-3.8,1.7c-0.1,0-0.2,0.1-0.3,0.1l-8.5,1.3
	l-1.4,0.7l-0.2,1.9c0,0,0,0.1,0,0.1l-0.4,1.7l-0.8,2.1c0,0,0,0.1,0,0.1l-3.2,6.4l-0.4,1c-0.1,0.3-0.3,0.5-0.6,0.6
	c-0.3,0.1-0.5,0.1-0.8,0l0,0l-4.5-0.5l-5.5,0.7L296,343z M294.9,340.9l1.1,0.1l5.5-0.7h0.2l4.2,0.4l0.1-0.4l3.2-6.4l0.7-2l0.4-1.5
	l0.3-2.4c0-0.3,0.2-0.6,0.5-0.8l2.1-1c0.1,0,0.2-0.1,0.3-0.1l8.5-1.3l3.8-1.7c0.1,0,0.2-0.1,0.3-0.1l1.1-0.1c0.2,0,0.3,0,0.5,0
	l1,0.4c0.1,0,0.2,0.1,0.2,0.1l3.3,2.5l0.2,0l0.1-0.3l-0.4-0.8l-5.8-8l-4.4-4.7l-0.1-0.1l-1-1.4c-0.1-0.1-0.1-0.2-0.1-0.3l-0.7-2.2
	c0-0.1,0-0.1,0-0.2l-0.2-1.8l-0.4-1.8l-0.6-1.3l-1-1.1l-0.9-0.7l-0.1-0.1l-2-1.8c-0.1-0.1-0.2-0.2-0.2-0.3l-0.8-1.5l-0.9-1.2
	l-0.1-0.1l-0.7-1.2c0-0.1-0.1-0.2-0.1-0.3l-0.3-1.4c0,0,0-0.1,0-0.1l-0.1-0.7v-0.7c0,0,0-0.1,0-0.1l0.1-1c0,0,0-0.1,0-0.1l0.2-1.1
	c0,0,0-0.1,0-0.1l1.1-2.8l0.1-1l-0.4-0.6l-8.1-2.7c-0.1,0-0.2-0.1-0.3-0.2l-1.3-1c-0.1-0.1-0.1-0.1-0.2-0.2l-0.8-1.1
	c-0.1-0.1-0.2-0.3-0.2-0.5L302,277l-3.4-3.3l-1.4-0.8l-1.6-0.4l-2.5-0.2c-0.1,0-0.2,0-0.2,0l-2.7-0.9h-2.3l-3.3,0.6h-0.2H282
	l-1.8,0.3l-1.4,0.6l-5.6,5.5c-0.1,0.1-0.2,0.1-0.3,0.2l-8.6,4l-2.1,1.1v1.4c0,0.2-0.1,0.4-0.2,0.6l-2,2.7c-0.1,0.1-0.2,0.2-0.3,0.3
	l-5.6,3.1l-0.7,1.8l0.5,1l0.1,0.2l0.4,1.6l0.6,3.2l0.6,1.5l0.6,1.3c0.1,0.1,0.1,0.3,0.1,0.5v1.3c0,0.3-0.1,0.5-0.3,0.7l-0.3,0.3
	l1.6,0.3c0.1,0,0.2,0,0.3,0.1l1.1,0.5c0.1,0,0.2,0.1,0.3,0.2l1.1,1.1c0.1,0.1,0.1,0.1,0.1,0.2l0.5,0.8l0.4,0.4l0.9,0.4l3.9,0.1
	c0.2,0,0.4,0.1,0.5,0.2l1.5,1.1c0.2,0.1,0.3,0.3,0.4,0.5l0.9,3.1c0,0.1,0,0.2,0,0.3v1.7c0,0.1,0,0.2,0,0.3l-0.3,1l-0.4,1l-0.2,1.5
	v1.6l0.1,0.6l0.3,0.3l0.8,0.5l1.8,0.7l1.9,0.3c0.1,0,0.3,0.1,0.4,0.2l1.6,1c0.2,0.1,0.4,0.3,0.4,0.6l0.8,3l1.7,4.3l3,2.7l3.7,1.5
	l2.2,0.4l0,0l2.9,0.5c0.1,0,0.3,0.1,0.4,0.2l2.9,2L294.9,340.9z M131.9,327c-0.1,0-0.3,0-0.4-0.1l-1-0.4c-0.1,0-0.2-0.1-0.3-0.2
	l-1.6-1.3l-0.6-0.3h-0.6l-1.7,0.5c-0.1,0-0.2,0-0.3,0h-1c-0.2,0-0.3,0-0.5-0.1l-2.7-1.5l-0.7-0.2l-1.7,0.5c-0.1,0-0.2,0-0.3,0h-1
	c-0.4,0-0.7-0.2-0.9-0.6l-0.6-1.2c-0.2-0.3-0.1-0.7,0.1-1l0.4-0.7c0.1-0.1,0.1-0.2,0.2-0.2l2-1.6l0.1-0.3l-0.5-0.8l-7.1-4.3
	l-1.2-0.3l-1.4,0.2l-9.8,2.7c-0.1,0-0.2,0-0.4,0l-4-0.4c-0.2,0-0.4-0.1-0.5-0.2l-3.1-2.6c-0.2-0.2-0.3-0.4-0.4-0.7l-0.2-3
	c0-0.1,0-0.2,0-0.3l1.1-4.6L91,302l-0.6-0.8l-3.2-2.6c-0.1-0.1-0.2-0.2-0.2-0.3l-2-3.2l-0.9-1l-0.2-0.1h-0.2h-0.2l-2.5,1.5l-2.3,2.6
	l-1.5,3v2.4c0,0.6-0.4,1-1,1l-2.4,0.1c-0.1,0-0.2,0-0.3,0l-1.7-0.4l-0.9,0.2l-1.2,2l-0.4,1.6l-0.1,1.1c0,0.1,0,0.1,0,0.2l-0.3,1
	c0,0.1-0.1,0.2-0.2,0.3l-1,1.5c-0.1,0.1-0.2,0.2-0.4,0.3l-4.2,2.2c-0.1,0-0.1,0.1-0.2,0.1l-2.5,0.7c-0.1,0-0.2,0-0.3,0h-0.7
	c-0.5,0-0.8-0.3-0.9-0.8l-0.1-0.4l-1.7-4.5l-2.2-3.5c-0.1-0.1-0.1-0.2-0.1-0.4l-0.2-1.4c0-0.1,0-0.3,0-0.4l0.3-1.2
	c0-0.1,0.1-0.3,0.2-0.4l1.2-1.6l0.1-0.1l1.1-1l0.9-1.2l0.5-1.5l0.2-2.3v-1.4l-0.3-1.9l-0.1-1.8v-0.1l0.2-2.2c0,0,0-0.1,0-0.1
	l1.1-5.7c0-0.1,0-0.1,0-0.2l1-2.7c0-0.1,0.1-0.1,0.1-0.2l3.7-5.6l1.3-3.3l0.2-3.8l-0.1-1.3l-1.1-6.3l-1.6-4
	c-0.1-0.3-0.1-0.6,0.1-0.9c0.2-0.3,0.4-0.4,0.7-0.5l6.1-0.8l1.9-0.8l4.2-2.6l1.8-1.6l1.6-2.2l2.1-4.3c0,0,0-0.1,0-0.1l0.6-0.9
	c0.1-0.1,0.2-0.2,0.3-0.3l1-0.7c0.1,0,0.1-0.1,0.2-0.1l1.9-0.7l0.6-0.4l1.4-1.9l1.3-2.7l0.8-3v-2.8l-0.4-1.6l-0.4-1l-0.6-0.7
	l-1.2-0.7c-0.4-0.2-0.6-0.6-0.5-1.1l1-5.7l0.1-1l-0.5-1.3l-0.8-1.5c-0.1-0.1-0.1-0.2-0.1-0.4l-0.1-1.2c0-0.4,0.2-0.8,0.6-1l1.4-0.6
	l0.2-0.1l1.5-0.3l0.7-0.2c0.3-0.1,0.7-0.1,1,0.1l0.3,0.3c0.2,0.1,0.3,0.3,0.3,0.5l0.4,1.3c0,0.2,0,0.3,0,0.5l-0.1,0.6
	c0,0.1-0.1,0.2-0.2,0.4l-0.4,0.6l-0.2,0.6l0.1,0.7l0.3,0.3l0.6,0.4l1.3,0.6l3.8,0.6l0.7-0.1l0.9-0.8l1.9-2.6
	c0.1-0.1,0.2-0.2,0.2-0.2l1.3-0.9c0.2-0.1,0.4-0.2,0.6-0.2h2.3c0.1,0,0.2,0,0.3,0.1l12.9,4.8c0.2,0.1,0.3,0.2,0.4,0.3l0.4,0.4
	c0.1,0.1,0.1,0.2,0.2,0.3l0.3,0.6l0.2,0.3l0.3,0.1l2.5-0.3l3.8-1.7h0.1l1.4-0.4c0.1,0,0.2,0,0.3,0l1.3,0.1c0.2,0,0.3,0.1,0.4,0.1
	l1,0.6l0.1,0.1l2.2,1.7c0.2,0.2,0.4,0.4,0.4,0.7c0,0.3,0,0.5-0.2,0.8l-0.8,1c-0.1,0.1-0.1,0.1-0.2,0.2l-2.4,1.6v0.1l4.7,2.2
	c0.1,0.1,0.2,0.1,0.3,0.2l4.9,5.2c0.1,0.1,0.1,0.2,0.2,0.3l0.3,0.6c0.1,0.1,0.1,0.2,0.1,0.4v1c0,0.1,0,0.2,0,0.2l-0.2,1
	c0,0.1,0,0.1-0.1,0.2l-0.2,0.5l0.5,1l0.9,0.5l9.7,0.1l1.6-0.5l6.2-4.3c0.1-0.1,0.2-0.1,0.3-0.1l2.4-0.7c0.2-0.1,0.4-0.1,0.6,0
	l2.1,0.9c0.4,0.2,0.7,0.6,0.6,1l-0.2,3l1.1,0.1l1.7-0.8l1.2-1.3l1.2-1.7c0-0.1,0.1-0.1,0.1-0.1l1.9-1.8c0.1-0.1,0.2-0.2,0.4-0.2
	l1.8-0.6c0.1,0,0.2,0,0.3,0l4-0.1l1.1-0.5l0.4-0.7l-0.1-0.3l-0.6-0.4l-1-0.3c-0.3-0.1-0.6-0.3-0.7-0.7c-0.1-0.3,0-0.7,0.2-0.9
	l4.6-5.3c0.1-0.2,0.3-0.3,0.5-0.3l2.2-0.5c0.1,0,0.2,0,0.4,0l2.4,0.3h0.2l2,0.6l4.2-0.7l1.8-0.7l1.5-1.6l0.4-1.1l0.8-3.3l0.1-0.2
	l0.7-1.5c0.1-0.1,0.1-0.3,0.3-0.4l2.6-2.3l0.3-0.4c0.2-0.2,0.5-0.4,0.8-0.4l1.8,0.1h0.2l4.1,0.8h7.8c0.1,0,0.1,0,0.2,0l5.2,1.1
	l0.3-0.1l0.8-2c0.1-0.2,0.2-0.4,0.4-0.5l1.1-0.6c0.1-0.1,0.2-0.1,0.3-0.1l8.1-1.7h0.2l22.2,1l0.3-0.1l2.5-3.1l0.2-0.6l0.1-1.1
	l-0.1-3.6l-0.1-0.3l-0.2-0.1l-0.1-0.1l-0.8-0.8l-0.1-0.1l-0.7-1c-0.1-0.1-0.1-0.2-0.1-0.2l-0.3-0.8c0-0.1,0-0.1,0-0.2l-0.2-1.2
	c-0.1-0.5,0.2-0.9,0.6-1.1l1.4-0.6l2.2-1.9l0.2-0.1l0.9-0.5l0.1-0.1l1.4-0.6c0.1,0,0.1,0,0.2-0.1h0.2c0.5-0.1,1.1,0.3,1.2,0.8
	c0,0.2,0,0.4-0.1,0.6l-0.2,0.5l-0.2,1.4v0.1l-0.3,1.1c0,0.1-0.1,0.2-0.1,0.3l-0.5,0.7l-0.2,0.5l0.3,1l0.4,0.4l0.4-0.1l2-1
	c0.1-0.1,0.2-0.1,0.3-0.1l2.1-0.3c0.1,0,0.2,0,0.4,0l5.4,1.2l1.4-0.2l3.7-1.4c0.2-0.1,0.4-0.1,0.5-0.1l1.6,0.3
	c0.3,0.1,0.5,0.2,0.7,0.5l0.5,0.8c0,0.1,0.1,0.1,0.1,0.2l1,3l0.5,1l0.6,0.8l2.7,2.2l1.1,0.5h1.7l1.8-0.4l1.3-0.6l0.8-0.7
	c0.4-0.4,1-0.3,1.4,0.1c0,0.1,0.1,0.1,0.1,0.2l2.4,4.2l1.8,1.7l3.4,2.3c0.1,0,0.1,0.1,0.2,0.2l0.9,1c0.1,0.1,0.1,0.1,0.2,0.2
	l0.3,0.7c0.1,0.2,0.1,0.4,0.1,0.6l-0.1,0.7c0,0.1,0,0.1,0,0.2l-0.3,0.9l0.1,0.9l0.4,1.5l1.9,4.7c0,0,0,0.1,0,0.1l0.2,0.9
	c0.1,0.2,0.1,0.4,0,0.6l-0.2,0.6l-0.5,1.1l0,0.1l-0.7,1.1c0,0,0,0.1-0.1,0.1L305,227l-1,1.6l-2,4.4l-0.1,0.1l-0.7,1
	c0,0-0.1,0.1-0.1,0.1l-0.8,0.9l-0.1,0.1l-0.8,0.8l-0.1,0.1l-1,0.6l-0.2,0.1l-1.1,0.4c-0.1,0-0.2,0.1-0.3,0.1l-4.7,0.5l-0.8,0.2
	l-0.4,0.2l-0.4,0.5l-0.6,1.2l-0.9,2.6c0,0.1-0.1,0.1-0.1,0.2l-1,1.6c0,0.1-0.1,0.1-0.1,0.2l-1.2,1.2c-0.1,0.1-0.2,0.1-0.2,0.2
	l-1.2,0.7l-0.1,0.1l-1.9,0.7l-0.2,0.1l-3.2,0.5c-0.1,0-0.1,0-0.2,0l-1.5-0.1c-0.1,0-0.2,0-0.2,0l-1.3-0.4l-0.2-0.1l-2.1-1.1
	l-0.8-0.2l-1,0.1l-3.2,2l-0.3,0l-10.9,3.9c-0.1,0-0.2,0.1-0.4,0.1l-2.9-0.1l-1.1,0.2l-2,1l0.2,2.2c0,0.1,0,0.2,0,0.3l-1.3,5.6
	l-0.2,2v2.5l0.2,1.4l0.4,1.3l0.4,0.7l1.5,1.2l0.1,0.1l0.7,0.8c0.1,0.1,0.2,0.2,0.2,0.3l0.8,2v0.1l0.3,1.4c0,0.1,0,0.1,0,0.2l0.3,5.3
	c0,0.1,0,0.1,0,0.2l-0.1,0.6c-0.1,0.4-0.4,0.8-0.8,0.9l-1.5,0.3l-9.7,5.1c-0.1,0.1-0.3,0.1-0.4,0.1l-6.8,0.3l-4.1,1.4l-4,2.2
	l-3.3,2.6c-0.1,0.1-0.3,0.2-0.5,0.2l-4.2,0.7l-0.8,0.5l-1.9,1.5c-0.1,0.1-0.3,0.2-0.4,0.2l-1.1,0.3c-0.2,0.1-0.4,0.1-0.6,0l-1.8-0.7
	c-0.1,0-0.2-0.1-0.2-0.1l-2.9-2.2l-1.4-0.1l-0.6,0.1h-0.2l-0.7-0.1c-0.1,0-0.1,0-0.2,0H207l-4.8-1l-2.1,0.2l-2.6,0.8l-0.8,0.5
	c-0.1,0-0.2,0.1-0.3,0.1l-0.9,0.2c-0.1,0-0.2,0-0.4,0l-0.9-0.2c-0.1,0-0.2-0.1-0.3-0.1l-0.8-0.5c-0.1-0.1-0.2-0.2-0.3-0.3l-0.5-0.6
	l-0.4-0.4l-0.4-0.2l-1.3-0.3l-0.5,0.1l-0.6,0.4l-0.6,1c0,0.1-0.1,0.1-0.1,0.2l-3.3,3.2c-0.2,0.2-0.5,0.3-0.8,0.3l-3-0.1
	c-0.1,0-0.3,0-0.4-0.1l-2.8-1.5l-3.1-0.7l-6.5,1.1l-6.5,2.1l-1.5,0.9l-6.1,6l-0.7,1.5l-1,4.9c0,0.1,0,0.1-0.1,0.2l-1.8,4.3l-0.1,0.3
	l0.1,1.4c0,0.1,0,0.2,0,0.3l-0.2,0.7c0,0.2-0.1,0.3-0.2,0.4l-0.4,0.5c-0.1,0.1-0.2,0.2-0.3,0.2l-0.9,0.4l-0.2,0.2l-2.1,3.6
	c0,0.1-0.1,0.1-0.1,0.2l-1.4,1.5c-0.2,0.2-0.4,0.3-0.6,0.3l-1.4,0.2c-0.2,0-0.3,0-0.5,0l-1.5-0.5l-3.1-0.3l-1.5,0.2l-3.1,1.1
	c-0.1,0-0.2,0-0.2,0L131.9,327L131.9,327z M131.4,324.7l0.6,0.3h0.6l3.1-1.1h0.2l1.7-0.2h0.2l3.4,0.3c0.1,0,0.1,0,0.2,0l1.4,0.5
	l0.8-0.1l1-1.1l2.1-3.6c0-0.1,0.1-0.2,0.2-0.2l0.4-0.4c0.1-0.1,0.2-0.1,0.3-0.2l0.9-0.4l0.1-0.1l0.1-0.3l-0.1-1.3c0-0.1,0-0.1,0-0.2
	l0.1-0.5c0-0.1,0-0.2,0.1-0.2l1.8-4.3l1-4.9c0-0.1,0-0.1,0.1-0.2l0.8-1.8c0-0.1,0.1-0.2,0.2-0.3l6.4-6.3c0.1-0.1,0.1-0.1,0.2-0.1
	l1.7-1l0.2-0.1l6.7-2.2h0.1l6.8-1.1c0.1,0,0.3,0,0.4,0l3.5,0.8c0.1,0,0.2,0,0.2,0.1l2.8,1.4l2.3,0.1l2.9-2.8l0.7-1
	c0.1-0.1,0.1-0.2,0.2-0.2l0.9-0.7c0.1-0.1,0.2-0.1,0.4-0.2l1-0.2c0.2,0,0.3,0,0.5,0l1.7,0.4c0.1,0,0.2,0.1,0.3,0.1l0.6,0.4
	c0.1,0,0.1,0.1,0.2,0.1l0.6,0.5c0,0,0.1,0.1,0.1,0.1l0.4,0.5l0.5,0.3l0.5,0.1l0.6-0.1l0.8-0.4c0,0,0.1-0.1,0.2-0.1h0.1l0,0l2.8-0.8
	h0.2l2.3-0.2c0.1,0,0.2,0,0.3,0l4.9,1c0.1,0,0.1,0,0.2,0l0,0h0.5l0.6-0.1h0.2l1.9,0.2c0.2,0,0.3,0.1,0.5,0.2l3,2.2l1.4,0.5l0.6-0.1
	l1.7-1.4l0.1-0.1l1.1-0.7c0.1-0.1,0.2-0.1,0.4-0.1l4.1-0.7l3.1-2.6c0,0,0.1-0.1,0.1-0.1l4.1-2.2l0.1-0.1l4.3-1.5c0.1,0,0.2,0,0.3,0
	l6.7-0.3l9.6-5c0.1,0,0.2-0.1,0.3-0.1l0.9-0.2l-0.3-5.1l-0.3-1.3l-0.7-1.7l-0.6-0.6l-1.6-1.3c-0.1-0.1-0.2-0.1-0.2-0.2l-0.6-0.9
	c0-0.1-0.1-0.2-0.1-0.2l-0.5-1.5c0-0.1,0-0.1,0-0.2l-0.2-1.6c0,0,0-0.1,0-0.1v-2.6c0,0,0-0.1,0-0.1l0.2-2.1c0,0,0-0.1,0-0.1l1.3-5.5
	l-0.2-2.7c0-0.4,0.2-0.8,0.5-1l2.7-1.4l0.2-0.1l1.4-0.3c0.1,0,0.2,0,0.3,0l2.8,0.1l10.6-3.8l3.3-2c0.1-0.1,0.2-0.2,0.4-0.2l1.4-0.2
	c0.1,0,0.2,0,0.3,0l1.1,0.2c0.1,0,0.2,0.1,0.3,0.1l2.1,1.2l1.1,0.3l1.2,0.1l3-0.4l1.7-0.6l1-0.6l1-1l0.8-1.4l0.9-2.5
	c0-0.1,0-0.1,0.1-0.2l0.7-1.3c0,0,0-0.1,0.1-0.1l0.6-0.7c0.1-0.1,0.2-0.2,0.4-0.3l0.7-0.4l0.2-0.1l1-0.3h0.2l4.6-0.5l0.9-0.4
	l0.9-0.6l0.7-0.6l0.7-0.8l0.6-0.9l2-4.4c0,0,0-0.1,0-0.1l1-1.7l0.1-0.1l1.9-2.4l0.6-1l0.5-1.2l-0.1-0.5l-1.9-4.7c0,0,0-0.1,0-0.1
	l-0.4-1.7c0,0,0-0.1,0-0.1l-0.1-1.2c0-0.1,0-0.3,0.1-0.4l0.4-1v-0.3l-0.1-0.3l-0.7-0.8l-3.3-2.3l-0.1-0.1l-2-1.8
	c-0.1-0.1-0.1-0.1-0.2-0.2l-1.9-3.3l0,0c-0.1,0.1-0.2,0.1-0.3,0.2l-1.5,0.7c-0.1,0-0.1,0.1-0.2,0.1l-2,0.4c-0.1,0-0.1,0-0.2,0h-2
	c-0.1,0-0.3,0-0.4-0.1l-1.4-0.7l-0.2-0.1l-2.9-2.3c-0.1,0-0.1-0.1-0.1-0.1l-0.8-0.9c-0.1-0.1-0.1-0.1-0.1-0.2l-0.5-1.2
	c0,0,0-0.1,0-0.1l-1-3l-0.2-0.3l-0.9-0.2l-3.5,1.4c-0.1,0-0.1,0-0.2,0l-1.6,0.3c-0.1,0-0.2,0-0.4,0l-5.5-1.2l-1.8,0.3l-2,1
	c-0.1,0.1-0.2,0.1-0.3,0.1l-1,0.2c-0.3,0.1-0.6,0-0.9-0.2l-1-0.9c-0.1-0.1-0.2-0.3-0.3-0.4l-0.5-1.6c-0.1-0.2-0.1-0.4,0-0.6l0.3-1
	c0-0.1,0.1-0.2,0.1-0.3l0.5-0.7l0.3-1.1l-0.4,0.3l-2.3,1.9c-0.1,0.1-0.2,0.1-0.3,0.2l-0.8,0.3l0,0.3l0.2,0.6l0.6,0.8l0.7,0.7
	l0.4,0.3c0.2,0.1,0.3,0.3,0.4,0.5l0.3,0.8c0,0.1,0,0.2,0,0.3l0.2,3.9v0.1l-0.1,1.4c0,0.1,0,0.2-0.1,0.3l-0.4,0.9
	c0,0.1-0.1,0.2-0.1,0.3l-2.8,3.6c-0.1,0.2-0.3,0.3-0.6,0.4l-0.8,0.2h-0.2l-22.2-1l-7.9,1.6l-0.7,0.4l-0.9,2.1
	c-0.1,0.3-0.3,0.5-0.6,0.6l-1,0.3c-0.2,0.1-0.4,0.1-0.5,0l-5.4-1.1h-7.8c-0.1,0-0.1,0-0.2,0l-4.1-0.8h-1.2l0,0
	c0,0.1-0.1,0.1-0.1,0.1l-2.5,2.2l-0.5,1.2l-0.7,3.2c0,0,0,0.1,0,0.1l-0.5,1.3c0,0.1-0.1,0.2-0.2,0.3l-1.8,2
	c-0.1,0.1-0.2,0.2-0.4,0.3l-2.1,0.8c-0.1,0-0.1,0.1-0.2,0.1l-4.6,0.8c-0.2,0-0.3,0-0.5,0l-2.1-0.7l-2.1-0.3l-1.7,0.4l-3.4,3.9l1,0.7
	c0.2,0.1,0.3,0.3,0.4,0.5l0.4,1.1c0.1,0.3,0.1,0.6-0.1,0.8l-0.8,1.4c-0.1,0.2-0.3,0.3-0.5,0.4l-1.6,0.7c-0.1,0.1-0.2,0.1-0.4,0.1
	l-4.1,0.1l-1.5,0.5l-1.6,1.5l-1.2,1.7l-0.1,0.1l-1.4,1.5c-0.1,0.1-0.2,0.2-0.3,0.2l-2.1,1c-0.2,0.1-0.3,0.1-0.5,0.1L165,237
	c-0.5-0.1-0.9-0.5-0.9-1l0.2-3.2l-1.1-0.4l-1.9,0.5l-6.2,4.3c-0.1,0.1-0.2,0.1-0.3,0.1l-1.9,0.6c-0.1,0-0.2,0-0.3,0l-10.1-0.1
	c-0.2,0-0.3-0.1-0.5-0.1l-1.4-0.8c-0.2-0.1-0.3-0.2-0.4-0.4l-1-1.9c-0.2-0.3-0.2-0.7,0-0.9c0.1-0.2,0.2-0.3,0.4-0.4V233l0.2-0.8
	v-0.6l-0.1-0.3l-4.6-5l-4.8-2.2c-0.2-0.1-0.3-0.2-0.4-0.4l-0.7-1.1c-0.3-0.5-0.1-1,0.3-1.3l3.1-2.1l-1.3-1l-0.8-0.4l-0.9-0.1
	l-1.1,0.3l-3.8,1.8c-0.1,0-0.2,0.1-0.3,0.1l-2.9,0.4c-0.1,0-0.3,0-0.4,0l-0.8-0.2c-0.2-0.1-0.4-0.2-0.5-0.4l-0.5-0.7
	c0-0.1-0.1-0.1-0.1-0.2l-0.3-0.6l-0.1-0.1l-12.4-4.7h-1.8l-0.9,0.7l-1.9,2.6c-0.1,0.1-0.1,0.1-0.2,0.2l-1.2,1
	c-0.1,0.1-0.3,0.2-0.5,0.2l-1.1,0.2c-0.1,0-0.2,0-0.3,0l-4.1-0.6c-0.1,0-0.2,0-0.3-0.1l-1.5-0.7c-0.1,0-0.1-0.1-0.2-0.1l-0.8-0.6
	c-0.1-0.1-0.2-0.1-0.2-0.2l-0.5-0.7c-0.1-0.1-0.2-0.3-0.2-0.5l-0.2-1.2c0-0.2,0-0.3,0.1-0.5l0.4-0.9c0-0.1,0.1-0.1,0.1-0.2l0.4-0.6
	l-0.1-0.4h-0.2l-1.5,0.3l-0.7,0.3v0.3l0.8,1.4c0,0,0,0.1,0,0.1l0.6,1.6c0.1,0.1,0.1,0.3,0.1,0.5l-0.1,1.3l-0.9,5.1l0.7,0.4
	c0.1,0.1,0.2,0.1,0.3,0.2l0.8,0.9c0.1,0.1,0.1,0.2,0.2,0.3l0.5,1.3c0,0.1,0,0.1,0,0.2l0.4,1.8c0,0.1,0,0.1,0,0.2v3.1
	c0,0.1,0,0.2,0,0.3l-0.9,3.2c0,0.1,0,0.1-0.1,0.2l-1.4,2.9c0,0.1-0.1,0.1-0.1,0.2l-1.6,2.1c-0.1,0.1-0.2,0.2-0.2,0.2l-0.8,0.6
	c-0.1,0.1-0.1,0.1-0.2,0.1l-1.9,0.7l-0.7,0.5l-0.4,0.7l-2.1,4.3c0,0.1,0,0.1-0.1,0.1l-1.7,2.4c0,0.1-0.1,0.1-0.1,0.1l-1.9,1.7
	c0,0-0.1,0.1-0.2,0.1l-4.3,2.7c-0.1,0-0.1,0.1-0.2,0.1l-2.1,0.8c-0.1,0-0.2,0.1-0.2,0.1l-5,0.6l1.4,2.9c0,0.1,0,0.1,0.1,0.2l1.1,6.4
	c0,0,0,0.1,0,0.1l0.1,1.4v0.1l-0.2,4c0,0.1,0,0.2-0.1,0.3l-1.4,3.5c0,0.1-0.1,0.1-0.1,0.2l-3.7,5.6l-0.9,2.5l-1.1,5.5l-0.2,2.1
	l0.1,1.6L61,293c0,0,0,0.1,0,0.1v1.5v0.1l-0.3,2.5c0,0.1,0,0.2,0,0.2l-0.6,1.8c0,0.1-0.1,0.2-0.1,0.3l-1.1,1.5l-0.1,0.1l-1.1,1
	l-1.1,1.3l-0.2,0.8l0.2,1l2.1,3.5l0.1,0.2l1.7,4.4l2-0.6l3.9-2l0.7-1.1l0.2-0.8l0.1-1.1c0-0.1,0-0.1,0-0.2l0.5-1.8
	c0-0.1,0.1-0.2,0.1-0.3l1.5-2.5c0.1-0.2,0.4-0.4,0.7-0.5l1.6-0.3c0.1,0,0.3,0,0.4,0l1.7,0.5l1.3-0.1v-1.7c0-0.2,0-0.3,0.1-0.5
	l1.8-3.3c0-0.1,0.1-0.1,0.1-0.2l2.4-2.8c0.1-0.1,0.2-0.2,0.3-0.2l2.8-1.6c0.1-0.1,0.2-0.1,0.3-0.1l0.5-0.1c0.1,0,0.3,0,0.4,0
	l0.5,0.1c0.1,0,0.2,0.1,0.3,0.1l0.5,0.3c0.1,0.1,0.3,0.2,0.3,0.3l0.9,1c0,0,0.1,0.1,0.1,0.2l1.9,3.1l3.2,2.5l0.2,0.1l0.9,1
	c0.1,0.1,0.2,0.3,0.2,0.4l0.5,2.4c0,0.2,0,0.3,0,0.5l-1.2,4.7l0.2,2.4l2.6,2.1l3.5,0.4l9.7-2.7h0.2l1.7-0.2c0.1,0,0.2,0,0.4,0
	l1.5,0.4c0.1,0,0.2,0.1,0.3,0.1l7.4,4.5c0.1,0.1,0.2,0.2,0.3,0.3l0.9,1.4c0.2,0.3,0.2,0.7,0.1,1l-0.5,1c-0.1,0.1-0.2,0.2-0.3,0.3
	l-2.1,1.8l0.1,0.2h0.2l1.9-0.6c0.2-0.1,0.4-0.1,0.6,0l1.1,0.4c0.1,0,0.1,0,0.2,0.1l2.6,1.5h0.6l1.7-0.5c0.1,0,0.2,0,0.3,0h1
	c0.2,0,0.3,0,0.4,0.1l0.9,0.5l0.2,0.1L131.4,324.7z"/>
<path class="st0" d="M414.4,300L414.4,300c-0.3,0-0.6-0.1-0.8-0.4l-2.8-3.6l-8.2-6.3l-3.3-1.7l-2.3-0.7l-4.2-0.3h-0.1l-9.7-2.1
	l-2-0.1h-0.2l-8.9-2.5l-3.7-1.1l-1.5,0.1l-1.1,0.3l-2.2,2.2c0,0,0,0.1-0.1,0.1l-2.2,1.8l-0.2,0.1l-5.1,2.5c-0.1,0-0.2,0.1-0.2,0.1
	l-3.8,0.8h-0.1l-7.3,0.4h-0.2l-2.9-0.3c-0.1,0-0.1,0-0.2,0l-1.8-0.5c-0.1,0-0.2,0-0.2-0.1l-1.6-0.9l-7.7-5l-4.5-1.5l-3-0.3h-0.1
	l-6-1.5l-0.2-0.1l-4.4-2.2l-0.1,0l-3.8-2.4l-1-0.4h-0.4l-0.1,0.2l-0.1,0.4v0.1l-0.1,0.4c0,0.1-0.1,0.2-0.1,0.3l-0.3,0.5l-0.1,0.1
	l-0.4,0.3l-0.2,0.1l-1.3,0.8c-0.4,0.2-0.9,0.2-1.2-0.1l-3.7-3.6l-1.4-0.8l-1.6-0.4l-2.5-0.2c-0.1,0-0.2,0-0.2,0l-2.7-0.9h-2.3
	l-3.3,0.6h-0.2h-2.2l-1.8,0.3l-1.4,0.6l-5.6,5.5c-0.1,0.1-0.2,0.1-0.3,0.2l-8.6,4l-2.6,1.4c-0.3,0.2-0.7,0.2-1,0
	c-0.3-0.2-0.5-0.5-0.5-0.9V282l-1.4-0.5l-4.3,0.9c-0.3,0.1-0.6,0-0.9-0.3c-0.2-0.2-0.3-0.5-0.3-0.9l0.1-0.6l-0.3-5.2l-0.3-1.3
	l-0.7-1.7l-0.6-0.6l-1.6-1.3c-0.1-0.1-0.2-0.1-0.2-0.2l-0.6-0.9c0-0.1-0.1-0.2-0.1-0.2l-0.5-1.5c0-0.1,0-0.1,0-0.2l-0.2-1.6
	c0,0,0-0.1,0-0.1v-2.6c0,0,0-0.1,0-0.1l0.2-2.1c0,0,0-0.1,0-0.1l1.3-5.5l-0.2-2.7c0-0.4,0.2-0.8,0.5-1l2.7-1.4l0.2-0.1l1.4-0.3
	c0.1,0,0.2,0,0.3,0l2.8,0.1l10.6-3.8l3.3-2c0.1-0.1,0.2-0.2,0.3-0.3l1.4-0.2c0.1,0,0.2,0,0.3,0l1.1,0.2c0.1,0,0.2,0.1,0.3,0.1
	l2.1,1.2l1.1,0.3l1.2,0.1l3-0.4l1.7-0.6l1-0.6l1-1l0.8-1.4l0.9-2.5c0-0.1,0-0.1,0.1-0.2l0.7-1.3c0,0,0-0.1,0.1-0.1l0.6-0.7
	c0.1-0.1,0.2-0.2,0.4-0.3l0.7-0.4l0.2-0.1l1-0.3h0.2l4.6-0.5l0.9-0.4l0.9-0.6l0.7-0.6l0.7-0.8l0.6-0.9l2-4.4c0,0,0-0.1,0-0.1l1-1.7
	l0.1-0.1l1.9-2.4l0.6-1l0.5-1.2l-0.1-0.5l-1.9-4.7c0,0,0-0.1,0-0.1l-0.4-1.7c0,0,0-0.1,0-0.1l-0.1-1.2c0-0.1,0-0.3,0.1-0.4l0.4-1
	v-0.3l-0.1-0.3l-0.7-0.8l-3.3-2.3l-0.1-0.1l-2-1.8c-0.1-0.1-0.1-0.1-0.2-0.2l-2.5-4.4c-0.2-0.4-0.2-0.9,0.2-1.2l3.4-3
	c0.1-0.1,0.1-0.1,0.2-0.1l1.8-0.9l0.2-0.1l3.5-0.8c0.1,0,0.2,0,0.2,0h3.5c0.1,0,0.2,0,0.2,0l5.3,1.4l1.5-0.2c0.5-0.1,1,0.3,1.1,0.9
	c0,0.2,0,0.3-0.1,0.5l-0.8,2l1.1,1.3l2.4,1.6l0.1,0.1l1.9,1.9c0.2,0.2,0.3,0.6,0.3,0.9c0,0.3-0.3,0.6-0.5,0.7l-2.3,1l-1,2.7l0.4,2.9
	l1.9,1.5l1.2,0.2h0.2l0.9,0.3c0.1,0,0.2,0.1,0.3,0.2l0.8,0.7c0,0,0.1,0.1,0.1,0.1l4.4,4.8l4.6,3.5l0.6,0.2l0.4-0.1l0.7-0.4
	c0.1-0.1,0.3-0.1,0.5-0.1h1c0.2,0,0.3,0,0.5,0.1l0.9,0.5c0.1,0,0.2,0.1,0.2,0.2l0.5,0.5l0.2,0.1h0.4l0.4-0.3l2.5-2.9V221l-0.2-0.7
	l-0.3-0.7c0,0,0-0.1,0-0.1l-0.2-0.8c0-0.1,0-0.1,0-0.2l-0.1-0.9V215c0-0.2,0.1-0.4,0.2-0.5l0.2-0.3l0.7-1.8c0-0.1,0-0.1,0-0.1
	l-0.1-3.3c0-0.3,0.1-0.6,0.4-0.8c0.1-0.1,0.3-0.1,0.4-0.2l1-1.4v-0.1c0-0.1,0-0.2,0.1-0.2l1.1-2.9c0-0.1,0.1-0.2,0.1-0.2l0.1-0.1
	l0.2-1.5V200l-0.2-1.6l-0.7-1.9l-1.8-3.1l-1-1.3l-0.9-0.7l-1-0.2l-2.2,1c-0.1,0-0.2,0.1-0.2,0.1l-1.5,0.2c-0.1,0-0.2,0-0.4,0l-5.4-1
	c-0.2,0-0.4-0.1-0.5-0.3l-1.6-1.6c-0.3-0.3-0.4-0.8-0.1-1.2l1.8-2.8l0.1-0.1l0.5-0.8l0.1-0.7v-0.9c0-0.1,0-0.1,0-0.2l0.2-0.9
	c0-0.1,0-0.2,0.1-0.2l0.5-1.1l0-0.1l5.9-9.4l0,0l-2.1-3.1c0-0.1-0.1-0.1-0.1-0.2l-3.2-7.5l-1.4-1.3l-0.7-0.4
	c-0.1-0.1-0.2-0.1-0.2-0.2l-1.9-1.9l-2.2-1.3c-0.1-0.1-0.2-0.2-0.3-0.3l-0.8-1.1c0-0.1-0.1-0.1-0.1-0.2l-0.5-1.5c0-0.1,0-0.1,0-0.2
	v-0.2c-0.1-0.5,0.2-0.9,0.6-1.1l1.9-0.8h0.1l4.4-1.2l0.8-0.5l0.1-0.4l0.7-2.1c0.1-0.2,0.2-0.3,0.3-0.5l1.2-0.9
	c0.1-0.1,0.2-0.1,0.3-0.2l1.8-0.6c0.1,0,0.2,0,0.2,0l4.1-0.2h0.2l2.5,0.3c0.1,0,0.3,0.1,0.4,0.1l2.4,1.4c0.1,0,0.1,0.1,0.2,0.2
	l2.8,2.9l0.7,0.4l3.7,1.3l3.5,0.4l5.3-0.6l6.5-3c0.3-0.1,0.7-0.1,1,0.1l2.9,2.1l0.9,0.5c0,0,0.1,0,0.1,0.1l0.9,0.6
	c0.1,0.1,0.1,0.1,0.2,0.2l0.8,1c0.2,0.2,0.2,0.5,0.2,0.7l-0.1,1.1c0,0.2-0.1,0.4-0.2,0.6l-0.9,1.1c-0.1,0.2-0.3,0.3-0.5,0.3
	l-1.4,0.4c-0.1,0-0.2,0-0.4,0l-1.4-0.1h-0.2l-2.4-0.7H367l-0.1,0.1l-0.2,0.4l-0.3,1.1l-0.2,1.7l-0.2,3.9l0.1,1.9l0.3,1.8l1.2,5.2
	l0.3,1l0.7,0.9l1.2,0.9l17.3,3.9c0.2,0,0.3,0.1,0.5,0.2l2.3,2.1c0.4,0.4,0.4,0.9,0.1,1.4l-1.2,1.5c-0.1,0.2-0.4,0.3-0.6,0.4
	l-1.6,0.3h-0.1l-3.5,0.2l-0.2,0.1l0.3,0.7l0.2,0.3l0.4,0.3l0.8,0.5l1.8,0.8l2.3,0.3c0.3,0,0.6,0.2,0.8,0.5l0.7,1.4l0,0.1l0.5,1.2
	c0.1,0.2,0.1,0.5,0,0.7l-3.4,10.5l1.4,2.4c0,0.1,0.1,0.2,0.1,0.3l0.3,1.2c0,0.1,0,0.3,0,0.4l-0.3,1.5c0,0.1,0,0.2-0.1,0.2l-0.5,1.1
	l-1.5,2.5l-0.5,1.6l0.2,1.8l0.6,1.6l3.2,3.3l5.5,3.5c0.4,0.3,0.6,0.7,0.4,1.2l-0.8,2.1l-0.6,2.5l-0.1,0.9l0.9,4.9l2.8,9.5l2.4,5
	l2.9,2.7l1.5,1.1l1,0.3l0.9-0.3l1.2-1c0.1-0.1,0.1-0.1,0.2-0.1l1.6-0.7c0.1,0,0.2-0.1,0.3-0.1l2.5-0.3l1.2-0.8
	c0.1,0,0.2-0.1,0.2-0.1l1.5-0.5c0.3-0.1,0.6,0,0.9,0.1l1.3,0.8c0.2,0.1,0.3,0.2,0.4,0.4l1.6,3.2l2.1,3.3c0,0.1,0.1,0.1,0.1,0.2
	l0.5,1.3c0,0,0,0.1,0,0.1l0.3,1.2l0.4,1.3l0.7,1.2l3.1,4l2.8,2c0.1,0.1,0.2,0.2,0.3,0.3l0.7,1.2c0.1,0.2,0.2,0.4,0.1,0.7l-0.2,1.5
	c0,0.2-0.1,0.3-0.2,0.5l-1.9,2.4l-0.1,0.1l-2.8,2.7l-0.6,1l-0.1,1.5l0.2,2.8c0,0.1,0,0.2,0,0.4l-0.5,1.6l-1.1,2.8c0,0,0,0.1,0,0.1
	l-4.2,7.8l-0.1,0.1l-3.7,4.8C415,299.9,414.7,300,414.4,300z M393.2,284.9l4.2,0.3h0.2l2.5,0.8l0.2,0.1l3.4,1.8l0.1,0.1l8.3,6.5
	c0.1,0.1,0.1,0.1,0.2,0.2l2,2.7l2.9-3.7l4.1-7.6l1.1-2.7l0.4-1.4l-0.2-2.7v-0.2l0.2-1.8c0-0.2,0.1-0.3,0.1-0.4l0.8-1.3
	c0-0.1,0.1-0.1,0.1-0.2l2.8-2.7l1.7-2.1l0.1-0.8l-0.5-0.8l-2.7-2c-0.1-0.1-0.2-0.1-0.2-0.2l-3.2-4.1c0,0-0.1-0.1-0.1-0.1l-0.8-1.3
	c0-0.1-0.1-0.1-0.1-0.2l-0.5-1.5l-0.3-1.2l-0.4-1.2l-2-3.1c0,0,0-0.1,0-0.1l-1.5-3l-0.6-0.4l-0.9,0.3l-1.3,0.9
	c-0.1,0.1-0.3,0.1-0.4,0.2l-2.6,0.3l-1.4,0.6l-1.2,1c-0.1,0.1-0.2,0.1-0.3,0.2l-1.3,0.5c-0.2,0.1-0.4,0.1-0.6,0l-1.5-0.4
	c-0.1,0-0.2-0.1-0.3-0.1l-1.7-1.2l-0.1-0.1l-3.1-2.8c-0.1-0.1-0.2-0.2-0.2-0.3l-2.5-5.3l-0.1-0.1l-2.9-9.6c0,0,0-0.1,0-0.1l-0.9-5.1
	c0-0.1,0-0.2,0-0.3l0.1-1.1v-0.1l0.7-2.6l0.5-1.5l-4.9-3.1c-0.1,0-0.1-0.1-0.2-0.1l-3.4-3.5c-0.1-0.1-0.2-0.2-0.2-0.3l-0.8-1.9
	c0-0.1,0-0.2-0.1-0.3l-0.2-2.2c0-0.1,0-0.2,0-0.4l0.5-1.9c0-0.1,0.1-0.2,0.1-0.2l1.5-2.5l0.5-0.9l0.2-1.1l-0.2-0.9l-1.5-2.7
	c-0.1-0.2-0.2-0.5-0.1-0.8l3.4-10.6l-0.3-0.8l-0.5-0.8l-1.9-0.2c-0.1,0-0.2,0-0.3-0.1l-2-0.9l-0.1-0.1l-0.9-0.6l-0.1-0.1l-0.5-0.5
	c-0.1-0.1-0.1-0.1-0.2-0.2l-0.3-0.5c0,0-0.1-0.1-0.1-0.1l-0.5-1.1c-0.1-0.2-0.1-0.4,0-0.7l0.2-0.7c0.1-0.2,0.2-0.4,0.3-0.5l0.7-0.5
	c0.2-0.1,0.4-0.2,0.6-0.2l3.7-0.2l1.1-0.2l0.4-0.5l-1.4-1.3l-17.3-3.8c-0.1,0-0.2-0.1-0.4-0.1l-1.5-1c-0.1-0.1-0.2-0.1-0.2-0.2
	l-0.9-1.2c-0.1-0.1-0.1-0.2-0.1-0.3l-0.4-1.3l-1.3-5.4l-0.3-2l-0.1-2v-0.1l0.2-4.1l0.2-1.8c0,0,0-0.1,0-0.1l0.3-1.2
	c0-0.1,0-0.1,0.1-0.2l0.4-0.7c0.1-0.1,0.2-0.2,0.3-0.3l0.5-0.4c0.1-0.1,0.3-0.2,0.5-0.2l0.7-0.1c0.1,0,0.3,0,0.4,0l2.5,0.7l1.1,0.1
	l0.9-0.2l0.5-0.6V152l-0.5-0.6l-0.7-0.5l-0.9-0.5c0,0-0.1,0-0.1-0.1l-2.5-1.8l-6.1,2.8c-0.1,0-0.2,0.1-0.3,0.1l-5.6,0.7h-0.2
	l-3.7-0.4h-0.2l-3.8-1.4l-0.1-0.1l-0.5-0.2c0,0-0.1,0-0.1-0.1l-0.5-0.3l-0.2-0.1l-2.7-2.9l-2.1-1.3l-2.1-0.3l-3.9,0.2l-1.5,0.5
	l-0.8,0.6l-0.6,1.9l-0.3,0.7c-0.1,0.2-0.2,0.3-0.4,0.5l-1.2,0.7c-0.1,0.1-0.2,0.1-0.3,0.1l-4.5,1.3l-1,0.4l0.2,0.7l0.6,0.9l2.1,1.3
	c0.1,0,0.1,0.1,0.2,0.2l1.9,1.9l0.6,0.4c0.1,0,0.2,0.1,0.2,0.2l1.6,1.6c0.1,0.1,0.2,0.2,0.2,0.3l3.3,7.6l2,3l0.4,0.4
	c0.3,0.3,0.4,0.8,0.1,1.2l-6.2,10l-0.5,1l-0.1,0.7v0.8c0,0,0,0.1,0,0.1l-0.2,1c0,0.1-0.1,0.2-0.1,0.3l-0.6,1c0,0-0.1,0.1-0.1,0.1
	l-1.3,2l0.8,0.8l4.9,0.9l1.2-0.2l2.3-1c0.2-0.1,0.4-0.1,0.6-0.1l1.5,0.2c0.2,0,0.3,0.1,0.4,0.2l1.2,0.9c0.1,0,0.1,0.1,0.2,0.2
	l1.2,1.4l0.1,0.1l1.9,3.2c0,0.1,0.1,0.1,0.1,0.2l0.8,2.1c0,0.1,0,0.1,0,0.2l0.3,1.9c0,0.1,0,0.1,0,0.2l-0.1,1.8l-0.2,1.8
	c0,0.2-0.1,0.3-0.2,0.5l-0.1,0.2l-1.1,2.6v0.3c0,0.2-0.1,0.3-0.2,0.5l-1.6,2.1l0,0l0,1.8c0.3,0.3,0.3,0.8,0.1,1.1l-0.1,0.2l-0.9,2.3
	c0,0.1-0.1,0.1-0.1,0.2l-0.1,0.1v2.2l0.1,0.7l0.2,0.6l0.3,0.7c0,0,0,0.1,0,0.1l0.2,0.9c0,0.1,0,0.2,0,0.2v1.2c0,0.2-0.1,0.5-0.2,0.7
	l-2.8,3.3c0,0-0.1,0.1-0.1,0.1l-0.7,0.6c-0.2,0.1-0.4,0.2-0.6,0.2h-1c-0.2,0-0.4,0-0.6-0.1l-0.6-0.4c-0.1,0-0.1-0.1-0.2-0.2
	l-0.4-0.5l-0.5-0.3h-0.5l-0.6,0.3l-0.1,0.1l-0.8,0.3c-0.2,0.1-0.5,0.1-0.7,0l-1.1-0.4c-0.1,0-0.2-0.1-0.2-0.1l-4.8-3.6
	c-0.1,0-0.1-0.1-0.1-0.1l-4.4-4.8l-0.6-0.5l-0.7-0.2l-1.4-0.2c-0.2,0-0.3-0.1-0.5-0.2l-2.4-1.9c-0.2-0.2-0.3-0.4-0.4-0.6l-0.5-3.6
	c0-0.2,0-0.3,0-0.5l1.2-3.3c0.1-0.2,0.3-0.4,0.5-0.6l1.4-0.7l-0.8-0.8l-2.4-1.6c-0.1-0.1-0.2-0.1-0.2-0.2l-1.5-1.9
	c-0.2-0.3-0.3-0.7-0.1-1l0.4-0.9c-0.1,0-0.2,0-0.4,0l-5.3-1.4H305l-3.2,0.8l-1.6,0.8l-2.7,2.4l2,3.5l1.8,1.7l3.4,2.3
	c0.1,0,0.1,0.1,0.2,0.2l0.9,1c0.1,0.1,0.1,0.1,0.2,0.2l0.3,0.7c0.1,0.2,0.1,0.4,0.1,0.6l-0.1,0.7c0,0.1,0,0.1,0,0.2l-0.3,0.9
	l0.1,0.9l0.4,1.5l1.9,4.7c0,0,0,0.1,0,0.1l0.2,0.9c0.1,0.2,0.1,0.4,0,0.6l-0.2,0.6l-0.5,1.1l0,0.1l-0.7,1.1c0,0,0,0.1-0.1,0.1
	L305,227l-1,1.6l-2,4.4l-0.1,0.1l-0.7,1c0,0-0.1,0.1-0.1,0.1l-0.8,0.9l-0.1,0.1l-0.8,0.8l-0.1,0.1l-1,0.6l-0.2,0.1l-1.1,0.4
	c-0.1,0-0.2,0.1-0.3,0.1l-4.7,0.5l-0.8,0.2l-0.4,0.2l-0.4,0.5l-0.6,1.2l-0.9,2.6c0,0.1-0.1,0.1-0.1,0.2l-1,1.6
	c0,0.1-0.1,0.1-0.1,0.2l-1.2,1.2c-0.1,0.1-0.2,0.1-0.2,0.2l-1.2,0.7l-0.1,0.1l-1.9,0.7l-0.2,0.1l-3.2,0.5c-0.1,0-0.1,0-0.2,0
	l-1.5-0.1c-0.1,0-0.2,0-0.2,0l-1.3-0.4l-0.2-0.1l-2.1-1.1l-0.8-0.2l-1,0.1l-3.2,2l-0.3,0l-10.9,3.9c-0.1,0-0.2,0.1-0.4,0.1l-2.9-0.1
	l-1.1,0.2l-2,1l0.2,2.2c0,0.1,0,0.2,0,0.3l-1.3,5.6l-0.2,2v2.5l0.2,1.4l0.4,1.3l0.4,0.7l1.5,1.2l0.1,0.1l0.7,0.8
	c0.1,0.1,0.2,0.2,0.2,0.3l0.8,2v0.1l0.3,1.4c0,0.1,0,0.1,0,0.2l0.2,4.9l3.3-0.7c0.2-0.1,0.4-0.1,0.5,0l2.3,0.8
	c0.4,0.1,0.7,0.6,0.7,1v0.1l1.2-0.6l8.5-3.9l5.6-5.5c0.1-0.1,0.2-0.2,0.3-0.2l1.6-0.7c0.1,0,0.2-0.1,0.2-0.1l2-0.3h0.2h2.2l3.3-0.6
	h0.2h2.6c0.1,0,0.2,0,0.3,0.1l2.7,0.9l2.5,0.2h0.1l1.9,0.4c0.1,0,0.2,0.1,0.3,0.1l1.7,0.9c0.1,0,0.1,0.1,0.2,0.2l3.2,3.1l0.5-0.3
	l0.2-0.2l0.2-0.3l0-0.2l0.1-0.4c0-0.1,0-0.1,0-0.2l0.1-0.4c0-0.1,0.1-0.2,0.1-0.3l0.3-0.4c0.1-0.1,0.2-0.2,0.3-0.3l0.5-0.2
	c0.2-0.1,0.4-0.1,0.5-0.1l0.9,0.1c0.1,0,0.2,0,0.3,0.1l1.2,0.5l0.1,0.1l3.8,2.5l4.3,2.1l5.8,1.4l3,0.3c0.1,0,0.1,0,0.2,0l4.7,1.5
	c0.1,0,0.2,0.1,0.2,0.1l7.7,5l1.5,0.8l1.6,0.5l2.7,0.3l7.1-0.4l3.6-0.8l4.9-2.4l2.1-1.7l2.4-2.3c0.1-0.1,0.3-0.2,0.5-0.3l1.5-0.4
	h0.2l1.8-0.1c0.1,0,0.2,0,0.4,0l3.8,1.2l8.8,2.3l2,0.1h0.1L393.2,284.9z"/>
<path class="st0" d="M488,381.4c-0.3,0-0.5-0.1-0.7-0.3l-1.3-1.3c-0.1-0.1-0.1-0.2-0.2-0.3l-1-2.3l-0.9-1.2l-2.7,0.6
	c-0.1,0-0.3,0-0.4,0l-1.6-0.3c-0.1,0-0.2,0-0.3-0.1l-3-1.4c-0.1-0.1-0.3-0.2-0.3-0.3l-0.5-0.6c-0.1-0.1-0.1-0.2-0.2-0.3l-0.3-0.7
	l-0.2-0.2l-0.4-0.1l-3,0.7c-0.1,0-0.2,0-0.2,0l-20.6-0.6c-0.1,0-0.2,0-0.2,0l-1.2-0.3c-0.1,0-0.3-0.1-0.4-0.2l-5.4-4.6l-1.2-0.6
	l-1.4-0.4h-1.5l-3.2,0.6c-0.1,0-0.2,0-0.3,0l-1.6-0.2c-0.1,0-0.2,0-0.3-0.1l-8.8-4.1l-2.6-0.4l-6.1,1h-0.1h-1.3c-0.1,0-0.2,0-0.2,0
	l-6.3-1.5l-1.3-0.1l-1.4,0.3c-0.1,0-0.2,0-0.3,0l-1.5-0.1h-0.2l-11.6-3.8l-4-0.1c-0.2,0-0.4-0.1-0.5-0.2l-0.7-0.5l-0.2-0.2l-1.3-1.4
	l-0.2-0.1l-5.7,0.4c-0.1,0-0.2,0-0.2,0l-4-0.7l-9.7,2.1c-0.1,0-0.2,0-0.2,0l-3.9-0.2c-0.1,0-0.2,0-0.3-0.1l-2-0.8l-0.2-0.1l-6-3.7
	l-7.7-1.8l-22.7-1.6c-0.2,0-0.3-0.1-0.5-0.2l-5.4-3.5l-2.9-1l-0.4,0.1l-1.5,0.6c-0.1,0-0.2,0.1-0.3,0.1h-0.9c-0.2,0-0.3,0-0.4-0.1
	l-0.9-0.4c-0.1,0-0.1-0.1-0.2-0.1l-1.7-1.2l-0.7-0.3c-0.5-0.2-0.7-0.8-0.5-1.3l0.5-1.1l3.2-6.4l0.7-2l0.4-1.5l0.3-2.4
	c0-0.3,0.2-0.6,0.5-0.8l2.1-1c0.1,0,0.2-0.1,0.3-0.1l8.5-1.3l3.8-1.7c0.1,0,0.2-0.1,0.3-0.1l1.1-0.1c0.2,0,0.3,0,0.5,0l1,0.4
	c0.1,0,0.2,0.1,0.2,0.1l3.3,2.5l0.2,0l0.1-0.3l-0.4-0.8l-5.8-8l-4.4-4.7l-0.1-0.1l-1-1.4c-0.1-0.1-0.1-0.2-0.1-0.3l-0.7-2.2
	c0-0.1,0-0.1,0-0.2l-0.2-1.8l-0.4-1.8l-0.6-1.3l-1-1.1l-0.9-0.7l-0.1-0.1l-2-1.8c-0.1-0.1-0.2-0.2-0.2-0.3l-0.8-1.5l-0.9-1.2
	l-0.1-0.1l-0.7-1.2c0-0.1-0.1-0.2-0.1-0.3l-0.3-1.4c0,0,0-0.1,0-0.1l-0.1-0.7v-0.7c0,0,0-0.1,0-0.1l0.1-1c0,0,0-0.1,0-0.1l0.2-1.1
	c0,0,0-0.1,0-0.1l1.1-2.8l0.1-1l-0.4-0.6l-8.1-2.7c-0.1,0-0.2-0.1-0.3-0.2l-1.3-1c-0.1-0.1-0.1-0.1-0.2-0.2l-0.8-1.1
	c-0.1-0.1-0.2-0.3-0.2-0.5l-0.3-2.7c0-0.4,0.1-0.7,0.5-1l1.2-0.7l0.2-0.2l0.2-0.3l0-0.2l0.1-0.4c0-0.1,0-0.1,0-0.2l0.1-0.4
	c0-0.1,0.1-0.2,0.1-0.3l0.3-0.4c0.1-0.1,0.2-0.2,0.3-0.3l0.5-0.2c0.2-0.1,0.4-0.1,0.5-0.1l0.9,0.1c0.1,0,0.2,0,0.3,0.1l1.2,0.5
	l0.1,0.1l3.8,2.5l4.3,2.1l5.8,1.4l3,0.3c0.1,0,0.1,0,0.2,0l4.7,1.5c0.1,0,0.2,0.1,0.2,0.1l7.7,5l1.5,0.8l1.6,0.5l2.7,0.3l7.1-0.4
	l3.6-0.8l4.9-2.4l2.1-1.7l2.4-2.3c0.1-0.1,0.3-0.2,0.5-0.3l1.5-0.4h0.2l1.8-0.1c0.1,0,0.2,0,0.4,0l3.8,1.2l8.8,2.3l2,0.1h0.1
	l9.7,2.1l4.2,0.3h0.2l2.5,0.8l0.2,0.1l3.4,1.8l0.1,0.1l8.3,6.5c0.1,0.1,0.1,0.1,0.2,0.2l2.8,3.7l3.6,3l1.2,0.9l0.5,0.2l1.4-0.2
	l1.5-0.4l5.8-4.5l0.2-0.1l3.4-1.6l1.3-2.2l0.4-1l0.1-0.1l0.4-0.7l0.1-0.1l0.8-1c0-0.1,0.1-0.1,0.1-0.1l1.5-1.1l0.2-0.1l10.6-4.9
	c0.1,0,0.2-0.1,0.2-0.1l2.9-0.5h0.2l3.4,0.1c0.1,0,0.3,0,0.4,0.1l2.5,1.1c0.1,0,0.1,0.1,0.2,0.1l3.8,2.7l6.8,2.1l0.1,0l1.7,0.8
	c0.1,0,0.1,0.1,0.2,0.1l1,0.8c0.1,0.1,0.2,0.2,0.2,0.2l0,0l0.4,0.1l1.5,0.1l9.7-3.5c0.1,0,0.3-0.1,0.4-0.1l2.6,0.2l6.3-0.4
	c0.2,0,0.3,0,0.5,0.1l2.4,1l11.6-0.9l10.7-2.5c0.1,0,0.3,0,0.4,0l1.5,0.2c0.1,0,0.3,0.1,0.4,0.1l1,0.6l0.1,0.1l1.4,1.2l0.1,0.1
	l3.8,4.7c0,0,0,0,0.1,0.1l7.6,11.7c0.1,0.2,0.2,0.4,0.2,0.6l-0.2,4.2c0,0.1,0,0.2,0,0.3l-0.6,1.8c0,0,0,0.1,0,0.1l-0.6,1.2l-0.5,1.6
	l-0.1,0.6l0.2,1l0.5,1.8l1.4,3.4c0,0,0,0.1,0.1,0.2l1.1,5c0,0.1,0,0.1,0,0.2l0.2,4.6l1.1,3.1l5.9,6.8l0.8,1.1
	c0.2,0.3,0.3,0.8,0.1,1.1c-0.2,0.4-0.6,0.6-1,0.5l-4-0.4l-5.1,1.6l-3.4,4.9c-0.2,0.3-0.5,0.4-0.8,0.4l0,0c-0.3,0-0.6-0.2-0.8-0.4
	l-1.6-2.4l-0.6-0.1l-3.1,2c-0.1,0.1-0.3,0.1-0.4,0.1l-2,0.3h-0.3l-1.1-0.1l-0.7,0.3l-1.4,2l-1,2.2l-1.4,4.4l-1.9,4.2
	c-0.1,0.1-0.1,0.3-0.3,0.4l-0.5,0.5c-0.1,0.1-0.2,0.1-0.2,0.2l-2.1,1c-0.1,0-0.2,0.1-0.2,0.1l-2.5,0.4c-0.3,0.1-0.5,0-0.7-0.2
	l-0.4-0.3l-0.9,0.4l-0.4,0.4l-0.4,0.8c0,0.1-0.1,0.1-0.1,0.2l-1,1.2l-0.6,1.6c-0.2,0.4-0.6,0.7-1.1,0.6l-1-0.2l-1.7,1.8
	c-0.1,0.1-0.1,0.1-0.2,0.1l-1,0.7c-0.1,0-0.2,0.1-0.3,0.1l-1,0.3H496l-2,0.2l-0.5,0.2l-1.2,1.7l-0.8,2.6l-0.9,2.4
	c-0.1,0.2-0.3,0.4-0.5,0.5l-1.7,0.8C488.3,381.3,488.1,381.4,488,381.4z M487.5,378.5l0.7,0.7l0.7-0.3l0.8-1.9l0.8-2.6
	c0-0.1,0.1-0.2,0.1-0.3l1.4-2c0.1-0.2,0.3-0.3,0.4-0.4l0.9-0.4c0.1,0,0.2-0.1,0.3-0.1l2-0.2l0.8-0.2l0.8-0.5l1.9-2
	c0.1-0.1,0.3-0.2,0.5-0.3l0.4-0.1c0.1,0,0.3,0,0.4,0l0.5,0.1l0.4-1c0-0.1,0.1-0.2,0.1-0.3l1.1-1.3l0.4-0.9c0-0.1,0.1-0.2,0.1-0.2
	l0.6-0.7c0.1-0.1,0.2-0.2,0.3-0.3l1.6-0.7c0.3-0.1,0.7-0.1,1,0.1l0.5,0.4l2-0.3l1.9-0.8l0.3-0.2l1.7-3.9l1.4-4.4c0,0,0-0.1,0-0.1
	l1.1-2.4c0,0,0-0.1,0.1-0.1l1.6-2.4c0.1-0.2,0.3-0.3,0.4-0.4l1.2-0.5c0.2-0.1,0.3-0.1,0.5-0.1l1.2,0.1l1.7-0.2l3.3-2.1
	c0.2-0.1,0.5-0.2,0.7-0.1l1.4,0.3c0.3,0,0.5,0.2,0.6,0.4l1,1.5l2.8-4c0.1-0.2,0.3-0.3,0.5-0.4l5.6-1.8c0.1,0,0.3,0,0.4,0l1.8,0.2
	l-5.3-6.1c-0.1-0.1-0.1-0.2-0.2-0.3l-1.2-3.4c0-0.1,0-0.2,0-0.3l-0.2-4.6l-1.1-4.8l-1.5-3.4c0,0,0-0.1,0-0.1l-0.5-1.9
	c0,0,0-0.1,0-0.1l-0.2-1.2c0-0.1,0-0.2,0-0.3l0.2-0.8c0,0,0-0.1,0-0.1l0.5-1.7l0.1-0.1l0.6-1.2l0.5-1.5l0.2-3.8l-7.4-11.4l-3.7-4.6
	l-1.3-1.1l-0.8-0.5l-1.1-0.2l-10.5,2.5h-0.1l-11.9,0.9c-0.2,0-0.3,0-0.5-0.1l-2.4-1l-6.1,0.4h-0.1l-2.4-0.2l-9.7,3.5
	c-0.1,0-0.2,0.1-0.4,0.1l-1.8-0.1h-0.2l-0.9-0.2c-0.3-0.1-0.5-0.2-0.6-0.5l-0.1-0.2l-0.8-0.6l-1.5-0.7l-6.9-2.2
	c-0.1,0-0.2-0.1-0.3-0.1l-3.9-2.7l-2.2-1l-3.1,0l-2.6,0.5l-10.4,5l-1.3,1l-0.7,0.8l-0.3,0.5l-0.4,1l-0.1,0.1l-1.5,2.5
	c-0.1,0.2-0.2,0.3-0.4,0.4l-3.5,1.7l-5.9,4.6c-0.1,0.1-0.2,0.1-0.3,0.2l-1.7,0.5h-0.2l-1.8,0.2c-0.2,0-0.4,0-0.5-0.1l-0.9-0.4
	c-0.1,0-0.1-0.1-0.2-0.1l-1.4-1l-3.8-3.2l-0.2-0.2l-2.7-3.6l-8.2-6.3l-3.3-1.7l-2.3-0.7l-4.2-0.3h-0.1l-9.7-2.1l-2-0.1h-0.2
	l-8.9-2.5l-3.7-1.1l-1.5,0.1l-1.1,0.3l-2.2,2.2c0,0,0,0.1-0.1,0.1l-2.2,1.8l-0.2,0.1l-5.1,2.5c-0.1,0-0.2,0.1-0.2,0.1l-3.8,0.8
	c0,0-0.1,0-0.1,0l-7.3,0.4h-0.2l-2.9-0.3c-0.1,0-0.1,0-0.2,0l-1.8-0.5c-0.1,0-0.2,0-0.2-0.1l-1.6-0.9l-7.7-5l-4.5-1.5l-3-0.3h-0.1
	l-6-1.5l-0.2-0.1l-4.4-2.2l-0.1,0l-3.8-2.4l-1-0.4h-0.4l-0.1,0.2l-0.1,0.4v0.1l-0.1,0.4c0,0.1-0.1,0.2-0.1,0.3l-0.3,0.5l-0.1,0.1
	l-0.4,0.3l-0.2,0.1l-0.7,0.5l0.2,1.9l0.6,0.8l1,0.8l8.2,2.7c0.2,0.1,0.4,0.2,0.5,0.4l0.8,1.1c0.1,0.2,0.2,0.4,0.2,0.7l-0.1,1.5
	c0,0.1,0,0.2-0.1,0.3l-1.2,2.9l-0.2,0.9l-0.1,0.9v0.5l0.1,0.5l0.3,1.2l0.6,1l0.9,1.2c0,0,0.1,0.1,0.1,0.1l0.8,1.5l1.8,1.7l0.9,0.7
	l0.1,0.1l1.2,1.3c0.1,0.1,0.1,0.1,0.1,0.2l0.8,1.5c0,0.1,0.1,0.1,0.1,0.2l0.5,2c0,0,0,0.1,0,0.1l0.2,1.8l0.6,2l0.9,1.2l4.4,4.7
	c0,0,0.1,0.1,0.1,0.1l5.8,8.1c0,0,0.1,0.1,0.1,0.1l0.6,1.1c0.1,0.2,0.1,0.4,0.1,0.6l-0.1,0.5c0,0.1,0,0.1,0,0.2l-0.1,0.3
	c0,0,0,0.1,0,0.1l-0.2,0.4c0,0.1-0.1,0.2-0.2,0.3l-0.3,0.3c-0.1,0.1-0.3,0.2-0.5,0.3L333,328c-0.1,0-0.3,0-0.4,0l-0.8-0.1
	c-0.2,0-0.3-0.1-0.4-0.2l-3.4-2.5l-0.7-0.2l-0.7,0.1l-3.8,1.7c-0.1,0-0.2,0.1-0.3,0.1l-8.5,1.3l-1.4,0.7l-0.2,1.9c0,0,0,0.1,0,0.1
	l-0.4,1.7l-0.8,2.1c0,0,0,0.1,0,0.1l-3.3,6.5l0.1,0.1l1.7,1.3l0.6,0.2h0.5l1.4-0.5c0.1,0,0.2-0.1,0.2-0.1l0.8-0.1c0.1,0,0.3,0,0.5,0
	l0.8,0.3l0,0l2.4,0.8l0.2,0.1l5.3,3.5l22.5,1.6c0.1,0,0.1,0,0.2,0l8,1.8c0.1,0,0.2,0.1,0.3,0.1l6.1,3.8l1.8,0.7l3.6,0.2l9.8-2.1
	c0.1,0,0.3,0,0.4,0l4.1,0.7l5.8-0.4c0.1,0,0.3,0,0.4,0.1l0.7,0.3c0.1,0.1,0.3,0.2,0.4,0.3l1.3,1.5l0.4,0.3l3.8,0.1
	c0.1,0,0.2,0,0.3,0l11.6,3.8l1.2,0.1l1.4-0.3c0.1,0,0.2,0,0.3,0l1.5,0.1h0.2l6.3,1.5h1.1l6.2-1h0.3l2.9,0.5c0.1,0,0.2,0,0.3,0.1
	l8.7,4.1l1.3,0.1l3.1-0.6h0.2l1.7,0c0.1,0,0.2,0,0.3,0l1.6,0.5l0.2,0.1l1.4,0.7c0.1,0,0.1,0.1,0.2,0.1l5.3,4.6l0.9,0.2l20.4,0.6
	l3.1-0.7c0.1,0,0.3,0,0.4,0l1,0.2c0.2,0.1,0.5,0.2,0.6,0.4l0.5,0.7c0.1,0.1,0.1,0.1,0.1,0.2l0.3,0.6l0.3,0.4l2.7,1.2l1.3,0.2
	l3.2-0.8c0.4-0.1,0.8,0.1,1,0.4l1.4,1.9l0.1,0.2L487.5,378.5z"/>
<path class="st0" d="M577.5,348.1c-0.2,0-0.4-0.1-0.5-0.1l-2.2-1.4l-0.1-0.1l-2-1.8l-2.5-0.9l-17.6,0.9h-0.2l-9.6-1
	c-0.3,0-0.5-0.2-0.7-0.4l-0.8-1.1l-6-6.9c-0.1-0.1-0.1-0.2-0.2-0.3l-1.2-3.4c0-0.1,0-0.2,0-0.3l-0.2-4.6l-1.1-4.8l-1.6-3.4
	c0,0,0-0.1,0-0.1l-0.5-1.9c0,0,0-0.1,0-0.1l-0.2-1.2c0-0.1,0-0.2,0-0.3l0.2-0.8c0,0,0-0.1,0-0.1l0.5-1.7l0.1-0.1l0.6-1.2l0.5-1.5
	l0.2-3.8l-7.4-11.4l-3.7-4.6l-1.3-1.1l-0.8-0.5l-1.1-0.2l-10.5,2.5h-0.1l-11.9,0.9c-0.2,0-0.3,0-0.5-0.1l-2.4-1l-6.1,0.4h-0.1
	l-2.4-0.2l-9.7,3.5c-0.1,0-0.2,0.1-0.4,0.1l-1.8-0.1h-0.2l-0.9-0.2c-0.3-0.1-0.5-0.2-0.6-0.5l-0.1-0.2l-0.8-0.6l-1.5-0.7l-6.9-2.2
	c-0.1,0-0.2-0.1-0.3-0.1l-3.9-2.7l-2.2-1l-3.1,0l-2.6,0.5l-10.4,5l-1.3,1l-0.7,0.8l-0.3,0.5l-0.4,1l-0.1,0.1l-1.5,2.5
	c-0.1,0.2-0.2,0.3-0.4,0.4l-3.5,1.7l-5.9,4.6c-0.1,0.1-0.2,0.1-0.3,0.2l-1.7,0.5h-0.2l-1.8,0.2c-0.2,0-0.4,0-0.5-0.1l-0.9-0.4
	c-0.1,0-0.1-0.1-0.2-0.1l-1.4-1l-3.8-3.2c-0.4-0.3-0.5-1-0.1-1.4l3.7-4.7l4.1-7.6l1.1-2.7l0.4-1.4l-0.2-2.7v-0.2l0.2-1.8
	c0-0.2,0.1-0.3,0.1-0.4l0.8-1.3c0-0.1,0.1-0.1,0.1-0.2l2.8-2.7l1.7-2.1l0.1-0.8l-0.5-0.8l-2.7-2c-0.1-0.1-0.2-0.1-0.2-0.2l-3.2-4.1
	c0,0-0.1-0.1-0.1-0.1l-0.8-1.3c0-0.1-0.1-0.1-0.1-0.2l-0.5-1.5l-0.3-1.2l-0.4-1.2l-2.1-3.1c0,0,0-0.1,0-0.1l-1.5-3l-0.6-0.4
	l-0.9,0.3l-1.3,0.9c-0.1,0.1-0.3,0.1-0.4,0.2l-2.6,0.3l-1.4,0.6l-1.2,1c-0.1,0.1-0.2,0.1-0.3,0.2l-1.3,0.5c-0.2,0.1-0.4,0.1-0.6,0
	l-1.5-0.4c-0.1,0-0.2-0.1-0.3-0.1l-1.7-1.2l-0.1-0.1l-3.1-2.8c-0.1-0.1-0.2-0.2-0.2-0.3l-2.5-5.3l-0.1-0.1l-2.9-9.6c0,0,0-0.1,0-0.1
	l-0.9-5.1c0-0.1,0-0.2,0-0.3l0.1-1.1v-0.1l0.7-2.6l0.8-2.2c0.2-0.5,0.6-0.7,1.1-0.6l8.6,1.7l0.6-0.3c0.1,0,0.2-0.1,0.2-0.1l0.8-0.2
	l0.1-0.2c0.1-0.1,0.1-0.2,0.2-0.3l2.4-2.1l0.3-0.3l0.2-0.4l0.3-1.3v-1.7l-0.4-2.1l-0.8-1.7l-0.7-1.1l-1.2-1.3l-1.1-1.5l-0.1-0.1
	l-0.8-1.5c0-0.1-0.1-0.2-0.1-0.3l-0.3-1.5c0-0.1,0-0.1,0-0.2l-0.1-1.4c0,0,0-0.1,0-0.1l0.2-2.8l0.2-1.9c0,0,0-0.1,0-0.1l0.5-2
	c0-0.1,0.1-0.2,0.2-0.3l1.2-1.6l0.2-0.2l1.6-1.4l0.2-0.1l10.4-5.3c0.1,0,0.2-0.1,0.2-0.1l1.1-0.2c0.1,0,0.2,0,0.4,0l0.9,0.1
	c0.1,0,0.2,0.1,0.3,0.1l2.3,1.4l1.1,0.5l2.8,0.5c0.1,0,0.1,0,0.2,0l2.5,1l1.2,0.3l4.1-0.6c0.3,0,0.7,0.1,0.9,0.3l4.4,5.2
	c0.1,0.1,0.1,0.2,0.2,0.3l1.1,2.7c0,0.1,0,0.2,0.1,0.2l0.1,1l0.1,0.3l1.4-1c0.1-0.1,0.2-0.1,0.3-0.1l4.6-1.3l3.5-1.7l0.2-0.1
	l1.3-0.3c0.2,0,0.3,0,0.5,0l0.9,0.2c0.1,0,0.2,0.1,0.4,0.2l5.4,3.8l2,0.9l1.8,0.5h2.5l2.1-0.6l4.2-3.2l0.1-0.1l2.4-1.4l0.2-0.1
	l3-0.9l1.5-0.8l0.8-0.8l0.3-0.8c0-0.1,0.1-0.2,0.1-0.2l1-1.5c0.1-0.2,0.3-0.3,0.4-0.3l13.8-5.6l6.1-4.9c0.4-0.3,0.9-0.3,1.2,0
	l3.1,2.5h9.7l0,0c0.2,0,0.3,0,0.5,0.1l0.5,0.3c0.1,0.1,0.2,0.1,0.2,0.2l0.9,0.9l2.7,2.2l1.5,0.2l2.1-0.5l2.3-1.4l0.1-0.1l3.9-1.7
	l0.1-0.1l2-0.5c0.1,0,0.1,0,0.2,0l1.5-0.1h0.2l1.5,0.3h0.7l2.9-0.8l4.9-1.9h0.1l3.6-0.8l0.8-0.5l0.8-0.9l0.5-1
	c0-0.1,0.1-0.1,0.1-0.2l2.7-3.4c0.2-0.3,0.5-0.5,0.9-0.5l3.9,0.6h0.5l5.8-1.4c0.1,0,0.2,0,0.3,0l2,0.2c0.1,0,0.2,0,0.3,0.1l1.6,0.6
	c0.1,0,0.2,0.1,0.3,0.2l4,3.7l7.9,3.9c0.1,0,0.1,0.1,0.2,0.1l3.5,2.6l6.3,0.6c0.2,0,0.5,0.1,0.7,0.3l2,2.1l0.1,0.1l1.1,1.5l1.2,0.8
	l1.7,0.9l0.9,0.2h0.7l0.7-0.1c0.1,0,0.3,0,0.4,0l1.3,0.2c0.2,0,0.4,0.1,0.5,0.3l0.7,0.6c0.1,0.1,0.2,0.2,0.2,0.3l0.5,1
	c0,0.1,0.1,0.2,0.1,0.3l0.6,4.2l0.3,1.5l0.6,1.5l0.4,0.3h0.5l3.1-1.7c0.1-0.1,0.2-0.1,0.3-0.1l1.2-0.2c0.2,0,0.5,0,0.7,0.1l0.8,0.4
	c0.1,0.1,0.2,0.1,0.3,0.2l0.5,0.6c0,0.1,0.1,0.1,0.1,0.2l0.6,1.1c0,0.1,0.1,0.1,0.1,0.2l0.2,0.5c0,0,0,0.1,0,0.1l0.2,0.8
	c0,0.1,0,0.1,0,0.2v0.9v0.1l-0.1,1.1c0,0.1,0,0.1,0,0.2l-0.5,1.7l0.1,0.3l0.1,0.1l0.5,0.1h2.2c0.2,0,0.4,0.1,0.6,0.2l2.5,1.9
	c0.1,0.1,0.2,0.2,0.3,0.3l1.2,2.3c0,0,0,0.1,0,0.1l1,2.7l7.3,1.3c0.1,0,0.2,0.1,0.3,0.1l2.4,1.3c0.1,0,0.1,0.1,0.2,0.1l0.8,0.7
	l0.4,0.2h0.3l0.7-0.2l2.2-1.1c0.3-0.1,0.6-0.1,0.8,0l0.5,0.2c0.2,0.1,0.3,0.2,0.4,0.3l0.3,0.4c0.1,0.1,0.1,0.1,0.1,0.2l0.3,0.7
	c0,0,0,0.1,0,0.1l0.3,1.1c0,0.1,0,0.1,0,0.2l0.2,1.5l0.6,1.5l0.9,1.8l3.2,2.8c0.4,0.4,0.5,1,0.1,1.4c0,0,0,0,0,0l-5.6,5.9
	c-0.1,0.1-0.1,0.1-0.2,0.2l-1.8,1c-0.2,0.1-0.5,0.2-0.8,0.1c-0.3-0.1-0.5-0.2-0.6-0.5l-0.3-0.6c0-0.1-0.1-0.1-0.1-0.2L635,235
	l-0.1-0.2h-0.2l-0.7,0.7l-1.3,1.8l-0.2,0.8l0.1,0.9l1.7,4l1.1,3.6l1,4.1l0.8,5.5l0.1,2.2l2.6,10.3c0,0.1,0,0.2,0,0.2v3.9
	c0,0.1,0,0.1,0,0.2l-1,4.3l0.1,1.2l0.3,1.8l0.7,1.4l3.5,4.4c0.1,0.1,0.2,0.3,0.2,0.4l0.3,1.2c0,0.1,0,0.2,0,0.3l-0.1,1
	c0,0.1,0,0.2-0.1,0.3l-0.7,1.5c0,0,0,0.1-0.1,0.1l-2.5,3.7l-4.7,6.2c0,0.1-0.1,0.1-0.1,0.1l-3.3,2.9l-0.5,1.1l-0.3,1.1l-0.1,1.4
	c0,0,0,0.1,0,0.1l-0.4,2.2v0.5l0.2,0.3l1.1,0.9c0.1,0.1,0.2,0.1,0.2,0.2l0.4,0.6l0.1,0.1l0.2,0.3c0,0.1,0.1,0.2,0.1,0.4l0.2,2.2
	c0,0.5-0.3,0.9-0.8,1.1l-3.8,1l-0.3,0.2l-0.2,0.2c0.1,0.1,0.2,0.3,0.2,0.5l0.1,1c0,0.1,0,0.2,0,0.2l-0.7,4.7l-0.1,2l0.1,2.2l1,3
	l1.8,1.1c0.2,0.1,0.3,0.2,0.3,0.4l1.1,2.2c0.1,0.1,0.1,0.2,0.1,0.4l0.2,3.3c0,0.4-0.2,0.8-0.5,1c-0.3,0.2-0.8,0.1-1.1-0.1
	c-0.1-0.1-0.1-0.1-0.2-0.2l-1.7-2.2l-0.8-0.5l-3.7-0.7c-0.1,0-0.2-0.1-0.3-0.1l-6.5-3.3l-2.4-0.5l-2.4,0.2l-6.4,2.6
	c-0.1,0-0.2,0.1-0.3,0.1l-2.6,0.1c-0.1,0-0.1,0-0.2,0l-7.4-1.1c-0.1,0-0.3-0.1-0.4-0.1l-0.3-0.2l-0.1,0.6v1.7c0,0.1,0,0.3-0.1,0.4
	l-0.6,1.2c-0.1,0.1-0.2,0.3-0.3,0.4l-1,0.8c-0.1,0.1-0.2,0.1-0.3,0.2l-1.3,0.4c-0.2,0-0.4,0-0.5,0l-1.3-0.4h-1.8l-1.8,0.5l-1.1,0.9
	l-0.8,1.8l-0.3,1.3c0,0.1,0,0.1-0.1,0.2l-0.6,1.4c-0.1,0.1-0.2,0.3-0.3,0.4l-1.8,1.4c-0.1,0.1-0.3,0.2-0.5,0.2l-2.9,0.5L577.5,348.1
	z M575.9,344.9l1.8,1.1l2.3-0.4l1.4-1.1l0.5-1.1l0.3-1.5c0-0.1,0-0.2,0.1-0.2l1-2c0.1-0.1,0.2-0.3,0.3-0.4l1.5-1.1
	c0.1-0.1,0.2-0.1,0.3-0.2l2.1-0.5c0.1,0,0.2,0,0.2,0h2.1c0.1,0,0.2,0,0.3,0l1.2,0.3l0.8-0.2l0.7-0.5l0.4-0.8v-1.6c0,0,0-0.1,0-0.1
	l0.3-2.1c0.1-0.5,0.6-0.9,1.1-0.8c0.1,0,0.3,0.1,0.4,0.1l1.4,0.9l7.1,1.1l2.3-0.1l6.4-2.6c0.1,0,0.2-0.1,0.3-0.1l2.7-0.2
	c0.1,0,0.2,0,0.3,0l2.7,0.5c0.1,0,0.2,0,0.2,0.1l6.5,3.3l3.8,0.7c0.1,0,0.3,0.1,0.4,0.2l1,0.7l-0.8-1.6l-1.8-1.2
	c-0.2-0.1-0.3-0.3-0.4-0.5l-1.1-3.5c0-0.1,0-0.2,0-0.3l-0.1-2.5l0.2-2.6l0.7-4.4v-0.4l-0.1,0c-0.2-0.1-0.3-0.3-0.4-0.5l-0.1-0.3
	c-0.1-0.4,0-0.7,0.2-1l0.9-1c0.1-0.1,0.1-0.1,0.2-0.2l0.6-0.3c0.1-0.1,0.2-0.1,0.3-0.1l3.2-0.8l-0.2-1.3l-0.3-0.4l-1.1-0.9
	c-0.1-0.1-0.1-0.1-0.2-0.2l-0.5-0.7c-0.1-0.1-0.2-0.3-0.2-0.5L629,310c0-0.1,0-0.2,0-0.2l0.4-2.3l0.1-1.4v-0.2l0.3-1.3
	c0-0.1,0-0.1,0.1-0.2l0.7-1.4c0.1-0.1,0.1-0.2,0.2-0.3l3.4-3l4.6-6.2l2.5-3.6l0.6-1.3l0.1-0.6l-0.2-0.8l-3.4-4.3l-0.1-0.1l-0.9-1.6
	c0-0.1-0.1-0.2-0.1-0.3l-0.4-2c0,0,0-0.1,0-0.1l-0.1-1.4c0-0.1,0-0.2,0-0.3l1-4.3V269l-2.6-10.2c0-0.1,0-0.1,0-0.2l-0.1-2.2
	l-0.7-5.3l-0.9-3.9l-1.1-3.5l-1.7-4c0-0.1-0.1-0.2-0.1-0.3l-0.1-1.2c0-0.1,0-0.3,0-0.4l0.3-1.2c0-0.1,0.1-0.2,0.2-0.3l1.5-2l0.1-0.1
	l1-1c0.2-0.2,0.4-0.3,0.6-0.3l1.2-0.1c0.4-0.1,0.8,0.1,1,0.4l0.5,0.8c0,0.1,0.1,0.2,0.1,0.3l0.2,0.5l0.7-0.4l4.8-5l-2.7-2.2
	c-0.1-0.1-0.2-0.2-0.2-0.3l-1-2.1L638,223c0-0.1,0-0.1,0-0.2l-0.1-0.6l-0.1-1l-0.2-0.9l-0.2-0.4l-1.8,0.9l-0.1,0.1l-1,0.3
	c-0.1,0-0.3,0-0.4,0h-0.7c-0.1,0-0.2,0-0.3-0.1l-0.8-0.3c-0.1-0.1-0.2-0.1-0.3-0.2l-0.8-0.8l-2.1-1.2l-7.8-1.3
	c-0.4-0.1-0.6-0.3-0.8-0.6l-1.2-3.2l-1-2l-2.1-1.6h-2c-0.1,0-0.1,0-0.2,0l-0.7-0.2c-0.1,0-0.2-0.1-0.3-0.1l-0.6-0.4
	c-0.2-0.1-0.4-0.4-0.5-0.6l-0.2-0.9c0-0.1,0-0.3,0-0.4l0.1-0.6c0,0,0-0.1,0-0.1l0.4-1.3l0.1-0.9v-0.8l-0.2-1l-0.5-0.9l-0.3-0.4
	L611,201l-0.7,0.1l-3.1,1.7c-0.1,0.1-0.3,0.1-0.4,0.1l-1,0.1c-0.2,0-0.4-0.1-0.6-0.2l-0.9-0.6c-0.2-0.1-0.3-0.3-0.4-0.5l-0.7-1.9
	c0-0.1,0-0.1,0-0.2l-0.3-1.6l-0.6-4.1l-0.3-0.7l-0.3-0.3l-0.8-0.1l-0.6,0.1h-0.2h-1h-0.2l-1.1-0.2c-0.1,0-0.2-0.1-0.2-0.1l-1.8-1
	c0,0-0.1,0-0.1-0.1l-1.4-0.9c-0.1-0.1-0.2-0.1-0.2-0.2l-1.1-1.6L591,187l-6.2-0.5c-0.2,0-0.4-0.1-0.5-0.2l-3.7-2.7l-7.9-3.9
	c-0.1,0-0.2-0.1-0.2-0.2l-4-3.6l-1.3-0.5l-1.6-0.1l-5.8,1.4c-0.1,0-0.1,0-0.2,0H559c-0.1,0-0.1,0-0.2,0l-3.4-0.5L553,179l-0.5,1
	c0,0.1-0.1,0.2-0.1,0.2l-1,1.1c-0.1,0.1-0.1,0.2-0.2,0.2l-1,0.6c-0.1,0.1-0.2,0.1-0.3,0.1l-3.7,0.8l-4.9,1.9l-3.1,0.9
	c-0.1,0-0.2,0-0.3,0h-0.9h-0.2l-1.5-0.3l-1.2,0.1l-1.8,0.5l-3.8,1.6l-2.3,1.4c-0.1,0.1-0.2,0.1-0.3,0.1l-2.5,0.6c-0.1,0-0.2,0-0.4,0
	l-2-0.3c-0.2,0-0.4-0.1-0.5-0.2l-3-2.4l-0.1-0.1l-0.8-0.9l-0.2-0.1h-9.8l0,0c-0.2,0-0.5-0.1-0.6-0.2l-2.7-2.2l-5.6,4.5
	c-0.1,0.1-0.2,0.1-0.3,0.1l-13.7,5.5l-0.8,1.1l-0.3,0.9c-0.1,0.1-0.1,0.3-0.2,0.4l-1.1,1c-0.1,0.1-0.1,0.1-0.2,0.2l-1.7,0.9
	c-0.1,0-0.1,0.1-0.2,0.1l-2.9,0.9l-2.3,1.4l-4.3,3.3c-0.1,0.1-0.2,0.1-0.3,0.2l-2.4,0.7c-0.1,0-0.2,0-0.3,0.1H464
	c-0.1,0-0.2,0-0.3,0l-2-0.6h-0.1l-2.1-0.9l-0.2-0.1l-5.3-3.7l-0.5-0.1l-1,0.2l-3.5,1.7l-0.2,0.1l-4.6,1.2l-1.8,1.3
	c-0.1,0.1-0.3,0.2-0.5,0.2l-0.6,0.1c-0.4,0-0.9-0.2-1-0.7l-0.5-1.4c0-0.1,0-0.1,0-0.2l-0.1-1l-1-2.5l-3.9-4.7l-3.7,0.5
	c-0.1,0-0.2,0-0.4,0l-1.5-0.3h-0.1l-2.5-0.9l-2.8-0.5c-0.1,0-0.1,0-0.2-0.1l-1.3-0.6l-0.1-0.1l-2.2-1.3l-0.5-0.1l-0.8,0.1l-10.1,5.1
	l-1.5,1.2l-1,1.4l-0.5,1.8l-0.2,1.7l-0.2,2.7l0.1,1.3l0.3,1.3l0.7,1.3l1,1.4l1.2,1.3l0.1,0.1l0.8,1.2l0.1,0.1l0.9,1.9
	c0,0.1,0.1,0.2,0.1,0.2l0.5,2.4c0,0.1,0,0.1,0,0.2v1.9c0,0.1,0,0.2,0,0.3l-0.4,1.5c0,0.1,0,0.1-0.1,0.2l-0.3,0.6
	c0,0.1-0.1,0.2-0.1,0.2l-0.4,0.5l-0.1,0.1l-2.3,2l-0.2,0.4c-0.1,0.2-0.4,0.4-0.6,0.5l-1.1,0.3l-0.8,0.4c-0.2,0.1-0.4,0.1-0.7,0.1
	l-8.2-1.6l-0.5,1.3l-0.6,2.5l-0.1,0.9l0.9,4.9l2.8,9.5l2.4,5l2.9,2.7l1.5,1.1l1,0.3l0.9-0.3l1.2-1c0.1-0.1,0.1-0.1,0.2-0.1l1.6-0.7
	c0.1,0,0.2-0.1,0.3-0.1l2.5-0.3l1.2-0.8c0.1,0,0.2-0.1,0.2-0.1l1.5-0.5c0.3-0.1,0.6,0,0.9,0.1l1.3,0.8c0.2,0.1,0.3,0.2,0.4,0.4
	l1.6,3.2l2.1,3.3c0,0.1,0.1,0.1,0.1,0.2l0.5,1.3c0,0,0,0.1,0,0.1l0.3,1.2l0.4,1.3l0.7,1.2l3.1,4l2.8,2c0.1,0.1,0.2,0.2,0.3,0.3
	l0.7,1.2c0.1,0.2,0.2,0.4,0.1,0.7l-0.2,1.5c0,0.2-0.1,0.3-0.2,0.5l-1.9,2.4l-0.1,0.1l-2.8,2.7l-0.6,1l-0.1,1.5l0.2,2.8
	c0,0.1,0,0.2,0,0.4l-0.5,1.6l-1.1,2.8c0,0,0,0.1,0,0.1l-4.2,7.7l-0.1,0.1l-3.1,4l3,2.5l1.2,0.9l0.5,0.2l1.4-0.2l1.5-0.4l5.8-4.5
	l0.2-0.1l3.4-1.6l1.3-2.2l0.4-1l0.1-0.1l0.4-0.7l0.1-0.1l0.8-1c0-0.1,0.1-0.1,0.1-0.1l1.5-1.1l0.2-0.1l10.6-5c0.1,0,0.2-0.1,0.2-0.1
	l2.9-0.5h0.2l3.4,0.1c0.1,0,0.3,0,0.4,0.1l2.5,1.1c0.1,0,0.1,0.1,0.2,0.1l3.8,2.7l6.8,2.1l0.1,0l1.7,0.8c0.1,0,0.1,0.1,0.2,0.1
	l1,0.8c0.1,0.1,0.2,0.2,0.2,0.2l0,0l0.4,0.1l1.5,0.1l9.7-3.5c0.1,0,0.3-0.1,0.4-0.1l2.6,0.2l6.3-0.4c0.2,0,0.3,0,0.5,0.1l2.4,1
	l11.6-0.9l10.7-2.5c0.1,0,0.3,0,0.4,0l1.5,0.2c0.1,0,0.3,0.1,0.4,0.1l1,0.6l0.1,0.1l1.4,1.2l0.1,0.1l3.8,4.7c0,0,0,0,0.1,0.1
	l7.6,11.7c0.1,0.2,0.2,0.4,0.2,0.6l-0.2,4.2c0,0.1,0,0.2,0,0.3l-0.6,1.8c0,0,0,0.1,0,0.1l-0.6,1.2l-0.5,1.6l-0.1,0.6l0.2,1l0.5,1.8
	l1.4,3.4c0,0,0,0.1,0.1,0.2l1.1,5c0,0.1,0,0.1,0,0.2l0.2,4.6l1.1,3.1l5.9,6.8l0.6,0.8l9.1,1l17.7-0.9c0.1,0,0.3,0,0.4,0.1l2.8,1.1
	c0.1,0,0.2,0.1,0.3,0.2L575.9,344.9z"/>
<path class="st0" d="M669.4,130.2L669.4,130.2l-2.2-0.1c-0.1,0-0.1,0-0.2,0l-0.9-0.2l-0.2-0.1l-1.7-0.8c-0.1,0-0.1-0.1-0.2-0.1
	l-1.1-0.8h-2.2l-2.5,0.5c-0.1,0-0.2,0-0.3,0l-5.9-0.5c-0.1,0-0.3-0.1-0.4-0.1l-1.1-0.7c-0.2-0.1-0.4-0.3-0.4-0.5l-0.3-0.8l-0.5-0.5
	c-0.1-0.1-0.1-0.1-0.2-0.2l-0.8-1.4c-0.1-0.2-0.2-0.4-0.1-0.7l0.8-3.9l-0.2-0.6l-0.3-0.7l-0.6-0.7c0,0-0.1-0.1-0.1-0.2L647,116
	c-0.1-0.2-0.1-0.4-0.1-0.5v-1.3c0-0.1,0-0.2,0-0.3l0.3-1.1c0-0.1,0-0.1,0.1-0.2l0.3-0.5l0.1-0.1l0.6-1c0,0,0.1-0.1,0.1-0.1l0.7-0.8
	c0.3-0.3,0.8-0.4,1.2-0.2l2.1,1l1-0.1l1-0.3l0.6-0.4l1-0.9l0.5-0.7c0.1-0.1,0.2-0.2,0.3-0.3l6.5-4.2l0.1-0.1l3.4-1.7l0.2-0.1
	l1.5-0.4l0.4-0.3l0.3-0.9c0.1-0.5,0.6-0.7,1.1-0.7l3,0.3c0.3,0,0.5,0.2,0.7,0.4l0.6,0.7l0.1,0.1l2,3.6l0.2-0.3
	c0.2-0.3,0.4-0.4,0.7-0.5l1.8-0.3c0.3-0.1,0.6,0,0.8,0.3l1,1c0.1,0.1,0.2,0.2,0.2,0.3l0.5,1l0.9,1c0.1,0.1,0.2,0.2,0.2,0.4l0.3,1.1
	l0.3,1.7l0.5,0.5c0.1,0.1,0.2,0.2,0.2,0.3l0.3,0.5c0,0,0,0.1,0,0.1l0.1,0.4c0,0.2,0,0.3,0,0.5l-0.1,0.5l-0.7,3.1l-0.4,3.7l0.6,1.8
	l2.1,4.3c0.2,0.5,0,1.1-0.5,1.3c-0.2,0.1-0.4,0.1-0.6,0.1l-6.6-1.2l-4.3,0.2l-1.1,0.3l-0.5,0.4l-0.2,0.3l-0.3,0.7
	c0,0.1-0.1,0.2-0.2,0.3l-0.5,0.5c0,0.1-0.1,0.1-0.2,0.1l-1,0.7C669.7,130.1,669.6,130.2,669.4,130.2z M667.4,128.2l1.7,0.1l0.6-0.5
	l0.3-0.3l0.2-0.6c0,0,0-0.1,0.1-0.1l0.3-0.5c0.1-0.1,0.1-0.2,0.2-0.2l0.8-0.7c0.1-0.1,0.2-0.2,0.4-0.2l1.4-0.4c0.1,0,0.2,0,0.2,0
	l4.5-0.2h0.2l4.8,0.9l-1.3-2.6c0,0,0-0.1,0-0.1l-0.7-2.1c0-0.1,0-0.3,0-0.4l0.5-4c0,0,0-0.1,0-0.1l0.8-3.2l-0.2-0.4l-0.6-0.6
	c-0.1-0.1-0.2-0.3-0.3-0.5l-0.4-1.9l-0.2-0.8l-0.9-1c-0.1-0.1-0.1-0.2-0.2-0.3l-0.4-1l-0.5-0.5l-0.9,0.2l-0.4,0.6l-0.2,0.6
	c-0.1,0.2-0.2,0.4-0.4,0.5c-0.5,0.3-1.1,0.2-1.4-0.2l-0.3-0.4l-0.1-0.1l-2.6-4.6l-0.2-0.3l-1.8-0.2l-0.1,0.4
	c-0.1,0.2-0.2,0.3-0.3,0.5l-0.8,0.7c-0.1,0.1-0.2,0.2-0.4,0.2l-1.6,0.4l-3.3,1.6l-6.3,4.1l-0.4,0.7c0,0.1-0.1,0.1-0.2,0.2l-1.1,1
	l-0.1,0.1l-0.8,0.6c-0.1,0.1-0.2,0.1-0.3,0.1l-1.2,0.3h-0.2l-1.3,0.2c-0.2,0-0.4,0-0.5-0.1L650,112l-0.2,0.2l-0.7,1.2l-0.2,0.9v0.9
	l0.6,1l0.7,0.7c0.1,0.1,0.1,0.2,0.2,0.3l0.4,1v0.1l0.2,0.9c0,0.2,0,0.3,0,0.5l-0.8,3.8l0.5,1l0.5,0.5c0.1,0.1,0.2,0.2,0.2,0.3
	l0.2,0.6l0.7,0.4l5.6,0.5l2.5-0.5h0.2h2.6c0.2,0,0.4,0.1,0.6,0.2l1.2,0.9l1.6,0.7L667.4,128.2z"/>
<path class="st1" d="M387.3,139.9c0-19.9-16.1-36-36-36s-36,16.1-36,36c0,20,36,57.2,36,57.2S387.3,159.9,387.3,139.9z M334.5,139.2
	c0-9.3,7.5-16.8,16.8-16.8s16.8,7.5,16.8,16.8c0,9.3-7.5,16.8-16.8,16.8C342,155.9,334.5,148.4,334.5,139.2L334.5,139.2z"/>
<path class="st1" d="M690.2,75c0-19.9-16.1-36-36-36c-19.9,0-36,16.1-36,36c0,20,36,57.2,36,57.2S690.2,95,690.2,75z M637.4,74.3
	c0-9.3,7.5-16.8,16.8-16.8S671,65,671,74.3c0,9.3-7.5,16.8-16.8,16.8C644.9,91,637.5,83.5,637.4,74.3L637.4,74.3z"/>
</svg>
